<svg xmlns="http://www.w3.org/2000/svg" width="240" height="120" viewBox="0 0 240 120">
  <g id="logo_IAG" transform="translate(-378 -386)">
    <rect id="Rectangle_7" data-name="Rectangle 7" width="240" height="120" transform="translate(378 386)" fill="#fff"/>
    <g id="svg_IAG-Logo" transform="translate(441 421)">
      <g id="g11129" transform="translate(0)">
        <path id="path10786" d="M1053.4,1879.13c-.549,5.778-2.932,10.653-6.709,13.718a14.274,14.274,0,0,1-2.631,1.7,14.043,14.043,0,0,0,1.67-.729c4.077-2.113,7.216-6.184,8.849-11.469a28.322,28.322,0,0,0,.788-3.273,15.82,15.82,0,0,0-1.841-2.739l-.009-.016a27.705,27.705,0,0,1-.117,2.8" transform="translate(-1016.296 -1865.35)" fill="#a09d9e"/>
        <path id="path10788" d="M1031.342,1972.537a14.241,14.241,0,0,1-3.942.54h-.076l.064.009a13.788,13.788,0,0,0,2.536.1,17.86,17.86,0,0,0,10.943-4.964,14.191,14.191,0,0,0,1.42-4.48,19.3,19.3,0,0,1-10.946,8.8" transform="translate(-1001.73 -1941.435)" fill="#a09d9e"/>
        <path id="path10790" d="M1054.668,1868.445a15.6,15.6,0,0,1-1.4,1.517c.271-.189.54-.385.8-.595,3.567-2.9,5.815-7.525,6.34-13.029a28.435,28.435,0,0,0,.082-3.845,17.894,17.894,0,0,0-2.784-2.245,27.637,27.637,0,0,1,.612,3.373c.684,5.765-.611,11.027-3.65,14.825" transform="translate(-1024.314 -1842.652)" fill="#a09d9e"/>
        <path id="path10792" d="M1038.857,1923.871a14.335,14.335,0,0,1-3.235,1.218,13.389,13.389,0,0,0,2.668-.466c4.42-1.24,8.324-4.593,10.993-9.437.123-.23.252-.466.371-.7l0-.222a13.959,13.959,0,0,0-.915-4.453c-.155.665-.329,1.331-.53,1.989-1.713,5.542-5.031,9.831-9.347,12.069" transform="translate(-1008.953 -1894.498)" fill="#a09d9e"/>
        <path id="path10794" d="M1061.88,1840.952a26.8,26.8,0,0,0-.852-4.245,19.244,19.244,0,0,0-2.507-1.155,31.827,31.827,0,0,1,1.872,9.567,24.973,24.973,0,0,1-1.212,8.9,19.224,19.224,0,0,0,2.7-13.067" transform="translate(-1028.884 -1829.862)" fill="#a09d9e"/>
        <path id="path10800" d="M843.84,1803.708a30.6,30.6,0,0,1,2.722-12.061c-9.222,1.625-16.536,8.539-16.705,17.393-.2,10.956,6.809,20.857,22.421,20.05A21.49,21.49,0,0,0,868,1820.649a16.227,16.227,0,0,1-8.109,4.274c-8.628,1.472-16.3-8.513-16.055-21.215" transform="translate(-829.853 -1791.648)" fill="#18468b"/>
        <path id="path10802" d="M1180.1,1870.165h8V1839.01h-8Z" transform="translate(-1134.703 -1832.871)" fill="#18468b"/>
        <path id="path10804" d="M1263.49,1862.168l-2.466,8H1252.7l10.848-31.155h10.481l11.053,31.155h-8.637l-2.731-8Zm9.012-5.273-2.217-6.609c-.576-1.847-1.206-4.211-1.728-6.007h-.162c-.472,1.841-1.051,4.212-1.581,6.007l-2.163,6.609h7.851" transform="translate(-1197.898 -1832.871)" fill="#18468b"/>
        <path id="path10806" d="M1506.175,1849.945h7.747V1865.6a44.735,44.735,0,0,1-11.849,1.754c-6.478,0-9.926-1.431-13.191-4.156a14.661,14.661,0,0,1-4.993-11.372c.05-10.364,7.386-16.272,19.035-16.272a28.779,28.779,0,0,1,9.835,1.478l-1.678,5.682a20.743,20.743,0,0,0-8.211-1.345c-6.7,0-10.567,3.333-10.567,10.083,0,6.476,3.405,10.215,9.975,10.215a13.685,13.685,0,0,0,3.9-.417v-11.3" transform="translate(-1399.121 -1829.862)" fill="#18468b"/>
        <path id="path10808" d="M864.727,2115.062h.933v-7.194h-.933Z" transform="translate(-860.207 -2066.884)" fill="#a09d9e"/>
        <path id="path10810" d="M883.039,2124.151c0-.548-.012-.971-.044-1.395h.831l.055.841h.025a1.915,1.915,0,0,1,1.706-.958c.713,0,1.824.422,1.824,2.2v3.084H886.5v-2.979c0-.834-.311-1.531-1.194-1.531a1.354,1.354,0,0,0-1.263.957,1.371,1.371,0,0,0-.064.435v3.117h-.938v-3.768" transform="translate(-876.107 -2079.741)" fill="#a09d9e"/>
        <path id="path10812" d="M925.617,2126.97a2.666,2.666,0,0,0,1.248.362c.673,0,1-.328,1-.768s-.269-.694-.955-.949c-.937-.338-1.372-.841-1.372-1.464a1.6,1.6,0,0,1,1.782-1.511,2.348,2.348,0,0,1,1.262.32l-.229.669a2.173,2.173,0,0,0-1.058-.3c-.553,0-.851.322-.851.708,0,.436.3.625.969.885.89.325,1.357.772,1.357,1.557,0,.917-.715,1.558-1.923,1.558a2.933,2.933,0,0,1-1.454-.362l.225-.706" transform="translate(-913.009 -2079.741)" fill="#a09d9e"/>
        <path id="path10814" d="M963.945,2127.3c0,.538.011,1,.038,1.407h-.831l-.049-.845h-.023a1.926,1.926,0,0,1-1.706.963c-.815,0-1.784-.455-1.784-2.261v-3.019h.941v2.849c0,.981.3,1.655,1.152,1.655a1.352,1.352,0,0,0,1.236-.869,1.226,1.226,0,0,0,.088-.479v-3.156h.938v3.755" transform="translate(-942.775 -2080.528)" fill="#a09d9e"/>
        <path id="path10816" d="M1004.117,2124.366c0-.611-.009-1.132-.041-1.61h.817l.044,1.011h.038a1.552,1.552,0,0,1,1.432-1.127,1.042,1.042,0,0,1,.26.028v.877c-.11,0-.2-.019-.333-.019a1.316,1.316,0,0,0-1.258,1.188,3.3,3.3,0,0,0-.027.45v2.755h-.941l.009-3.552" transform="translate(-981.495 -2079.741)" fill="#a09d9e"/>
        <path id="path10818" d="M1030.812,2126.686a8.907,8.907,0,0,0,.071,1.233h-.842l-.088-.654h-.024a1.908,1.908,0,0,1-1.582.772,1.462,1.462,0,0,1-1.573-1.485c0-1.246,1.1-1.924,3.1-1.915v-.113a1.064,1.064,0,0,0-1.175-1.195,2.512,2.512,0,0,0-1.353.385l-.211-.625a3.343,3.343,0,0,1,1.706-.448c1.592,0,1.975,1.074,1.975,2.112Zm-.916-1.4c-1.021-.02-2.192.156-2.192,1.16a.828.828,0,0,0,.878.9,1.313,1.313,0,0,0,1.274-.868,1.14,1.14,0,0,0,.04-.3v-.9" transform="translate(-1001.252 -2079.741)" fill="#a09d9e"/>
        <path id="path10820" d="M1068.379,2124.151c0-.548-.016-.971-.043-1.395h.83l.055.841h.013a1.931,1.931,0,0,1,1.712-.958c.72,0,1.825.422,1.825,2.2v3.084h-.941v-2.979c0-.834-.309-1.531-1.195-1.531a1.356,1.356,0,0,0-1.259.958,1.327,1.327,0,0,0-.066.435v3.117h-.931v-3.768" transform="translate(-1037.426 -2079.741)" fill="#a09d9e"/>
        <path id="path10822" d="M1114.617,2127.738a3.643,3.643,0,0,1-1.482.3,2.456,2.456,0,0,1-2.572-2.649,2.631,2.631,0,0,1,2.777-2.748,2.839,2.839,0,0,1,1.3.277l-.213.712a2.316,2.316,0,0,0-1.083-.244,1.8,1.8,0,0,0-1.83,1.963,1.774,1.774,0,0,0,1.8,1.93,2.67,2.67,0,0,0,1.148-.243l.161.7" transform="translate(-1074.18 -2079.741)" fill="#a09d9e"/>
        <path id="path10824" d="M1146.977,2125.445a1.65,1.65,0,0,0,1.764,1.79,3.577,3.577,0,0,0,1.428-.253l.171.66a4.158,4.158,0,0,1-1.724.333,2.407,2.407,0,0,1-2.541-2.6,2.513,2.513,0,0,1,2.429-2.792,2.173,2.173,0,0,1,2.127,2.428,2.026,2.026,0,0,1-.033.447Zm2.745-.671a1.341,1.341,0,0,0-1.291-1.532,1.551,1.551,0,0,0-1.441,1.532h2.732" transform="translate(-1105.091 -2079.687)" fill="#a09d9e"/>
        <path id="path10826" d="M1203.741,2112.776l-.743,2.259h-.96l2.437-7.2h1.124l2.458,7.2h-.994l-.766-2.259Zm2.361-.727-.714-2.073c-.152-.473-.249-.9-.365-1.317h-.03c-.1.417-.214.866-.351,1.3l-.708,2.086h2.167" transform="translate(-1153.8 -2066.857)" fill="#a09d9e"/>
        <path id="path10828" d="M1258.6,2127.266c0,.527.006,1,.041,1.408h-.833l-.052-.843h-.015a1.95,1.95,0,0,1-1.714.963c-.807,0-1.78-.464-1.78-2.26v-3.027h.935v2.853c0,.981.312,1.651,1.155,1.651a1.334,1.334,0,0,0,1.232-.867,1.162,1.162,0,0,0,.089-.479v-3.158h.943v3.759" transform="translate(-1199.244 -2080.495)" fill="#a09d9e"/>
        <path id="path10830" d="M1296.478,2126.951a2.641,2.641,0,0,0,1.243.364c.672,0,1-.334,1-.768,0-.45-.264-.7-.949-.952-.944-.344-1.377-.847-1.377-1.461a1.6,1.6,0,0,1,1.782-1.517,2.406,2.406,0,0,1,1.256.319l-.222.673a2.155,2.155,0,0,0-1.058-.3c-.555,0-.856.322-.856.7,0,.441.3.635.974.885.885.331,1.351.783,1.351,1.561,0,.918-.712,1.561-1.917,1.561a2.9,2.9,0,0,1-1.448-.368l.226-.7" transform="translate(-1235.803 -2079.72)" fill="#a09d9e"/>
        <path id="path10832" d="M1327.87,2113.947v1.239h1.341v.717h-1.341v2.784c0,.65.178,1,.7,1a1.811,1.811,0,0,0,.54-.063l.044.715a2.634,2.634,0,0,1-.831.132,1.348,1.348,0,0,1-1.015-.4,2,2,0,0,1-.362-1.356V2115.9h-.8v-.717h.8v-.948l.92-.29" transform="translate(-1261.826 -2072.175)" fill="#a09d9e"/>
        <path id="path10834" d="M1356.81,2124.342c0-.606-.011-1.128-.041-1.61h.818l.044,1.013h.035a1.561,1.561,0,0,1,1.442-1.129,1.033,1.033,0,0,1,.257.031v.877a2.747,2.747,0,0,0-.332-.021,1.306,1.306,0,0,0-1.258,1.191,2.722,2.722,0,0,0-.037.448v2.755h-.938l.011-3.557" transform="translate(-1288.476 -2079.72)" fill="#a09d9e"/>
        <path id="path10836" d="M1383.491,2126.661a9.174,9.174,0,0,0,.075,1.238h-.841l-.091-.65h-.024a1.933,1.933,0,0,1-1.581.77,1.473,1.473,0,0,1-1.578-1.486c0-1.252,1.1-1.937,3.1-1.925v-.1a1.062,1.062,0,0,0-1.175-1.194,2.44,2.44,0,0,0-1.352.389l-.22-.632a3.351,3.351,0,0,1,1.71-.45c1.594,0,1.974,1.082,1.974,2.115Zm-.919-1.4c-1.02-.024-2.186.16-2.186,1.162a.822.822,0,0,0,.876.9,1.314,1.314,0,0,0,1.275-.864,1.153,1.153,0,0,0,.035-.3v-.892" transform="translate(-1308.219 -2079.72)" fill="#a09d9e"/>
        <path id="path10838" d="M1421.323,2112.5h.937v-7.575h-.937Z" transform="translate(-1344.664 -2064.326)" fill="#a09d9e"/>
        <path id="path10840" d="M1439.227,2108.1a.586.586,0,0,0,.61-.606.573.573,0,0,0-.6-.6.6.6,0,0,0-.026,1.2Zm-.452,6.115h.935v-5.167h-.935Z" transform="translate(-1359.729 -2066.036)" fill="#a09d9e"/>
        <path id="path10842" d="M1458.969,2126.661a9.015,9.015,0,0,0,.075,1.238h-.843l-.085-.65h-.039a1.907,1.907,0,0,1-1.571.77,1.477,1.477,0,0,1-1.586-1.486c0-1.252,1.117-1.937,3.108-1.925v-.1a1.06,1.06,0,0,0-1.173-1.194,2.432,2.432,0,0,0-1.352.389l-.223-.633a3.38,3.38,0,0,1,1.712-.449c1.587,0,1.977,1.082,1.977,2.115Zm-.922-1.4c-1.024-.024-2.183.16-2.183,1.161a.819.819,0,0,0,.869.9,1.31,1.31,0,0,0,1.274-.864.968.968,0,0,0,.04-.3v-.891" transform="translate(-1373.905 -2079.72)" fill="#a09d9e"/>
        <path id="path10844" d="M1513.972,2114.174a6.475,6.475,0,0,1-2.211.393,3.661,3.661,0,0,1-2.695-.948,3.706,3.706,0,0,1-1-2.681,3.6,3.6,0,0,1,3.9-3.713,4.544,4.544,0,0,1,1.8.326l-.236.761a3.639,3.639,0,0,0-1.592-.308,2.69,2.69,0,0,0-2.889,2.9,2.629,2.629,0,0,0,2.77,2.9,3.2,3.2,0,0,0,1.246-.187v-2.147h-1.456v-.748h2.365v3.457" transform="translate(-1420.164 -2066.324)" fill="#a09d9e"/>
        <path id="path10846" d="M1563.358,2124.274c0-.6-.01-1.131-.041-1.608h.822l.047,1.012h.028a1.562,1.562,0,0,1,1.438-1.131.786.786,0,0,1,.256.033v.874a2.5,2.5,0,0,0-.328-.021,1.317,1.317,0,0,0-1.263,1.194,3.554,3.554,0,0,0-.027.453v2.757h-.942l.01-3.564" transform="translate(-1468.254 -2079.66)" fill="#a09d9e"/>
        <path id="path10848" d="M1588.693,2127.949a2.461,2.461,0,0,1-2.477-2.656,2.529,2.529,0,0,1,2.563-2.745,2.442,2.442,0,0,1,2.487,2.642,2.537,2.537,0,0,1-2.566,2.76h-.008Zm.033-.7c.891,0,1.568-.842,1.568-2.024,0-.871-.441-1.968-1.549-1.968s-1.579,1.021-1.579,2.006c0,1.131.642,1.986,1.544,1.986h.015" transform="translate(-1488.185 -2079.66)" fill="#a09d9e"/>
        <path id="path10850" d="M1637.518,2127.219c0,.537.017,1.01.043,1.421h-.83l-.052-.85h-.021a1.947,1.947,0,0,1-1.709.96c-.811,0-1.781-.459-1.781-2.264v-3.019h.937v2.848c0,.979.31,1.653,1.15,1.653a1.352,1.352,0,0,0,1.242-.86,1.3,1.3,0,0,0,.085-.482v-3.159h.936v3.752" transform="translate(-1529.052 -2080.461)" fill="#a09d9e"/>
        <path id="path10852" d="M1677.567,2124.35c0-.663-.007-1.2-.046-1.684h.848l.051.885h.023a1.987,1.987,0,0,1,1.828-1,2.343,2.343,0,0,1,2.2,2.627c0,1.856-1.144,2.774-2.352,2.774a1.818,1.818,0,0,1-1.59-.813h-.018v2.808h-.94Zm.94,1.379a1.449,1.449,0,0,0,1.442,1.482c.99,0,1.573-.808,1.573-2,0-1.034-.538-1.917-1.528-1.917a1.484,1.484,0,0,0-1.43,1.146,2.2,2.2,0,0,0-.056.385v.9" transform="translate(-1567.657 -2079.66)" fill="#a09d9e"/>
      </g>
    </g>
  </g>
</svg>
