<svg xmlns="http://www.w3.org/2000/svg" xmlns:xlink="http://www.w3.org/1999/xlink" width="240" height="120" viewBox="0 0 240 120">
  <defs>
    <radialGradient id="radial-gradient" cx="0.449" cy="0.972" r="3.057" gradientUnits="objectBoundingBox">
      <stop offset="0" stop-color="#3e98d3"/>
      <stop offset="1" stop-color="#192777"/>
    </radialGradient>
  </defs>
  <g id="logo_Danone" transform="translate(-1370 -130)">
    <rect id="Rectangle_6" data-name="Rectangle 6" width="240" height="120" transform="translate(1370 130)" fill="#fff"/>
    <g id="svg_Danon-Logo" transform="translate(1427 170)">
      <path id="path846" d="M260.313,236.217a51.863,51.863,0,0,1-18.579-4.411,80.593,80.593,0,0,1-8.086-4.061c-1.831-1.045-6.024-3.611-6.257-3.83a.569.569,0,0,1-.2-.46.589.589,0,0,1,.614-.61c.185,0,.23.02.668.291a51.149,51.149,0,0,0,6.555,3.327,70.775,70.775,0,0,0,36.637,4.608,63.142,63.142,0,0,0,23.221-7.73c.927-.551,1.012-.58,1.29-.437a.6.6,0,0,1,.168.977,23.537,23.537,0,0,1-2.37,1.518,81.713,81.713,0,0,1-14.888,7.559A48.821,48.821,0,0,1,260.313,236.217Z" transform="translate(-198.412 -196.384)" fill="#e30613"/>
      <path id="path4280" d="M0,14.62a8.633,8.633,0,0,1,.234,1.437C.374,18.706.381,20.9.4,23.35c.032,1.89.013,3.733,0,5.506C.383,30.058.374,30.712.374,31.8a54.416,54.416,0,0,1-.258,5.528,31.586,31.586,0,0,0,6.03.517,15.938,15.938,0,0,0,9.7-3.139,11.415,11.415,0,0,0,4.219-9.417c0-4.838-2.073-7.5-4.812-9.232S8.331,13.993,5.11,14.14A48.606,48.606,0,0,0,0,14.62ZM126.15,32.827,121.3,31.682a5.785,5.785,0,0,1-4.409,1.846c-3.632-.066-5.437-2.2-6.108-5.724h15.62a16.774,16.774,0,0,0,.221-3.841,11.9,11.9,0,0,0-2.517-6.869c-1.572-1.979-4.276-3.016-7.619-2.992a10.258,10.258,0,0,0-7.737,3.25c-1.909,2.023-3.052,5.107-3,9.121.051,3.813,1.024,6.652,3.405,8.974a9.273,9.273,0,0,0,6.811,2.474c5.571-.168,7.886-1.959,10.176-5.1Zm-3.966-8.937H110.971c.2-2.893,2.853-5.588,5.666-5.575A5.488,5.488,0,0,1,122.184,23.89ZM73.016,18.481c3.708,0,6.715,3.349,6.715,7.479s-3.007,7.479-6.715,7.479S66.3,30.09,66.3,25.96,69.309,18.481,73.016,18.481ZM73.16,14C79.382,14,84.428,19.4,84.428,25.96A11.708,11.708,0,0,1,73.016,37.844c-6.221,0-11.267-5.322-11.267-11.884S66.939,14,73.16,14ZM85.4,37.037h5.03V21.858a34.234,34.234,0,0,1,10.03,15.179l4.321.026v-22.3H99.969l-.005,10.923a32.128,32.128,0,0,0-5.17-6.369,38.025,38.025,0,0,0-5.136-4.554H85.4Zm-43.944,0h4.886V21.858A34.1,34.1,0,0,1,56.3,37.037h4.368V14.768H55.785V25.513A47.808,47.808,0,0,0,45.569,14.768H41.46ZM27.505,14.768h4.738c4.6,5.078,7.417,12.465,8.366,22.27H35.463a48.2,48.2,0,0,0-.625-4.839H24.681a46.981,46.981,0,0,0-.618,4.839h-5C19.967,27.173,22.987,19.541,27.505,14.768ZM33.89,28.026a34.589,34.589,0,0,0-4.2-9.086,33.033,33.033,0,0,0-4.129,9.086ZM5.153,18.5s.993-.037,2.215-.037A8.439,8.439,0,0,1,13.221,20.6a7.128,7.128,0,0,1,2,5.614,6.766,6.766,0,0,1-3.742,6.278,11.866,11.866,0,0,1-6.361.924Z" transform="translate(-0.002 -14.004)" fill-rule="evenodd" fill="url(#radial-gradient)"/>
    </g>
  </g>
</svg>
