<svg xmlns="http://www.w3.org/2000/svg" xmlns:xlink="http://www.w3.org/1999/xlink" width="240" height="120" viewBox="0 0 240 120">
  <defs>
    <linearGradient id="linear-gradient" x1="0.146" y1="0.146" x2="0.854" y2="0.854" gradientUnits="objectBoundingBox">
      <stop offset="0" stop-color="#f99d1c"/>
      <stop offset="1" stop-color="#f26522"/>
    </linearGradient>
    <linearGradient id="linear-gradient-2" x1="0.158" y1="0.161" x2="0.984" y2="0.882" gradientUnits="objectBoundingBox">
      <stop offset="0" stop-color="#df7f1b"/>
      <stop offset="1" stop-color="#d14e1d"/>
    </linearGradient>
    <radialGradient id="radial-gradient" cx="0.134" cy="0.159" r="0.997" gradientUnits="objectBoundingBox">
      <stop offset="0" stop-color="#fff"/>
      <stop offset="0.35" stop-color="#fbfbfc"/>
      <stop offset="0.67" stop-color="#f0f1f1"/>
      <stop offset="0.98" stop-color="#dddedf"/>
      <stop offset="1" stop-color="#dcddde"/>
    </radialGradient>
    <linearGradient id="linear-gradient-3" x1="0.146" y1="0.146" x2="0.854" y2="0.854" gradientUnits="objectBoundingBox">
      <stop offset="0" stop-color="#dcddde"/>
      <stop offset="0.2" stop-color="#d8d9da"/>
      <stop offset="0.39" stop-color="#cdcecf"/>
      <stop offset="0.57" stop-color="#babbbd"/>
      <stop offset="0.75" stop-color="#a0a1a3"/>
      <stop offset="0.92" stop-color="#7e7f82"/>
      <stop offset="1" stop-color="#6d6e71"/>
    </linearGradient>
  </defs>
  <g id="logo_Autotrader" transform="translate(-874 -386)">
    <rect id="Rectangle_4" data-name="Rectangle 4" width="240" height="120" transform="translate(874 386)" fill="#fff"/>
    <g id="Autotrader_logo" transform="translate(893 421)">
      <circle id="Ellipse_1" data-name="Ellipse 1" cx="24.805" cy="24.805" r="24.805" transform="translate(151.608 0.337)" fill="#fff"/>
      <circle id="Ellipse_2" data-name="Ellipse 2" cx="18.796" cy="18.796" r="18.796" transform="translate(157.617 6.346)" fill="url(#linear-gradient)"/>
      <path id="Path_841" data-name="Path 841" d="M370.713,32.765H369.36a18.8,18.8,0,0,1,12.138-16.7l-.252,1.391a18.779,18.779,0,0,0-10.533,15.313Zm18.139-14.511-.615-3.414h-.209l-3.239,17.925h1.434ZM377.328,39.2l.128-.717h-7.49a18.779,18.779,0,0,0,5.792,9.308l.085-.465a18.779,18.779,0,0,1-4.571-8.109h6.039l.017-.017Zm15.322,0-.128-.717H383.76l-2.3,12.735c.427.166.9.316,1.353.452L385.062,39.2h7.588Zm2.134-23.14,5.736,31.732c.346-.3.679-.623,1-.952L396.06,16.6q-.645-.273-1.293-.538l.017,0Z" transform="translate(-211.722 -8.506)" fill="url(#linear-gradient-2)"/>
      <path id="Path_842" data-name="Path 842" d="M380.541,1.67A24.429,24.429,0,1,0,404.979,26.1,24.429,24.429,0,0,0,380.541,1.67Zm-.1,5.634h.213l3.235,17.925H377.2L380.438,7.3Zm-12.27,32.935a18.779,18.779,0,0,1-5.792-9.308h7.477l-1.686,9.308Zm-6.4-15.027A18.8,18.8,0,0,1,373.9,8.507l-3.022,16.7Zm18.779,19.679a18.736,18.736,0,0,1-6.675-1.225l2.3-12.735h8.745l2.3,12.735a18.736,18.736,0,0,1-6.679,1.229l0,0Zm12.377-4.652L387.186,8.507a18.779,18.779,0,0,1,5.728,31.732Z" transform="translate(-204.132 -0.957)" fill="url(#radial-gradient)"/>
      <path id="Path_843" data-name="Path 843" d="M379.572,0a25.142,25.142,0,1,0,25.142,25.142A25.142,25.142,0,0,0,379.572,0Zm0,49.567A24.429,24.429,0,1,1,404.01,25.142a24.429,24.429,0,0,1-24.438,24.425l0,0Z" transform="translate(-203.163)" fill="url(#linear-gradient-3)"/>
      <path id="Path_844" data-name="Path 844" d="M369.519,39.613h-.341a19.129,19.129,0,0,0,6.069,9.692l.068-.38a18.778,18.778,0,0,1-5.8-9.313Zm18.164,13.96a18.753,18.753,0,0,1-6.675-1.221l-.06.333a19.206,19.206,0,0,0,13.474,0l-.06-.333A18.779,18.779,0,0,1,387.683,53.574Zm19.129-18.8a19.137,19.137,0,0,0-12.56-17.968l.068.38a18.779,18.779,0,0,1,5.736,31.736l.068.38A19.082,19.082,0,0,0,406.812,34.778ZM384.29,34.21h6.794l-.06-.32h-6.679Zm-3.239-17.02.068-.38A19.137,19.137,0,0,0,368.58,33.882V34.2h9.389l.06-.316h-9.116A18.8,18.8,0,0,1,381.051,17.19Z" transform="translate(-211.274 -9.636)" fill="#fff"/>
      <path id="Subtraction_3" data-name="Subtraction 3" d="M18.229,22.347H14.182l-1.434-4.584H5.267L3.8,22.347H0L7.593,0H10.6l7.627,22.347ZM9.022,6.039l-2.65,8.276h5.262L9.074,6.039Z" transform="translate(0 15.01)" fill="#062665"/>
      <path id="Subtraction_2" data-name="Subtraction 2" d="M24.112,21.782l-.221,0a5.586,5.586,0,0,1-4.443-1.613c-1.032-1.143-1.434-2.549-1.434-5.015V6.982H15.331V4.118h2.684V0h3.654V4.118H25.36V6.982H21.668v8.168a3.693,3.693,0,0,0,.61,2.612,2.619,2.619,0,0,0,2.185.717c.064,0,.128,0,.192,0a5.353,5.353,0,0,0,.632-.038v3.261A9.244,9.244,0,0,1,24.112,21.782Zm9.954-.007a6.807,6.807,0,0,1-4.849-1.593,6.267,6.267,0,0,1-1.706-4.745v-5.16A6.326,6.326,0,0,1,29.217,5.5a6.779,6.779,0,0,1,4.849-1.6,6.789,6.789,0,0,1,4.849,1.6,6.328,6.328,0,0,1,1.706,4.779v5.16a6.264,6.264,0,0,1-1.706,4.741A6.8,6.8,0,0,1,34.066,21.775Zm0-14.524a2.823,2.823,0,0,0-2.326.824,4.126,4.126,0,0,0-.572,2.723v4.1a4.21,4.21,0,0,0,.572,2.723,2.908,2.908,0,0,0,2.326.824,2.84,2.84,0,0,0,2.33-.824c.486-.593.572-1.35.572-2.723V10.8a4.267,4.267,0,0,0-.572-2.723A2.914,2.914,0,0,0,34.062,7.251ZM6.556,21.775a6.807,6.807,0,0,1-4.849-1.593A6.266,6.266,0,0,1,0,15.437V4.118H3.662V14.9a4.21,4.21,0,0,0,.572,2.723,2.908,2.908,0,0,0,2.326.824,2.824,2.824,0,0,0,2.326-.824A4.068,4.068,0,0,0,9.458,14.9V4.118h3.653V15.437a6.264,6.264,0,0,1-1.706,4.741A6.8,6.8,0,0,1,6.556,21.775Z" transform="translate(19.64 15.8)" fill="#062665"/>
      <path id="Subtraction_4" data-name="Subtraction 4" d="M8.782,21.782l-.22,0a5.586,5.586,0,0,1-4.443-1.613c-1.032-1.143-1.434-2.549-1.434-5.015V6.982H0V4.118H2.685V0H6.338V4.118H10.03V6.982H6.338v8.168a3.693,3.693,0,0,0,.61,2.612,2.608,2.608,0,0,0,2.185.717c.064,0,.128,0,.192,0a5.353,5.353,0,0,0,.632-.038v3.261A9.244,9.244,0,0,1,8.782,21.782Zm20.691-.01a5.8,5.8,0,0,1-3.9-1.508C24.5,19.2,24.028,17.729,24.028,15.5V10.166c0-2.229.475-3.7,1.541-4.763a5.793,5.793,0,0,1,3.9-1.508c.083,0,.167,0,.25.005a5.811,5.811,0,0,1,2.377.47,4.179,4.179,0,0,1,1.708,1.357l.106-1.613h3.222l0,0V21.561H33.951l-.073-1.8a4.92,4.92,0,0,1-3.959,2.01c-.066,0-.132,0-.2,0C29.639,21.77,29.556,21.772,29.473,21.772ZM30.59,7.224c-.062,0-.124,0-.186.006a2.529,2.529,0,0,0-2.04.717c-.517.55-.683,1.255-.683,2.9v3.939c0,1.629.153,2.271.683,2.864a2.656,2.656,0,0,0,1.863.757c.058,0,.118,0,.177-.006h.077a3.192,3.192,0,0,0,2.057-.752c.669-.638.93-1.5.93-3.081V11.062c0-1.588-.27-2.49-.93-3.116A2.989,2.989,0,0,0,30.59,7.224ZM16.829,21.565H13.175V4.118h3.406l.073,2.006A4.558,4.558,0,0,1,20.567,3.9c.057,0,.114,0,.171,0a11.368,11.368,0,0,1,1.281.072V7.452c-.241-.024-.488-.037-.736-.037l-.195,0a4.594,4.594,0,0,0-3.329,1.037,4.163,4.163,0,0,0-.93,3.081V21.565Z" transform="translate(62.05 15.8)" fill="#062665"/>
      <path id="Subtraction_5" data-name="Subtraction 5" d="M5.779,24.143a5.987,5.987,0,0,1-4.225-1.5C.479,21.571,0,20.1,0,17.857V12.522c0-2.229.475-3.7,1.541-4.763a6.037,6.037,0,0,1,4.268-1.5l.138,0A5.2,5.2,0,0,1,9.462,7.618V0h3.662V23.926H9.936l-.145-1.682A4.573,4.573,0,0,1,5.779,24.143Zm.8-14.55c-.062,0-.124,0-.186.006a2.535,2.535,0,0,0-2.044.717c-.517.55-.683,1.255-.683,2.9v3.939c0,1.6.16,2.274.683,2.864a2.659,2.659,0,0,0,1.864.757c.061,0,.122,0,.18-.006h.077a3.192,3.192,0,0,0,2.057-.752c.67-.638.931-1.5.931-3.081V13.431c0-1.588-.27-2.49-.931-3.116A2.989,2.989,0,0,0,6.579,9.593Z" transform="translate(102.685 13.435)" fill="#062665"/>
      <path id="Subtraction_6" data-name="Subtraction 6" d="M6.449,17.857a6.639,6.639,0,0,1-4.8-1.593A6.358,6.358,0,0,1,0,11.519V6.376H.022A6.419,6.419,0,0,1,1.674,1.6,6.612,6.612,0,0,1,6.47,0a6.615,6.615,0,0,1,4.794,1.6,6.425,6.425,0,0,1,1.651,4.779V9.312a.88.88,0,0,1-.263.731.874.874,0,0,1-.74.234H3.675V11.1a4.855,4.855,0,0,0,.457,2.533,2.49,2.49,0,0,0,2.339.975,2.842,2.842,0,0,0,2.1-.68,2.654,2.654,0,0,0,.654-1.97h3.6v.06a5.564,5.564,0,0,1-1.7,4.36,5.428,5.428,0,0,1-2.005,1.107A8.924,8.924,0,0,1,6.449,17.857Zm.017-14.6a2.505,2.505,0,0,0-2.257.9,4.6,4.6,0,0,0-.538,2.647v.572H9.262V6.807a5.045,5.045,0,0,0-.47-2.573A2.482,2.482,0,0,0,6.466,3.261Z" transform="translate(119.308 19.701)" fill="#062665"/>
      <path id="Path_855" data-name="Path 855" d="M321.4,46.379l.073,2.006a4.558,4.558,0,0,1,4.084-2.219,11.261,11.261,0,0,1,1.28.073v3.474a7.405,7.405,0,0,0-.93-.034,4.6,4.6,0,0,0-3.329,1.037,4.132,4.132,0,0,0-.93,3.081v10.03H318V46.379h3.4Z" transform="translate(-182.281 -26.461)" fill="#062665" fill-rule="evenodd"/>
    </g>
  </g>
</svg>
