<svg xmlns="http://www.w3.org/2000/svg" width="240" height="120" viewBox="0 0 240 120">
  <g id="logo_Sephora" transform="translate(-874 -130)">
    <rect id="Rectangle_4" data-name="Rectangle 4" width="240" height="120" transform="translate(874 130)" fill="#fff"/>
    <g id="svg_Sephora-Logo" transform="translate(904 178)">
      <path id="Path_827" data-name="Path 827" d="M22.692,22.182l-1.867-.933c-1.906-.933-3.578-1.867-3.228-3.811a3.231,3.231,0,0,1,3.383-2.917,8.247,8.247,0,0,1,3.267,1.011,9.151,9.151,0,0,1,.894.506l.622-3.072A8.823,8.823,0,0,0,23.392,11.8c-1.167-.35-6.028-1.244-8.4,3.111-2.606,4.745,1.011,7.739,3.967,9.334.039,0,.039.039.078.039,2.411,1.283,5.406,2.411,4.939,4.978a3.565,3.565,0,0,1-3.85,2.839c-1.75,0-4.745-1.711-4.745-1.711l-1.05,3.267a9,9,0,0,0,2.295,1.167c1.167.35,7.117,1.322,9.528-3.033C28.72,27.043,25.648,23.776,22.692,22.182Z" transform="translate(-14.096 -11.479)" fill="#1a1818"/>
      <path id="Path_828" data-name="Path 828" d="M78.361,16.506H88.706V13.2H74.9V35.64H88.706V32.334H78.361V25.567h7.272V22.261H78.361Z" transform="translate(-51.253 -12.531)" fill="#1a1818"/>
      <g id="Group_765" data-name="Group 765" transform="translate(49.897 0.666)">
        <path id="Path_829" data-name="Path 829" d="M148.078,13.2H142.4v22.44h3.228V26.379h5.095s6.145.039,6.145-6.845C156.867,12.845,148.078,13.2,148.078,13.2Zm2.839,10.811h-5.289V15.8h3.656s4.783-.039,4.783,4.122A3.978,3.978,0,0,1,150.917,24.006Z" transform="translate(-142.4 -13.192)" fill="#1a1818"/>
      </g>
      <path id="Path_830" data-name="Path 830" d="M219.75,21.867H208.161V13.078H204.7v22.44h3.461V25.173H219.75V35.517h3.461V13H219.75Z" transform="translate(-130.574 -12.408)" fill="#1a1818"/>
      <g id="Group_766" data-name="Group 766" transform="translate(102.438 0.397)">
        <path id="Path_831" data-name="Path 831" d="M289.05,12.5A11.55,11.55,0,1,0,300.6,24.05,11.552,11.552,0,0,0,289.05,12.5Zm0,19.756a8.206,8.206,0,1,1,8.206-8.206A8.207,8.207,0,0,1,289.05,32.256Z" transform="translate(-277.5 -12.5)" fill="#1a1818"/>
      </g>
      <g id="Group_767" data-name="Group 767" transform="translate(135.65 0.622)">
        <path id="XMLID_36_" d="M372.934,25.375s4.006-.933,4.006-6.145c0-6.65-7.545-6.145-7.545-6.145H362.9v22.44h3.228V25.764h3.422l6.922,9.761h3.772Zm-6.845-1.983V15.731h3.656s4.356-.039,4.356,4.122a3.67,3.67,0,0,1-2.839,3.539Z" transform="translate(-362.9 -13.077)" fill="#1a1818"/>
      </g>
      <g id="Group_768" data-name="Group 768" transform="translate(161.123 0.592)">
        <path id="Path_832" data-name="Path 832" d="M439.289,13h-2.956L428.4,35.517h2.956l1.906-5.445h9.061l1.983,5.445h2.956Zm-5.445,15.245L437.072,17.2h.778l3.928,11.045Z" transform="translate(-428.4 -13)" fill="#1a1818"/>
      </g>
    </g>
  </g>
</svg>
