<svg xmlns="http://www.w3.org/2000/svg" width="240" height="120" viewBox="0 0 240 120">
  <g id="logo_Princess" transform="translate(-626 -258)">
    <rect id="Rectangle_3" data-name="Rectangle 3" width="240" height="120" transform="translate(626 258)" fill="#fff"/>
    <g id="Princess_Cruises" data-name="Princess Cruises" transform="translate(403.143 3.49)">
      <path id="Path_856" data-name="Path 856" d="M671.209,697.92a6.706,6.706,0,0,0-1.333-.242c-3.154-.639-5.5-2.3-6.47-5.451a8,8,0,0,1,1.884-8.308,7.558,7.558,0,0,1,4.75-2.23,19.756,19.756,0,0,1,6.249.338c1.151.226,1.008.14.916,1.192-.07.81-.036,1.622-.083,2.432-.018.312.08.788-.395.8s-.352-.456-.389-.754a2.628,2.628,0,0,0-1.028-1.862c-1.33-1-5.2-1.57-7.132.091a5.629,5.629,0,0,0-1.876,3.534,8.377,8.377,0,0,0,1.488,6.611,5.433,5.433,0,0,0,4.669,2.33,9.514,9.514,0,0,0,1.816-.147,2.89,2.89,0,0,0,2.285-2.213c.022-.077.034-.159.056-.236a.333.333,0,0,1,.389-.275.315.315,0,0,1,.292.372c-.046.524-.1,1.049-.18,1.568-.059.4-.154.795-.234,1.192a.944.944,0,0,1-.72.789,10.961,10.961,0,0,1-2.1.4,1.79,1.79,0,0,1-.513.031h-1.622a1.587,1.587,0,0,0-.552.042C671.317,697.92,671.264,697.92,671.209,697.92Z" transform="translate(-319.862 -347.325)" fill="#7c7d7c"/>
      <path id="Path_857" data-name="Path 857" d="M943.172,697.878c-.449-.219-.955-.236-1.42-.411-.764-.288-.865-.39-.841-1.21.027-.878.08-1.755.131-2.633.015-.256.091-.521.409-.5.292.022.316.295.329.529a3.725,3.725,0,0,0,.41,1.554,2.866,2.866,0,0,0,4.589.423,2.554,2.554,0,0,0,0-2.86,6.458,6.458,0,0,0-1.518-1.566,17.913,17.913,0,0,1-2.626-2.351,4.858,4.858,0,0,1-1.234-4.013,4.07,4.07,0,0,1,3.473-3.2,9.179,9.179,0,0,1,3.978.222.475.475,0,0,1,.417.543c-.038.851-.053,1.7-.088,2.554-.01.233-.044.489-.352.5s-.35-.234-.373-.473a2.289,2.289,0,0,0-1.472-2.022,2.647,2.647,0,0,0-2.629.268A1.942,1.942,0,0,0,944,685.9a7.936,7.936,0,0,0,1.854,1.745,13.6,13.6,0,0,1,2.808,2.62,4.737,4.737,0,0,1-.378,6.258,5.3,5.3,0,0,1-2.718,1.265c-.074.014-.167-.013-.206.087h-.406a4.114,4.114,0,0,0-1.3,0Z" transform="translate(-558.773 -347.283)" fill="#7c7d7c"/>
      <path id="Path_858" data-name="Path 858" d="M865.647,697.868c-.489-.225-1.035-.249-1.532-.456-.659-.275-.75-.366-.734-1.078.018-.824.045-1.65.094-2.473.018-.293-.014-.724.4-.733.445-.008.355.43.385.719a2.816,2.816,0,0,0,3.5,2.683,2.342,2.342,0,0,0,1.662-3.444,5.38,5.38,0,0,0-1.6-1.81,18.91,18.91,0,0,1-2.718-2.428,4.827,4.827,0,0,1-1.224-4.09,4.066,4.066,0,0,1,3.415-3.112,9.155,9.155,0,0,1,4.057.222.46.46,0,0,1,.386.528c-.035.851-.053,1.7-.088,2.554-.01.232-.039.493-.347.508-.343.017-.352-.251-.383-.5a2.293,2.293,0,0,0-1.536-2.016,2.609,2.609,0,0,0-2.681.388,1.969,1.969,0,0,0-.232,2.557,7.9,7.9,0,0,0,1.849,1.748,12.713,12.713,0,0,1,2.973,2.852,4.668,4.668,0,0,1-.907,6.336,5.548,5.548,0,0,1-2.342.96c-.074.014-.167-.013-.205.089h-.324a5.791,5.791,0,0,0-1.543,0Z" transform="translate(-492.131 -347.273)" fill="#7c7d7c"/>
      <path id="Path_859" data-name="Path 859" d="M726.091,797.47h1.72c.021.018.027.036.017.052s-.017.022-.025.022h-1.7c-.025-.014-.034-.031-.028-.048S726.084,797.47,726.091,797.47Z" transform="translate(-374.1 -446.949)" fill="#959695"/>
      <path id="Path_860" data-name="Path 860" d="M881.85,797.4a3.1,3.1,0,0,1,1.543,0Z" transform="translate(-508.008 -446.808)" fill="#959695"/>
      <path id="Path_861" data-name="Path 861" d="M960.5,797.394a2.18,2.18,0,0,1,1.3,0Z" transform="translate(-575.614 -446.799)" fill="#8e8f8e"/>
      <path id="Path_862" data-name="Path 862" d="M723.29,797.385a.445.445,0,0,1,.007.074h-.487C722.949,797.3,723.132,797.413,723.29,797.385Z" transform="translate(-371.3 -446.864)" fill="#bebebe"/>
      <path id="Path_863" data-name="Path 863" d="M738.42,797.553a.623.623,0,0,1,.008-.073h.486a.181.181,0,0,0-.006.073Z" transform="translate(-384.718 -446.958)" fill="#bfc0bf"/>
      <g id="Group_781" data-name="Group 781" transform="translate(290.914 277.51)">
        <path id="Path_864" data-name="Path 864" d="M394.867,284.036c-.128-.011-.215.084-.316.138a14.61,14.61,0,0,1-10.944,1.38A45.705,45.705,0,0,1,376.8,283.1a60.552,60.552,0,0,0-6.451-2.617,14.857,14.857,0,0,0-7.444-.517,19.145,19.145,0,0,0-6.8,3.027c-1.665,1.108-3.273,2.3-5,3.311A11.255,11.255,0,0,1,345.618,288a15.684,15.684,0,0,1-6.032-1.251,49.922,49.922,0,0,1-7.9-4.1,31.153,31.153,0,0,0-13.3-4.916,28.608,28.608,0,0,0-7.283.022,22.641,22.641,0,0,0-14.542,8.394,23.663,23.663,0,0,0-5.044,18.668,21.591,21.591,0,0,0,6.628,13.039c.746.716,1.424.577,1.818-.369q3.732-8.973,7.466-17.945a14.5,14.5,0,0,1,3.578-5.159,9.615,9.615,0,0,1,7.879-2.665,19.118,19.118,0,0,1,3.947,1.038c2.893.967,5.729,2.106,8.695,2.85a13.909,13.909,0,0,0,7.608.01,19.646,19.646,0,0,0,6-3.23,35.893,35.893,0,0,1,4.248-2.975,11.7,11.7,0,0,1,11.483-.3c2.608,1.244,5.162,2.6,7.83,3.717a28.807,28.807,0,0,0,9.077,2.428,15.013,15.013,0,0,0,10.4-3,25.171,25.171,0,0,0,6.667-8.022C394.877,284.168,394.921,284.114,394.867,284.036Z" transform="translate(-291.266 -277.51)" fill="#005faa"/>
        <path id="Path_865" data-name="Path 865" d="M518.647,400.065a13.546,13.546,0,0,1-11.224.691,48.682,48.682,0,0,1-5.433-2.619,44.343,44.343,0,0,0-6.26-2.95,15.219,15.219,0,0,0-7.664-.757,18.351,18.351,0,0,0-6.795,2.737,71.558,71.558,0,0,1-6.772,4.066,11.452,11.452,0,0,1-5.809,1.376,14.694,14.694,0,0,1-5.191-1.481,74.688,74.688,0,0,1-7.428-4.142c-.937-.566-1.338-.423-1.731.608a2.627,2.627,0,0,0-.091.31,5.285,5.285,0,0,0,.133,2.248,42.888,42.888,0,0,0,1.383,4.95,1.108,1.108,0,0,1-.657,1.526,5.653,5.653,0,0,1-.959.319c-.826.249-1.088.755-.681,1.507a1.047,1.047,0,0,1-.687,1.615,7.374,7.374,0,0,1-.826.2.37.37,0,0,0-.331.31c-.024.2.108.286.277.341s.336.105.5.171a.632.632,0,0,1,.31,1.015,2.37,2.37,0,0,1-.657.594c-.432.313-.473.43-.233.915a2.179,2.179,0,0,1,.146,1.5,1.427,1.427,0,0,1-1.525,1.135c-2.042-.072-4.086-.126-6.121-.285a4.743,4.743,0,0,0-4.128,1.629,10.279,10.279,0,0,0-.967,1.25,25.862,25.862,0,0,0-2.445,5.193c-.114.3.094.282.24.324a31.921,31.921,0,0,0,7.911,1.231,42.819,42.819,0,0,0,11.061-1.177,64.517,64.517,0,0,0,13.171-4.7,41.161,41.161,0,0,1,6.726-2.678,11.8,11.8,0,0,1,8.579.548c2.175,1.053,4.36,2.087,6.447,3.315a39.756,39.756,0,0,0,8.026,3.829,16.075,16.075,0,0,0,7.158.757,14.211,14.211,0,0,0,7.62-3.685,28.34,28.34,0,0,0,5.707-7.429c.027-.048.052-.093-.022-.139a15.771,15.771,0,0,1-2.373,1.115,12.89,12.89,0,0,1-8.228.52,26.953,26.953,0,0,1-5.3-2.317c-2.07-1.113-4.1-2.306-6.256-3.245a18.658,18.658,0,0,0-6.437-1.668,16.517,16.517,0,0,0-8.967,2.228c-1.663.908-3.2,2.023-4.811,3.009a15.038,15.038,0,0,1-12.49,1.759,36.056,36.056,0,0,1-8.695-4c-.1-.062-.236-.135-.177-.279.081-.2.261-.2.449-.167a13.042,13.042,0,0,0,6.43-.635,33.3,33.3,0,0,0,6.411-3.27,51.514,51.514,0,0,1,6.539-3.652,11.118,11.118,0,0,1,9.819.188c2.933,1.467,5.878,2.918,8.928,4.141a29.236,29.236,0,0,0,9.187,2.332,14.471,14.471,0,0,0,10.419-3.377,24.8,24.8,0,0,0,5.645-7.056.207.207,0,0,0,.014-.234C519.222,399.769,518.939,399.923,518.647,400.065Z" transform="translate(-416.319 -377.844)" fill="#005faa"/>
      </g>
      <path id="Subtraction_1" data-name="Subtraction 1" d="M12.683,15.795a3.52,3.52,0,0,1-2.755-1.247,31.506,31.506,0,0,1-2.988-4.239,1.608,1.608,0,0,0-1.474-.923c-.066,0-.136,0-.207.009L5.1,9.407c-.606.047-.617.048-.613.754,0,.256,0,.517,0,.769v.007c0,.942,0,1.916.078,2.873.02.232.047.442.084.642a.637.637,0,0,0,.631.576c.142.01.285.024.424.037h0c.138.013.281.027.422.037.226.016.349.123.357.31s-.114.311-.333.34a1.839,1.839,0,0,1-.259.015H5.784c-.881-.013-1.82-.026-2.748-.026-.759,0-1.44.008-2.083.026H.79c-.264-.008-.5-.039-.51-.334s.235-.321.47-.333H.778c.8-.043.934-.172,1.029-.983a13.628,13.628,0,0,0,.08-1.619c0-4.246,0-7.488-.007-10.512a3.826,3.826,0,0,0-.036-.452v0c0-.036-.009-.072-.013-.108A.735.735,0,0,0,1.1.737C.928.716.753.7.584.689L.372.671C.2.657.017.622,0,.382-.018.118.179.049.352.019A1.153,1.153,0,0,1,.559,0c.054,0,.108,0,.159,0,.7.033,1.449.05,2.282.05C4.113.057,5.24.028,6.234,0l.142,0A5.736,5.736,0,0,1,8.935.615a3.342,3.342,0,0,1,1.879,2.84A5.149,5.149,0,0,1,9.242,7.607c-.07.077-.144.153-.216.226l-.009.009c-.622.632-.622.632-.1,1.329l0,0,.441.594c1,1.354,2.043,2.753,3.17,4.047a3.862,3.862,0,0,0,1.221.961,3.321,3.321,0,0,0,1.458.325,4.234,4.234,0,0,0,.654-.053.6.6,0,0,0,.555-.586,13.8,13.8,0,0,0,.132-2.014v-.017q0-.117,0-.233c.018-.956.014-1.932.01-2.877v0c0-.4,0-.807,0-1.213q0-.685,0-1.37V6.724c0-1.343,0-2.731,0-4.1,0-.395-.034-.791-.062-1.092-.051-.551-.259-.755-.821-.809L15.407.7,15.231.679c-.224-.024-.34-.134-.345-.326-.006-.256.217-.311.351-.32.187-.014.375-.021.557-.021.14,0,.28,0,.416.012.581.035,1.159.053,1.72.053S19.065.059,19.616.023c.117-.007.242-.011.392-.011.116,0,.234,0,.339,0,.252.006.5.036.513.333.012.28-.209.321-.458.341-.085.007-.17.018-.253.028L19.957.74a.651.651,0,0,0-.622.589,5.344,5.344,0,0,0-.076,1.01v1.8c0,2.963,0,6.026.008,9.038a11.272,11.272,0,0,0,.077,1.172c.05.454.234.633.705.684.3.033.6.056.889.076.223.017.428.07.417.334-.009.213-.156.322-.435.326-.121,0-.242,0-.359,0-.14,0-.279,0-.412,0-.661-.013-1.357-.019-2.129-.019-1.169,0-2.358.014-3.508.029h0c-.584.007-1.188.014-1.789.02Zm-6.8-7.668h0a2.353,2.353,0,0,0,.286.018,1.679,1.679,0,0,0,1.158-.43,2.518,2.518,0,0,0,.637-.985A5.437,5.437,0,0,0,8.21,3.975,3.2,3.2,0,0,0,7.249,2a2.884,2.884,0,0,0-1.982-.712,4.078,4.078,0,0,0-.419.022c-.252.025-.379.093-.378.389.013,1.833.014,3.756,0,5.878,0,.273.093.391.348.435l.1.017a4.9,4.9,0,0,0,.84.1C5.8,8.13,5.842,8.129,5.883,8.126Z" transform="translate(302.612 334.512)" fill="#7c7d7c"/>
      <path id="Path_867" data-name="Path 867" d="M539.1,686.17c0,1.378-.017,2.766,0,4.155.022,1.406.08,2.811.129,4.217a8.947,8.947,0,0,0,.09.968c.11.746.354.966,1.111,1.029.188.015.381,0,.567.027a.3.3,0,0,1,.3.279.315.315,0,0,1-.279.344,2.342,2.342,0,0,1-.444.027c-1.488-.027-2.977-.038-4.465,0-.094,0-.19,0-.284-.006-.223-.013-.411-.081-.406-.348.006-.249.2-.293.4-.312.027,0,.055,0,.081,0,1.163-.056,1.288-.16,1.316-1.345.065-2.745.105-5.49.152-8.235.029-1.7.052-3.408.08-5.113a1.468,1.468,0,0,1,.049-.4.391.391,0,0,1,.687-.211,3.176,3.176,0,0,1,.345.341c2.337,2.539,4.732,5.021,7.144,7.487,1.088,1.112,2.147,2.252,3.22,3.38.088.093.187.178.309.295,0-.925.014-1.8,0-2.669-.038-2-.088-4-.14-6a10.112,10.112,0,0,0-.074-1.01.867.867,0,0,0-.909-.894c-.2-.022-.4-.038-.607-.048-.225-.011-.48-.024-.483-.31s.26-.352.5-.357a12.578,12.578,0,0,1,1.42.017c1.029.1,2.054-.038,3.082-.021.285,0,.689-.077.7.341.011.4-.4.33-.659.354-.739.069-.965.289-1.007,1.088-.038.729-.055,1.46-.066,2.19-.044,2.678-.079,5.357-.119,8.035-.017,1.109-.044,2.217-.066,3.326-.006.247-.013.518-.267.633a.633.633,0,0,1-.67-.187c-.307-.264-.591-.556-.875-.844-3.31-3.367-6.7-6.66-9.826-10.2C539.111,686.173,539.086,686.16,539.1,686.17Z" transform="translate(-210.222 -346.927)" fill="#7c7d7c"/>
      <path id="Path_868" data-name="Path 868" d="M295.477,691.146c0,1.825,0,3.652,0,5.478a10.546,10.546,0,0,0,.084,1.171c.062.529.237.692.775.751.282.031.564.048.848.073.191.018.361.093.365.3,0,.227-.16.329-.372.348a3.512,3.512,0,0,1-.365.01c-1.65-.024-3.3-.044-4.951,0a2.054,2.054,0,0,1-.483-.036.291.291,0,0,1-.229-.336.281.281,0,0,1,.256-.271c.132-.024.27-.017.4-.029.6-.053.727-.185.827-.785a13.7,13.7,0,0,0,.128-2.143c.021-3.11.013-6.222.008-9.334,0-.418-.029-.838-.06-1.255-.041-.557-.275-.788-.841-.845-.2-.021-.4-.036-.607-.053-.218-.017-.423-.069-.411-.34s.227-.315.437-.324a7.438,7.438,0,0,1,.812,0c1.582.1,3.164.029,4.745,0a6.154,6.154,0,0,1,2.693.475,3.657,3.657,0,0,1,2.066,3.555,5.115,5.115,0,0,1-1.727,3.714,4.674,4.674,0,0,1-3.425,1.1c-.222-.013-.461-.048-.477-.33s.209-.354.432-.389a2.766,2.766,0,0,0,2.571-2.477,4.094,4.094,0,0,0-.629-3.249,2.656,2.656,0,0,0-2.425-1.2c-.361.014-.491.126-.487.5.018,1.528.007,3.057.007,4.585v1.34Z" transform="translate(0 -348.996)" fill="#7c7d7c"/>
      <path id="Path_869" data-name="Path 869" d="M781.5,698.425c-1.217-.052-2.435-.017-3.652.006a2.765,2.765,0,0,1-.445-.014.312.312,0,0,1-.3-.32c0-.2.126-.285.3-.316a1.932,1.932,0,0,1,.2-.013c.734-.046.879-.177.956-.918a13.247,13.247,0,0,0,.084-1.334q.015-5.215.011-10.429c0-.2,0-.406-.011-.608-.032-.819-.225-1.022-1.029-1.1l-.484-.045a.308.308,0,0,1-.32-.3.318.318,0,0,1,.3-.331,2.532,2.532,0,0,1,.484-.024c2.178.06,4.354.088,6.532.058a6.178,6.178,0,0,0,1.443-.18c.337-.086.51.052.449.395-.145.828-.146,1.668-.223,2.5-.021.229-.081.455-.359.454s-.286-.227-.306-.44c-.087-1-.327-1.248-1.326-1.317-.729-.049-1.46-.045-2.189-.081-.244-.013-.292.084-.292.3q.011,2.334,0,4.666c0,.249.073.327.322.322.852-.021,1.7-.018,2.557-.034a1.094,1.094,0,0,0,.967-.409.31.31,0,0,1,.39-.135c.171.072.171.226.16.379q-.114,1.474-.229,2.95c-.015.2-.093.357-.3.362s-.3-.147-.326-.344c-.007-.053-.013-.108-.017-.161-.087-.991-.223-1.15-1.229-1.224-.674-.049-1.352-.024-2.028-.041-.191-.006-.26.055-.258.251.01,1.65-.006,3.3.021,4.951.013.781.347,1.076,1.13,1.144a7.8,7.8,0,0,0,2.1-.044,1.3,1.3,0,0,0,1.15-1.136c.038-.2.084-.4.138-.591a.3.3,0,0,1,.326-.246.284.284,0,0,1,.261.309,10.461,10.461,0,0,1-.291,2.692c-.1.382-.413.463-.763.466C784.093,698.512,782.8,698.5,781.5,698.425Z" transform="translate(-417.715 -348.152)" fill="#7c7d7c"/>
      <g id="Group_783" data-name="Group 783" transform="translate(391.907 334.306)">
        <path id="Path_871" data-name="Path 871" d="M1011.608,684.206a1.108,1.108,0,1,1,1.108-1.108A1.109,1.109,0,0,1,1011.608,684.206Zm0-1.97a.864.864,0,1,0,.864.864A.865.865,0,0,0,1011.608,682.236Z" transform="translate(-1010.5 -681.99)" fill="#7d7e7d"/>
        <g id="Group_782" data-name="Group 782" transform="translate(0.675 0.531)">
          <path id="Path_872" data-name="Path 872" d="M1015.31,685.77h.416a.468.468,0,0,1,.167.028.353.353,0,0,1,.121.076.317.317,0,0,1,.073.112.376.376,0,0,1,.025.139.327.327,0,0,1-.021.122.351.351,0,0,1-.128.161.5.5,0,0,1-.079.044l.292.475h-.255l-.24-.435h-.152v.435h-.218V685.77Zm.218.546h.112a.309.309,0,0,0,.173-.044.158.158,0,0,0,.067-.145.174.174,0,0,0-.055-.139.231.231,0,0,0-.159-.048h-.139Z" transform="translate(-1015.31 -685.77)" fill="#7c7d7c"/>
        </g>
      </g>
    </g>
  </g>
</svg>
