<svg xmlns="http://www.w3.org/2000/svg" width="240" height="120" viewBox="0 0 240 120">
  <g id="logo_Activision" transform="translate(-130 -130)">
    <rect id="Rectangle_1" data-name="Rectangle 1" width="240" height="120" transform="translate(130 130)" fill="#fff"/>
    <g id="svg_Activision-Logo" transform="translate(171 171)">
      <path id="path45" d="M477.585,92.2h.4a2.984,2.984,0,1,0,5.968,0h.4a3.383,3.383,0,0,1-3.381,3.388v0a3.393,3.393,0,0,1-3.388-3.388m6.372,0a2.949,2.949,0,0,0-.872-2.1,2.985,2.985,0,0,0-2.112-.88v-.4a3.381,3.381,0,0,1,3.381,3.381h-.4m-2.984-3.179v0M477.585,92.2a3.392,3.392,0,0,1,3.388-3.381v.4a2.991,2.991,0,0,0-2.984,2.984h-.4" transform="translate(-325.819 -61.025)"/>
      <path id="path47" d="M163.28,34.844h5.94V57.5h-5.94Z" transform="translate(-112.042 -24.312)"/>
      <path id="path49" d="M422.283,46.354v9.573l-5.976-.022V32.658l10.762,9.263V33.357h5.925V56.849l-10.712-10.5" transform="translate(-284.14 -22.826)"/>
      <path id="path51" d="M69.885,45.3a11.644,11.644,0,0,1,19.239-8.831l-3.849,4.368a5.825,5.825,0,1,0,.058,8.873l3.842,4.376A11.65,11.65,0,0,1,69.885,45.3" transform="translate(-48.519 -23.5)"/>
      <path id="path53" d="M131.324,45.744,120.086,15.887h-9.393V40.648h-6.149V15.887H90.935L94.092,9.94h30.383l6.848,17.891L138.179,9.94H167.6l3.244,5.947H142.569L131.324,45.744" transform="translate(-62.837 -7.374)"/>
      <path id="path55" d="M276.575,57.229v-5h4.08c.663,0,1.925-.051,2.242-1.1.656-2.191-6.062-5.745-6.062-11.195,0-4.123,2.984-5.356,5.01-5.356h6.185v4.916h-3.82s-1.1,0-1.4.439c-1.658,2.372,6.142,5.839,6.142,12.211,0,3.33-2.855,5.089-5.7,5.089h-6.675" transform="translate(-189.101 -24.128)"/>
      <path id="path57" d="M252.64,34.573h5.947V57.229H252.64Z" transform="translate(-172.821 -24.128)"/>
      <path id="path59" d="M318.292,34.573h5.947V57.229h-5.947Z" transform="translate(-217.475 -24.128)"/>
      <path id="path61" d="M485.808,96.8a4.162,4.162,0,0,1-.13-.9c-.058-.4-.209-.569-.627-.569h-.829V96.8H483.4V93.035h2.026a1.033,1.033,0,0,1,1.1,1.038.922.922,0,0,1-.6.945v.014c.411.1.526.5.548.879a2.175,2.175,0,0,0,.158.887h-.829m-1.586-2.055h.908c.368,0,.57-.158.57-.541,0-.36-.2-.519-.57-.519h-.908v1.06" transform="translate(-329.774 -63.891)"/>
      <path id="path63" d="M19.938,35.1,18.36,30.888H10.985L9.407,35.1H3.085L14.676,1.917,26.267,35.1H19.938M12.787,24.833H16.3l-1.759-5.8-1.752,5.8" transform="translate(-3.085 -1.917)"/>
      <path id="path65" d="M340.266,45.245a11.667,11.667,0,1,1,11.67,11.67,11.67,11.67,0,0,1-11.67-11.67m5.875,0a5.792,5.792,0,1,0,5.8-5.788,5.8,5.8,0,0,0-5.8,5.788" transform="translate(-232.42 -23.454)"/>
    </g>
  </g>
</svg>
