<svg xmlns="http://www.w3.org/2000/svg" width="240" height="120" viewBox="0 0 240 120">
  <g id="logo_Com2us" transform="translate(-1370 -258)">
    <rect id="Rectangle_6" data-name="Rectangle 6" width="240" height="120" transform="translate(1370 258)" fill="#fff"/>
    <g id="_dc2728ff" data-name="#dc2728ff" transform="translate(1395.542 303)">
      <path id="Layer" d="M13.166,0h2.505C21.152.494,26.457,4.364,27.7,9.88c-2.105.035-4.187.035-6.293.012-1.882-3.035-5.681-4.9-9.2-3.705C7.355,7.6,5.356,13.691,7.238,18.114c1.353,3.658,5.681,6.058,9.469,4.74,2.023-.518,3.446-2.129,4.681-3.693,2.129-.024,4.246-.024,6.363.012-1.259,5.493-6.516,9.339-11.974,9.88H13.272A14.153,14.153,0,0,1,.651,17.62C.275,14.232.31,10.586,2.039,7.54A14.238,14.238,0,0,1,13.166,0Z" transform="translate(0 0)" fill="#dc2728"/>
      <path id="Layer-2" data-name="Layer" d="M266.466,0H268.7a14.193,14.193,0,0,1,9.833,5.093,15.178,15.178,0,0,1,1.023,17.455,14.262,14.262,0,0,1-10.8,6.5h-2.211a14.169,14.169,0,0,1-10.1-5.481,15.12,15.12,0,0,1,.012-18.114A14.246,14.246,0,0,1,266.466,0Zm-1.435,6.21c-6.563,2.047-7.163,12.268-1.623,15.808a7.917,7.917,0,0,0,10.033-1.353,9.9,9.9,0,0,0,.353-11.939,8.057,8.057,0,0,0-8.763-2.517Z" transform="translate(-223.224 0)" fill="#dc2728" fill-rule="evenodd"/>
      <path id="Layer-3" data-name="Layer" d="M535.644,0h1.388a8.489,8.489,0,0,1,6.81,4.4A9.82,9.82,0,0,1,550.418,0h1.623a9.567,9.567,0,0,1,7.2,4.081c1.576,2.376,1.647,5.317,1.682,8.057-.024,5.411-.012,10.821-.012,16.232h-6.234q-.018-8.151.012-16.3c-.047-1.658-.024-3.47-.964-4.917-1.576-2.411-5.693-2.105-7.093.341-1.117,1.929-1.141,4.246-1.211,6.41-.024,4.822.012,9.645-.012,14.467h-6.222c-.059-6.034.094-12.08-.071-18.114.047-2.588-2.058-5.269-4.846-4.7-3.082.341-4.023,3.882-4.152,6.493-.188,5.434-.024,10.88-.082,16.326H523.8V.682h6.034c-.023.647-.059,1.941-.082,2.588A8.541,8.541,0,0,1,535.644,0Z" transform="translate(-461.786 0)" fill="#dc2728"/>
      <path id="Layer-4" data-name="Layer" d="M889.6,0h1.941a9.924,9.924,0,0,1,6.316,3.082,8.9,8.9,0,0,1,0,11.4c-2.517,2.929-5.575,5.352-8.328,8.057q5.2.012,10.41.012V28.37H880.4V23.583c3.846-3.6,7.728-7.163,11.5-10.845,1.27-1.223,2.588-2.976,1.835-4.834-.765-2.223-3.858-2.658-5.587-1.329-.988.67-1.247,1.917-1.705,2.952-1.964.012-3.929.012-5.893-.012A9.891,9.891,0,0,1,889.6,0Z" transform="translate(-776.442 0)" fill="#dc2728"/>
      <path id="Layer-5" data-name="Layer" d="M1163.3,0h1.364c2.846,1.259,2.8,5.152,1.858,7.645a2.608,2.608,0,0,1-4.717.259C1160.663,5.387,1160.687,1.611,1163.3,0Z" transform="translate(-1024.112 0)" fill="#dc2728"/>
      <path id="Layer-6" data-name="Layer" d="M1256.138,0h1.306c2.882,1.212,2.835,5.175,1.882,7.657a2.607,2.607,0,0,1-4.693.282C1253.468,5.422,1253.468,1.588,1256.138,0Z" transform="translate(-1106.002 0)" fill="#dc2728"/>
      <path id="Layer-7" data-name="Layer" d="M1420.433,0h2.058c4.752.329,9.174,3.929,9.621,8.822-1.976.035-3.94.035-5.916.024-.741-1.153-1.4-2.6-2.823-3.023a5.444,5.444,0,0,0-5.516,1.117,2.183,2.183,0,0,0,.894,3.317c3.611,1.67,7.963,1.423,11.28,3.823,3.164,2.176,3.352,6.81,1.87,10.033-1.647,3.129-5.2,4.658-8.575,4.94h-2.247c-3.2-.318-6.493-1.506-8.539-4.1a11.762,11.762,0,0,1-2.141-5.3q2.952-.024,5.9,0c1.059,3.929,6.116,4.646,9.269,2.952,1.458-.67,1.929-3.011.365-3.846-3.8-1.929-8.516-1.623-11.986-4.293-3.4-2.67-3.211-8.175-.447-11.221A10.816,10.816,0,0,1,1420.433,0Z" transform="translate(-1244.102 0)" fill="#dc2728"/>
      <path id="Layer-8" data-name="Layer" d="M1075.7,101.282c2.07-.012,4.129-.012,6.2-.012.259,3.093,1.376,6.246,3.87,8.234a13.638,13.638,0,0,0,17.42-.482,11.645,11.645,0,0,0,3.341-7.74q3.094-.024,6.187-.012a17.891,17.891,0,0,1-2.976,9.516c-3.082,4.564-8.445,7.116-13.832,7.622H1093a18.694,18.694,0,0,1-13.644-6.728A17.558,17.558,0,0,1,1075.7,101.282Z" transform="translate(-948.77 -89.355)" fill="#dc2728"/>
    </g>
  </g>
</svg>
