<svg xmlns="http://www.w3.org/2000/svg" width="240" height="120" viewBox="0 0 240 120">
  <g id="logo_Gamevil" transform="translate(-626 -386)">
    <rect id="Rectangle_2" data-name="Rectangle 2" width="240" height="120" transform="translate(626 386)" fill="#fff"/>
    <g id="layer1" transform="translate(196.95 6.558)">
      <g id="g52976" transform="translate(446.05 421.442)">
        <g id="Group_780" data-name="Group 780" transform="translate(0 0)">
          <g id="g52978">
            <g id="g52984" transform="translate(178.469 0)">
              <path id="path52986" d="M-6.373-8.21a13.478,13.478,0,0,1,16.425-1.869,8.725,8.725,0,0,1,4.192,6.242,7.886,7.886,0,0,1,.04,1.115,8.564,8.564,0,0,1-2.482,5.7A12.639,12.639,0,0,1,4.735,6.606a13.407,13.407,0,0,1-9.367-1.75A8.776,8.776,0,0,1-8.82-1.4,8.368,8.368,0,0,1-6.373-8.21M16.316-3.379,16.3-3.37c0-.238-.013-.476-.04-.714a10.736,10.736,0,0,0-5.118-7.706C5.335-15.51-3.186-14.531-7.846-9.6A10.537,10.537,0,0,0-10.9-2.338a8.98,8.98,0,0,0,.079,1.186A10.694,10.694,0,0,0-5.712,6.562,15.171,15.171,0,0,0,3.6,8.762a16.089,16.089,0,0,1-2.535,2.971s-.062.057-.119.115a.643.643,0,0,0-.132.771c.141.256.56.264,1.23.1C13.838,9.489,15.924,1.6,16.272-1.783v-.066c.044-.445.057-.811.062-1.071v-.04c0-.264-.018-.419-.018-.419" transform="translate(10.905 14.048)" fill="#231d1d"/>
            </g>
            <g id="g52988" transform="translate(186.009 5.736)">
              <path id="path52990" d="M-7.96-15.927a5.658,5.658,0,0,0,3.6-1.287A5.65,5.65,0,0,0-2.7-19.48a5.785,5.785,0,0,0,.41-2.107A5.665,5.665,0,0,0-7.96-27.252a5.545,5.545,0,0,0-3.117.948,1.02,1.02,0,0,1,.225-.031,1.708,1.708,0,0,1,1.706,1.71,1.709,1.709,0,0,1-1.706,1.715,1.713,1.713,0,0,1-1.71-1.715,1.623,1.623,0,0,1,.026-.291,5.629,5.629,0,0,0-1.084,3.328,5.669,5.669,0,0,0,5.66,5.66" transform="translate(13.621 27.252)" fill="#231d1d"/>
            </g>
            <g id="g52992" transform="translate(121.006 18.463)">
              <path id="path52994" d="M-23.391-25.164h-6.057L-40.024-43.057h7.8l5.766,10.417,5.832-10.417h7.811Z" transform="translate(40.024 43.057)" fill="#231d1d"/>
            </g>
            <g id="g52996" transform="translate(150.098 18.466)">
              <path id="path52998" d="M-9.981-.062l-.1,17.844h-7V-.106h7" transform="translate(17.079 0.106)" fill="#231d1d"/>
            </g>
            <g id="g53000" transform="translate(161.091 18.424)">
              <path id="path53002" d="M-27.4-18.748v4.585H-42.133a4.54,4.54,0,0,1-3.35-1.411,4.687,4.687,0,0,1-1.384-3.372l-.009-13.132H-40v13.383Z" transform="translate(46.876 32.078)" fill="#231d1d"/>
            </g>
            <g id="g53004" transform="translate(0 18.422)">
              <path id="path53006" d="M-37.105-6.224V-10.65H-58.754A4.566,4.566,0,0,0-62.1-9.266a4.573,4.573,0,0,0-1.389,3.35v8.4A4.655,4.655,0,0,0-62.1,5.854a4.523,4.523,0,0,0,3.346,1.411h16.861a4.58,4.58,0,0,0,3.381-1.411,3.988,3.988,0,0,0,1.406-2.7V-2.517h-8.988v.992L-44-.106V2.733h-12.63V-6.224Z" transform="translate(63.488 10.65)" fill="#9bc71d"/>
            </g>
            <g id="g53008" transform="translate(58.629 18.464)">
              <path id="path53010" d="M-37.179,0H-58.934a4.48,4.48,0,0,0-3.3,1.367A4.523,4.523,0,0,0-63.616,4.7V17.9h6.775V4.461h5.409V17.9h6.745V6.89l-2.12-1.441V4.461h7.52V17.9h6.78V4.7a4.562,4.562,0,0,0-1.371-3.333A4.47,4.47,0,0,0-37.179,0" transform="translate(63.616)" fill="#9bc71d"/>
            </g>
            <g id="g53012" transform="translate(29.392 18.421)">
              <path id="path53014" d="M-27.409-11.817H-40.065v-3.919h12.656Zm2.076-8.371-4.205-.031-12.594.031a4.537,4.537,0,0,0-3.324,1.375A4.518,4.518,0,0,0-46.84-15.48V-7L-46.9-2.3h6.833V-9.405l3.042,1.393h9.614V-2.3h6.723l.057-4.7V-15.48a4.492,4.492,0,0,0-1.384-3.333,4.556,4.556,0,0,0-3.319-1.375" transform="translate(46.898 20.219)" fill="#9bc71d"/>
            </g>
            <g id="g53016" transform="translate(92.57 18.468)">
              <path id="path53018" d="M-27.533-18.884h-12.8v-4.108l3.042,1.4-.018.013,15.23.071v-3.8L-40.334-25.4v-2.464h19.489l.084-4.448H-42.411a4.548,4.548,0,0,0-3.315,1.367,4.523,4.523,0,0,0-1.384,3.333v8.481A4.53,4.53,0,0,0-45.726-15.8a4.556,4.556,0,0,0,3.315,1.375h21.649l-.084-4.488Z" transform="translate(47.11 32.312)" fill="#9bc71d"/>
            </g>
          </g>
        </g>
      </g>
    </g>
  </g>
</svg>
