<svg xmlns="http://www.w3.org/2000/svg" width="240" height="120" viewBox="0 0 240 120">
  <g id="logo_Adobe" transform="translate(-378 -130)">
    <rect id="Rectangle_2" data-name="Rectangle 2" width="240" height="120" transform="translate(378 130)" fill="#fff"/>
    <g id="svg_Adobe-Logo" transform="translate(471 153)">
      <path id="Path_833" data-name="Path 833" d="M8.558,229.955l-.637-3.772c-.182-1.087-.414-2.786-.591-3.963H7.262c-.186,1.186-.446,2.933-.637,3.972l-.685,3.763ZM5.6,232.413,4.77,236.6H1.713l3.814-17.415H9.273L12.737,236.6H9.664l-.809-4.186Z" transform="translate(-1.265 -161.819)"/>
      <path id="Path_834" data-name="Path 834" d="M52.871,227.514a4.212,4.212,0,0,0-.046-.752c-.122-.86-.579-1.634-1.315-1.634-1.262,0-1.726,1.818-1.726,3.945,0,2.443.662,3.834,1.683,3.834.467,0,1-.239,1.3-1.265a2.5,2.5,0,0,0,.108-.8Zm3.138-10.1v14.266c0,1.131.058,2.522.1,3.609H53.4l-.177-1.451h-.064a3.022,3.022,0,0,1-2.63,1.655c-2.6,0-3.882-2.864-3.882-6.48,0-4.406,1.919-6.549,4.011-6.549a2.222,2.222,0,0,1,2.159,1.311h.053v-6.361Z" transform="translate(-34.44 -160.514)"/>
      <path id="Path_835" data-name="Path 835" d="M93.938,247.335c1.2,0,1.494-2.257,1.494-4.126,0-1.777-.3-4.092-1.547-4.092-1.324,0-1.6,2.315-1.6,4.092,0,2.145.349,4.126,1.627,4.126Zm-.06,2.407c-2.892,0-4.705-2.322-4.705-6.478,0-4.536,2.329-6.552,4.779-6.552,2.853,0,4.641,2.435,4.641,6.478,0,5.2-2.8,6.551-4.689,6.551Z" transform="translate(-65.835 -174.76)"/>
      <path id="Path_836" data-name="Path 836" d="M134.71,230.787a2.639,2.639,0,0,0,.124.807c.315,1.056.848,1.315,1.276,1.315,1.214,0,1.7-1.538,1.7-4,0-2.239-.517-3.781-1.717-3.781-.6,0-1.1.646-1.269,1.34a3.483,3.483,0,0,0-.117.793Zm-3.138-13.369h3.138v6.574h.051a2.95,2.95,0,0,1,2.637-1.524c2.365,0,3.554,2.69,3.554,6.207,0,4.444-1.772,6.823-4.069,6.823a2.628,2.628,0,0,1-2.48-1.715h-.066l-.175,1.51h-2.694c.046-1.046.105-2.478.105-3.609Z" transform="translate(-97.059 -160.515)"/>
      <path id="Path_837" data-name="Path 837" d="M178.9,241.966c.016-1.772-.5-3.014-1.5-3.014-1.136,0-1.619,1.662-1.653,3.014Zm-3.163,2.219c.037,2.282,1.237,3.025,2.726,3.025a6.705,6.705,0,0,0,2.352-.434l.423,2.257a9.169,9.169,0,0,1-3.349.584c-3.368,0-5.207-2.3-5.207-6.232,0-4.218,2.133-6.752,4.919-6.752,2.692,0,4.184,2.239,4.184,5.894a11.2,11.2,0,0,1-.09,1.676Z" transform="translate(-127.486 -174.701)"/>
      <path id="Path_838" data-name="Path 838" d="M193.914,55.825,173.84,7.771h20.074Z" transform="translate(-139.616 -7.771)" fill="#ed1c24"/>
      <path id="Path_839" data-name="Path 839" d="M43.073,55.825,63.157,7.771H43.073Z" transform="translate(-43.073 -7.771)" fill="#ed1c24"/>
      <path id="Path_840" data-name="Path 840" d="M126.478,105.772l-3.824-9.665H113.29l8.781-20.679,12.788,30.345Z" transform="translate(-94.913 -57.72)" fill="#ed1c24"/>
    </g>
  </g>
</svg>
