<svg xmlns="http://www.w3.org/2000/svg" width="240" height="120" viewBox="0 0 240 120">
  <g id="logo_CommonwealthBank" transform="translate(-130 -386)">
    <rect id="Rectangle_5" data-name="Rectangle 5" width="240" height="120" transform="translate(130 386)" fill="#fff"/>
    <g id="Group_794" data-name="Group 794" transform="translate(-1501 -195.64)">
      <g id="Group_795" data-name="Group 795" transform="translate(1637 634.509)">
        <path id="path1873" d="M12.866,299.594a6.009,6.009,0,0,1-5.685,3.186c-4.456,0-7.181-2.96-7.181-7.125,0-3.89,2.272-7.205,6.874-7.205,4.513,0,6.542,2.709,6.631,5.4H8.888c-.38-1.423-1.27-1.706-1.9-1.706-.817,0-2.2.566-2.2,3.429S6.17,299,6.987,299a1.885,1.885,0,0,0,1.65-1A2.565,2.565,0,0,0,9,297.055h4.5a5.893,5.893,0,0,1-.639,2.539" transform="translate(0 -288.45)" fill="#000002"/>
        <path id="path1875" d="M13.824,301.283c-3.372,0-5.588-2.03-5.588-5.345,0-3.356,2.353-5.273,5.588-5.273,3.267,0,5.693,1.973,5.693,5.345,0,3.4-2.45,5.273-5.693,5.273m.065-7.7c-1.181,0-1.294,1.633-1.294,2.483s.129,2.467,1.294,2.467,1.286-1.634,1.286-2.467c0-.849-.129-2.483-1.286-2.483" transform="translate(5.568 -286.953)" fill="#000002"/>
        <path id="path1877" d="M40.2,300.814v-5.362c0-.93-.3-1.31-.962-1.31s-1.1.607-1.1,1.383v5.289H33.9v-5.346c0-.93-.3-1.286-.962-1.286-.687,0-1.124.582-1.124,1.359v5.273H27.668v-5.346c0-.93-.3-1.286-.962-1.286-.687,0-1.124.582-1.124,1.359v5.273H21.433v-5.346c0-.93-.3-1.286-.97-1.286s-1.116.582-1.116,1.359v5.273H15.2v-9.607h3.769l.1.849a3.819,3.819,0,0,1,3.016-1.342,3.694,3.694,0,0,1,3.122,1.48,3.927,3.927,0,0,1,3.17-1.464,3.687,3.687,0,0,1,3.105,1.52,3.843,3.843,0,0,1,3.033-1.52,3.619,3.619,0,0,1,3.186,1.52,3.663,3.663,0,0,1,3.016-1.52c2.952,0,3.655,1.917,3.655,4.06v6.025Zm0,0" transform="translate(10.276 -286.921)" fill="#000002"/>
        <path id="path1879" d="M38.429,301.283c-3.372,0-5.6-2.03-5.6-5.345,0-3.356,2.353-5.273,5.6-5.273,3.259,0,5.685,1.973,5.685,5.345,0,3.4-2.442,5.273-5.685,5.273m.057-7.7c-1.181,0-1.294,1.633-1.294,2.483s.137,2.467,1.294,2.467,1.286-1.634,1.286-2.467c0-.849-.129-2.483-1.286-2.483" transform="translate(22.199 -286.953)" fill="#000002"/>
        <path id="path1881" d="M46.128,300.8v-5.329c0-.93-.4-1.294-1.059-1.294-.687,0-1.124.59-1.124,1.367V300.8H39.8v-9.591h3.833l.032.962a3.875,3.875,0,0,1,3.016-1.456c1.383,0,3.655.793,3.655,3.259V300.8Zm0,0" transform="translate(26.906 -286.921)" fill="#000002"/>
        <path id="path1883" d="M59.967,300.6l-4.343-.023s-.566-1.682-.793-2.75a10.18,10.18,0,0,1-.421-1.836,8.851,8.851,0,0,1-.38,1.836c-.2.987-.793,2.774-.793,2.774H48.863l-2.887-9.591h4.513s.518,1.65.7,2.58a11.2,11.2,0,0,1,.34,1.682,10.318,10.318,0,0,1,.364-1.682c.21-.995.72-2.58.72-2.58h3.793s.51,1.585.72,2.58a8.873,8.873,0,0,1,.356,1.682,9.884,9.884,0,0,1,.364-1.682c.186-.914.7-2.58.7-2.58h4.3Zm0,0" transform="translate(31.084 -286.721)" fill="#000002"/>
        <path id="path1885" d="M59.973,296.7c.024.962.437,1.8,1.561,1.8a1.437,1.437,0,0,0,1.383-.849H66.9a3.871,3.871,0,0,1-.509,1.229,6.031,6.031,0,0,1-5.022,2.386c-3.55,0-5.669-2.1-5.766-5.111a5.061,5.061,0,0,1,5.459-5.483c3.68,0,5.912,2.256,5.912,6.033Zm1.5-3.583a1.473,1.473,0,0,0-1.439,1.456H62.86a1.506,1.506,0,0,0-1.383-1.456" transform="translate(37.588 -286.953)" fill="#000002"/>
        <path id="path1887" d="M69.552,300.866l-.113-.857a5.171,5.171,0,0,1-3.259,1.286,3.961,3.961,0,0,1-3.13-1.245,3.225,3.225,0,0,1-.154-3.34c.8-1.27,2.636-1.739,4.456-1.973.663-.073,1.593-.283,1.593-.865a.782.782,0,0,0-.849-.857,1.158,1.158,0,0,0-1.14,1.156H63.01l.024-.113c.412-2.289,2.086-3.445,4.925-3.445,4.8,0,5.362,1.666,5.386,4.545l.032,2.693a10.334,10.334,0,0,0,.307,3.016Zm-.534-4.246s-.55.17-1.059.315c-.323.1-1.132.251-1.132.9a.728.728,0,0,0,.833.7c1.076-.035,1.359-.663,1.359-1.609Zm0,0" transform="translate(42.258 -286.989)" fill="#000002"/>
        <path id="path1889" d="M69.521,288.653H73.67v13.538H69.521Zm0,0" transform="translate(47.004 -288.313)" fill="#000002"/>
        <path id="path1891" d="M76.974,302.506c-2.75,0-3.485-1.326-3.485-3.882v-3.372h-1.27V292.6h1.27v-3.946h4.149V292.6H79.27v2.653H77.637v2.612c0,.93.307,1.52,1.237,1.52a3.053,3.053,0,0,0,.526-.059c.1-.024.1-.041.1-.041v2.709a6.127,6.127,0,0,1-2.523.509" transform="translate(48.827 -288.313)" fill="#000002"/>
        <path id="path1893" d="M87.485,302.191H83.328v-5.313c0-.93-.412-1.31-1.084-1.31s-1.1.615-1.1,1.391v5.232H76.826V288.653h4.019v4.909a4.121,4.121,0,0,1,3-1.456,3.374,3.374,0,0,1,3.639,3.259Zm0,0" transform="translate(51.942 -288.313)" fill="#000002"/>
        <path id="path1895" d="M91.749,295.03a2.859,2.859,0,0,0,2-2.879c0-2.183-1.569-3.494-4.181-3.494H84.358v13.554h5.354c2.9,0,4.634-1.439,4.634-3.866a3.317,3.317,0,0,0-2.6-3.316m-6.2.679h4.165c1.286,0,3.445.34,3.445,2.62,0,2.442-2.159,2.806-3.445,2.806H85.547Zm4.165-1.092H85.547v-4.885h4.019c1.116,0,2.992.315,2.992,2.45,0,1.569-1.011,2.434-2.847,2.434" transform="translate(57.034 -288.31)" fill="#000002"/>
        <path id="path1897" d="M99.2,299.737l-.129.018-.429.029c-.226,0-.542-.089-.542-.882V293.63c0-1.836-1.173-2.806-3.4-2.806-2.167,0-3.477,1.067-3.671,3.024l-.017.113h1.132l.008-.089a2.507,2.507,0,0,1,.445-1.2,2.44,2.44,0,0,1,2.046-.849c2.175,0,2.345,1.359,2.345,1.779v.283c0,.606-.388.776-.97.841a12.541,12.541,0,0,0-4.132,1.1,2.5,2.5,0,0,0-.979.938,3.264,3.264,0,0,0-.056,2.725,2.921,2.921,0,0,0,2.9,1.5,3.584,3.584,0,0,0,3.275-1.8v.137c.024.979.493,1.456,1.431,1.456l.76-.137-.017-.081Zm-2.208-4.149V297a3.041,3.041,0,0,1-3.186,2.976,1.9,1.9,0,0,1-2.111-1.836c0-1.431,1.092-1.731,2.256-2.046a20.166,20.166,0,0,1,3.041-.5" transform="translate(61.245 -286.846)" fill="#000002"/>
        <path id="path1899" d="M100.173,290.819a3.359,3.359,0,0,0-3.008,1.787v-1.52H96.049v9.664h1.116v-5.394c0-2.119,1.189-3.534,2.976-3.534,1.569,0,2.337.938,2.337,2.863v6.065h1.108v-6.065c0-.954,0-3.866-3.413-3.866" transform="translate(64.938 -286.849)" fill="#000002"/>
        <path id="path1901" d="M104.873,296.179c.121-.122,3.8-3.631,3.8-3.631h-1.5s-4.521,4.318-4.852,4.634v-8.524H101.2v13.554h1.116v-3.647c.065-.059,1.561-1.423,1.723-1.569.129.194,3.566,5.216,3.566,5.216h1.359s-3.995-5.887-4.092-6.033" transform="translate(68.422 -288.31)" fill="#000002"/>
      </g>
      <g id="Group_794-2" data-name="Group 794" transform="translate(1821.143 619.64)">
        <path id="path1869" d="M51.182,272.959,73.2,250.994l-5.523-5.461L60.819,252.4Zm0,0" transform="translate(-29.221 -229.033)" fill="#000002"/>
        <path id="path1871" d="M43.962,223.609,22,245.57l21.961,21.965L53.6,246.972l6.863-6.859Zm0,0" transform="translate(-22.001 -223.609)" fill="#fc0"/>
      </g>
    </g>
  </g>
</svg>
