<svg xmlns="http://www.w3.org/2000/svg" width="240" height="120" viewBox="0 0 240 120">
  <g id="logo_RMIT-University" transform="translate(-626 -130)">
    <rect id="Rectangle_3" data-name="Rectangle 3" width="240" height="120" transform="translate(626 130)" fill="#fff"/>
    <g id="Group_778" data-name="Group 778" transform="translate(-17.481 -664.882)">
      <path id="path5106" d="M-48.391-7.172h3.867V-8.6H-58v1.424h3.888V19.934H-58v1.412h13.477V19.934h-3.867Z" transform="translate(855.659 840.255)"/>
      <g id="g5116" transform="translate(812.292 831.658)">
        <path id="path5118" d="M-98.192-150.783v-1.406h-4.13V-179.6c6.312-.315,7.391,1.036,8.2,6.766h1.386l-.492-7.889H-117.2l-.488,7.889h1.423c.816-5.729,1.881-7.081,8.205-6.766v27.414H-112.2v1.406h14" transform="translate(117.692 180.726)"/>
      </g>
      <g id="g5120" transform="translate(731.829 831.658)">
        <path id="path5122" d="M-318.569-7.119V-8.533h-11.045l-6.492,20.48-6.268-20.48h-11v1.414h3.87V20.006l-4.18,0a3.531,3.531,0,0,1-3.926-3.9c.053-7.3-1.576-9.957-8.572-11.037v-.1c4.173-.441,9.506-1.628,9.506-6.687,0-6.227-5.813-6.813-10.716-6.813h-14.437v1.414h3.865V20h-3.865v1.409h13.469V20h-3.865V5.7c2.483-.1,5.282.536,6.545,1.622,1.167.989,1.8,4.063,1.8,7.773,0,4.579,2.363,6.312,6.9,6.312h12.98v-1.4h-3.781V-6.655h.093l8.914,28.066h1.514L-328.3-6.655h.135V20.006h-3.856v1.4h13.451v-1.4h-3.859V-7.119ZM-372.229,4.3V-7.119h3.9c3.993,0,5.468,1,5.468,6.038,0,4.016-1.656,5.385-5.693,5.385h-3.675" transform="translate(381.833 8.533)"/>
      </g>
      <g id="g5124" transform="translate(690.481 829.882)">
        <path id="path5126" d="M-88.2,0h-4.471V3.632h-7.444v7.574h-5.6V22.329h5.6V29.9h7.444v3.622h3.941c9.21,0,17.334-7.434,17.334-16.721A16.878,16.878,0,0,0-88.2,0" transform="translate(105.715)" fill="#e42a20"/>
      </g>
      <g id="g5128" transform="translate(734.614 868.865)">
        <path id="path5130" d="M-5.441-9.042a.325.325,0,0,0-.365-.365h-.715v-1.43h1.678c.749,0,1.065.317,1.065,1.065v6.5A2.611,2.611,0,0,0-.968-.461,2.618,2.618,0,0,0,1.842-3.288V-9.773c0-.749.332-1.065,1.079-1.065H4.585v1.43H3.869a.324.324,0,0,0-.364.365v5.836A4.153,4.153,0,0,1-.952,1.1,4.17,4.17,0,0,1-5.441-3.206Z" transform="translate(6.521 10.838)"/>
      </g>
      <g id="g5132" transform="translate(746.846 868.866)">
        <path id="path5134" d="M0-51.908H.714a.333.333,0,0,0,.367-.365v-9.943H2.593l5.221,7.432c.432.632.982,1.6.982,1.6h.032s-.116-.931-.116-1.6v-6.367c0-.749.315-1.065,1.08-1.065h1.663v1.43H10.74a.325.325,0,0,0-.365.365v9.943h-1.5L3.642-57.909c-.432-.635-.965-1.6-.965-1.6H2.643s.1.948.1,1.6v6.365c0,.749-.318,1.065-1.065,1.065H0Z" transform="translate(0 62.217)"/>
      </g>
      <g id="g5136" transform="translate(760.105 868.866)">
        <path id="path5138" d="M0-51.908H1.147v-8.878H0v-1.43H3.874v1.43H2.727v8.878H3.874v1.43H0Z" transform="translate(0 62.217)"/>
      </g>
      <g id="g5140" transform="translate(765.012 868.865)">
        <path id="path5142" d="M-3.923-9.042a.477.477,0,0,0-.546-.365H-4.7v-1.43h.93c.831,0,1.115.184,1.38.965L.184-2.64c.218.632.45,1.612.45,1.612H.668A15.085,15.085,0,0,1,1.117-2.64L3.693-9.873c.282-.781.548-.965,1.379-.965H6v1.43H5.772c-.3,0-.449.065-.549.365L1.531.9H-.232Z" transform="translate(4.703 10.838)"/>
      </g>
      <g id="g5144" transform="translate(776.685 868.866)">
        <path id="path5146" d="M-5.433-7.2H-6.512V-8.624h6.9c.747,0,1.062.315,1.062,1.064v1.479H-.063V-6.83A.325.325,0,0,0-.428-7.2h-3.34V-3.52h4.1v1.429h-4.1V1.317a.332.332,0,0,0,.365.365H.021a.334.334,0,0,0,.368-.365V.568H1.917V2.048c0,.75-.315,1.065-1.064,1.065H-4.368c-.749,0-1.065-.315-1.065-1.065Z" transform="translate(6.512 8.624)"/>
      </g>
      <g id="g5148" transform="translate(786.365 868.866)">
        <path id="path5150" d="M-24.705-28.383a1.911,1.911,0,0,0,2.01-2.129,1.863,1.863,0,0,0-1.978-2.079h-2.194v4.208Zm-3.826-4.208h-1.08V-34.02h5.121a3.265,3.265,0,0,1,3.509,3.442,3.015,3.015,0,0,1-2.112,3.107v.033a1.256,1.256,0,0,1,.5.533l1.415,2.809c.167.35.432.383.831.383h.218v1.429h-.817c-.913,0-1.246-.116-1.627-.881l-1.6-3.158c-.3-.549-.517-.633-1.166-.633h-1.529v4.672h-1.663Z" transform="translate(29.611 34.02)"/>
      </g>
      <g id="g5152" transform="translate(796.991 868.666)">
        <path id="path5154" d="M-4.935-46.383A4.269,4.269,0,0,0-1.993-44.97,1.83,1.83,0,0,0,.021-46.717c0-2.461-5.672-2.079-5.672-5.735,0-1.762,1.546-3.142,3.759-3.142,1.248,0,3.34.566,3.34,2.161v.966H-.079v-.549c0-.616-.881-1.065-1.812-1.065-1.265,0-2.062.7-2.062,1.58,0,2.378,5.653,1.846,5.653,5.7a3.417,3.417,0,0,1-3.724,3.343A5.243,5.243,0,0,1-5.915-45.2Z" transform="translate(5.915 55.595)"/>
      </g>
      <g id="g5156" transform="translate(806.349 868.866)">
        <path id="path5158" d="M0-51.908H1.147v-8.878H0v-1.43H3.876v1.43H2.727v8.878H3.876v1.43H0Z" transform="translate(0 62.217)"/>
      </g>
      <g id="g5160" transform="translate(811.306 868.866)">
        <path id="path5162" d="M-21.18-7.2h-2.362a.325.325,0,0,0-.365.365v.749h-1.479V-7.628c0-.747.248-1,1-1h8.082c.746,0,1,.25,1,1v1.546H-16.79V-6.83a.325.325,0,0,0-.367-.365h-2.362V3.113H-21.18Z" transform="translate(25.386 8.624)"/>
      </g>
      <g id="g5164" transform="translate(822.097 868.865)">
        <path id="path5166" d="M-20.268-33.326-23.245-38.1a.686.686,0,0,0-.717-.415h-.332v-1.43h.764a1.463,1.463,0,0,1,1.581.9l1.779,2.96c.383.647.715,1.313.715,1.313h.033s.315-.667.714-1.313l1.765-2.96a1.467,1.467,0,0,1,1.577-.9h.765v1.43h-.318a.7.7,0,0,0-.729.415l-2.961,4.772v5.121h-1.66Z" transform="translate(24.293 39.944)"/>
      </g>
    </g>
  </g>
</svg>
