<svg xmlns="http://www.w3.org/2000/svg" width="240" height="120" viewBox="0 0 240 120">
  <g id="logo_Wargaming-net" transform="translate(-1122 -258)">
    <rect id="Rectangle_5" data-name="Rectangle 5" width="240" height="120" transform="translate(1122 258)" fill="#fff"/>
    <g id="svg_Wargamingnet-Logo" transform="translate(1132 293)">
      <path id="Path_824" data-name="Path 824" d="M24.572,0A24.6,24.6,0,1,1,0,24.572,24.568,24.568,0,0,1,24.572,0Zm0,4.688A19.926,19.926,0,0,1,34.617,41.829a42.9,42.9,0,0,0,1.545-13.857c1.288.361,2.009.567,3.3.979a67.5,67.5,0,0,0-5.2-10.612,42.672,42.672,0,0,1-6.9,9.53l4.121-.258c-3.554,6.336-8.551,9.427-14.887,10.3-1.442-7.16-.361-18.854,7.727-24.314l.824,3.915a56.88,56.88,0,0,1,7.006-8.191,21.96,21.96,0,0,0-12-1.133c.67.567,1.494,1.288,2.164,1.854-9.118,3.863-14.115,10.2-17.411,17.566a19.421,19.421,0,0,1-.206-2.988A19.907,19.907,0,0,1,24.572,4.688Z" transform="translate(0 0)" fill-rule="evenodd"/>
      <path id="Path_825" data-name="Path 825" d="M120.69,44.426v1.082h-2.885v2.061H121V48.65h-4.43V41.49h4.379v1.082h-3.194v1.8c.979.052,1.958.052,2.936.052ZM111.572,48.6h-4.379V41.49h1.236v6.027h3.194A7.61,7.61,0,0,0,111.572,48.6Zm23.438-7.057-1.648,1.906c-.206-.1-.412-.155-.618-.258l.618-1.648Zm2.936,1.288a.745.745,0,0,0-.258.67c0,.618.206.824.773.927l1.133.1a1.774,1.774,0,0,1,1.8,1.957V46.9a2.406,2.406,0,0,1-.155.876,1.406,1.406,0,0,1-.464.618,1.8,1.8,0,0,1-.876.309,6.234,6.234,0,0,1-.979.052h-2.318V47.517h2.833c.515,0,.824-.1.773-.876a.925.925,0,0,0-.206-.67,1.738,1.738,0,0,0-.618-.206l-1.185-.1a2,2,0,0,1-1.185-.464,2.048,2.048,0,0,1-.515-1.545v-.361a1.658,1.658,0,0,1,.773-1.494,3.586,3.586,0,0,1,1.7-.309h2.112v1.236h-2.267A1.9,1.9,0,0,0,137.947,42.829ZM152.319,48.6V41.49h3.091a1.8,1.8,0,0,1,.927.309,1.265,1.265,0,0,1,.515,1.133v.876a1.47,1.47,0,0,1-.515,1.133,1.348,1.348,0,0,1,.515,1.082v1.133A1.474,1.474,0,0,1,155.41,48.6Zm3.194-2.988a.588.588,0,0,0-.309-.155h-1.7v2.009h1.7a.445.445,0,0,0,.309-.155.435.435,0,0,0,.1-.309V45.92C155.668,45.868,155.616,45.714,155.513,45.611Zm.052-2.885a.468.468,0,0,0-.361-.155h-1.7v1.8h1.751a.445.445,0,0,0,.309-.155.557.557,0,0,0,.155-.361v-.824A1.712,1.712,0,0,1,155.564,42.726Zm44.559,1.7h2.885v1.082h-2.885v2.061h3.194V48.65h-4.379V41.49h4.379v1.082h-3.194ZM193.375,48.6h-3.967V41.49h1.236v6.027h2.73Zm-8.706-5.976h-1.8V48.6H181.63V42.623h-1.8V41.541h4.842Zm-9.633,0h-1.8V48.6H172V42.623h-1.8V41.541h4.842v1.082ZM162.622,47.1l-.361,1.545h-1.288l1.957-7.109h1.6l1.957,7.109H165.2l-.412-1.545Zm.258-1.082h1.545l-.773-3.091Zm-32.711-3.4h-1.8V48.6h-1.236V42.623h-1.8V41.541h4.842ZM117.96,32.115,122.287,16.4h-3.812l-2.37,10.2-1.648-10.2H110.13l-1.648,10.2-2.37-10.2H102.3l4.327,15.711h3.915l1.751-9.994,1.751,9.994Zm6.748,0,.721-3.245H129.4l.721,3.245h3.554L129.344,16.4h-3.915l-4.276,15.711Zm2.73-11.848,1.339,5.924H126.1Zm11.436,5.976h2.164l2.112,5.872h3.915l-2.782-6.542a2.813,2.813,0,0,0,1.957-2.679v-3.5a2.882,2.882,0,0,0-2.267-2.833,10.246,10.246,0,0,0-2.524-.155h-5.924V32.115h3.348Zm0-6.8h2.833c.618,0,1.185.309,1.185,1.03v1.545a1.069,1.069,0,0,1-1.185,1.133h-2.833Zm17.411,12.827a5.294,5.294,0,0,0,3.451-1.082V22.842h-5.306V25.83h1.958v2.988a6.342,6.342,0,0,1-1.03.1h-1.339c-1.906,0-2.37-1.339-2.37-2.782V22.224a2.256,2.256,0,0,1,2.473-2.576h5.357V16.3h-5.563a5.281,5.281,0,0,0-5.615,5.048c0,.258-.051.515-.051.773v4.533a5.294,5.294,0,0,0,5.357,5.615Zm8.088-.155.721-3.245h3.967l.721,3.245h3.554L169.009,16.4h-3.915l-4.276,15.711Zm2.679-11.848,1.339,5.924h-2.679Zm22.563,11.848V16.4h-4.224L182.248,28.1,179.157,16.4h-4.224V32.115h3.194V22.482l2.421,9.633h3.4l2.421-9.633v9.633ZM192.4,16.4V32.115h3.348V16.4Zm14.475,0v9.375L201.823,16.4h-3.3V32.115h3.194V22.739l5.1,9.375h3.3V16.4Zm33.432,0v9.375L235.255,16.4h-3.3V32.115h3.194V22.739l5.1,9.375h3.3V16.4Zm9.169,3.039h6.645V16.4h-9.993V32.115h9.993V29.075h-6.645V25.469H255.5V22.482h-6.027Zm8.345-3.039v3.039h3.812V32.115h3.348V19.442h3.76V16.4ZM220.11,32.269a5.294,5.294,0,0,0,3.451-1.082V22.842h-5.306V25.83h1.958v2.988a6.343,6.343,0,0,1-1.03.1h-1.339c-1.906,0-2.37-1.339-2.37-2.782V22.224a2.256,2.256,0,0,1,2.473-2.576H223.3V16.3h-5.563a5.281,5.281,0,0,0-5.615,5.048c0,.258-.052.515-.052.773v4.533a5.294,5.294,0,0,0,5.357,5.615Z" transform="translate(-49.602 -7.903)"/>
      <path id="Path_826" data-name="Path 826" d="M346.145,44.494H342.9V41.3h3.245Z" transform="translate(-166.262 -20.025)" fill-rule="evenodd"/>
    </g>
  </g>
</svg>
