<?xml version="1.0" standalone="no"?>
<!DOCTYPE svg PUBLIC "-//W3C//DTD SVG 20010904//EN"
 "http://www.w3.org/TR/2001/REC-SVG-20010904/DTD/svg10.dtd">
<svg version="1.0" xmlns="http://www.w3.org/2000/svg"
 width="396.000000pt" height="396.000000pt" viewBox="0 0 396.000000 396.000000"
 preserveAspectRatio="xMidYMid meet">

<g transform="translate(0.000000,396.000000) scale(0.100000,-0.100000)"
fill="#000000" stroke="none">
<path d="M2422 2923 c-77 -145 -97 -181 -112 -198 -9 -11 -28 -36 -41 -56 -30
-45 -111 -139 -119 -139 -4 0 -33 -25 -65 -55 -33 -30 -67 -55 -76 -55 -22 0
-70 -25 -63 -33 8 -8 -72 -57 -93 -57 -17 1 -17 1 0 11 9 6 15 14 12 18 -2 5
4 16 14 25 18 17 20 16 30 -1 6 -10 11 -13 11 -7 0 5 -5 15 -12 22 -16 16 1
32 38 35 16 1 34 10 39 19 6 9 14 17 20 17 5 0 11 4 13 10 2 6 -3 11 -12 11
-12 0 -16 11 -16 50 0 48 -1 50 -27 50 -15 0 -41 -5 -58 -11 -40 -15 -95 -5
-124 22 -22 20 -23 20 -37 3 -8 -11 -19 -29 -24 -41 -5 -13 -18 -23 -29 -23
-11 0 -23 -4 -26 -10 -3 -5 -21 -10 -40 -10 -27 0 -34 -4 -37 -22 -2 -19 -9
-23 -41 -23 -20 0 -37 -3 -37 -7 0 -5 -11 -8 -24 -8 -13 0 -29 -7 -36 -15 -8
-9 -30 -15 -56 -15 -48 0 -48 1 -44 -72 2 -49 -7 -59 -32 -35 -19 20 -44 17
-45 -6 -2 -14 3 -18 18 -14 16 4 19 0 19 -34 0 -39 0 -39 -40 -39 -39 0 -40 1
-40 34 0 37 -27 58 -36 28 -3 -9 -10 -26 -14 -37 -5 -11 -11 -39 -14 -63 -5
-33 -3 -44 9 -48 11 -5 7 -11 -17 -23 -18 -9 -33 -22 -33 -30 0 -8 -6 -16 -13
-19 -7 -2 -10 2 -6 12 8 22 -3 35 -25 29 -16 -4 -18 -13 -15 -76 2 -54 1 -63
-5 -37 -5 19 -9 29 -10 23 0 -7 -6 -12 -13 -10 -15 3 -28 -58 -19 -92 4 -14 9
-61 10 -103 2 -65 -1 -78 -14 -78 -19 0 -19 -17 0 -36 16 -16 20 -44 7 -44 -5
0 -8 -52 -8 -115 1 -82 4 -115 13 -115 6 0 14 8 16 18 4 14 5 13 6 -4 1 -15 7
-20 23 -20 17 1 24 -5 26 -21 4 -27 -14 -31 -21 -5 -4 16 -5 16 -6 0 -1 -11
-9 -18 -21 -18 -14 0 -20 6 -18 16 2 10 -2 19 -9 21 -9 3 -10 -4 -3 -29 17
-59 32 -88 46 -88 8 0 17 -12 20 -28 4 -15 12 -33 18 -41 8 -11 8 -15 -1 -18
-10 -4 -9 -11 2 -34 19 -36 29 -38 21 -3 -5 18 -3 24 5 19 6 -4 9 -19 6 -34
-6 -28 7 -61 24 -61 16 0 36 -24 32 -37 -6 -16 23 -59 65 -103 26 -26 31 -29
18 -9 -20 32 -10 45 17 22 11 -10 17 -13 14 -6 -4 6 -3 14 1 17 5 3 12 -17 15
-45 6 -46 12 -56 76 -119 39 -39 76 -70 83 -70 7 1 27 28 43 62 74 151 226
350 386 503 109 105 178 157 319 242 219 131 454 206 782 248 30 4 55 14 71
30 34 35 197 289 197 308 0 34 -139 113 -285 162 -44 15 -86 33 -93 40 -8 7
-17 42 -22 79 -11 90 -36 120 -143 174 -139 70 -242 181 -278 302 -13 44 -23
50 -37 23z m-505 -474 c-14 -8 -22 -8 -30 0 -8 8 -3 11 19 11 25 -1 27 -2 11
-11z m721 -29 c2 -5 9 -7 17 -4 12 5 33 -32 23 -41 -2 -2 -26 -7 -54 -10 -45
-6 -53 -4 -82 20 -18 15 -32 34 -32 42 0 13 10 14 63 9 34 -4 63 -11 65 -16z
m-848 -95 c7 -8 16 -12 21 -9 5 3 9 1 9 -5 0 -6 -15 -13 -34 -16 -21 -4 -36
-14 -39 -25 -2 -10 -14 -23 -26 -29 -18 -10 -21 -9 -21 8 0 14 -5 19 -15 15
-11 -5 -15 0 -14 17 0 13 3 19 5 12 8 -18 58 0 69 25 11 26 27 28 45 7z m498
-126 c9 -135 5 -363 -7 -419 l-8 -35 -11 35 c-9 30 -10 31 -11 10 -2 -32 -21
-65 -21 -36 0 24 -16 10 -22 -19 -4 -16 -7 -13 -15 15 l-11 35 -1 -32 c-1 -33
-16 -52 -24 -31 -3 7 -6 1 -6 -14 -1 -29 -16 -46 -24 -26 -3 8 -6 6 -6 -5 -1
-9 -10 -34 -21 -54 -11 -21 -20 -43 -20 -49 0 -6 -7 -17 -15 -24 -10 -9 -15
-9 -15 -1 0 6 -4 11 -10 11 -5 0 -10 -5 -10 -10 0 -13 -45 -60 -57 -60 -5 0
-18 -22 -31 -50 -23 -49 -52 -67 -52 -32 0 28 -11 34 -26 14 -12 -16 -14 -16
-41 0 -15 9 -29 26 -31 37 -5 29 -22 16 -22 -16 0 -15 -3 -23 -7 -20 -7 7 -63
-105 -63 -126 0 -7 -4 -17 -9 -22 -5 -6 -16 -35 -26 -65 -26 -80 -47 -101 -60
-59 -7 19 -7 20 -21 2 -7 -10 -20 -39 -29 -65 -18 -53 -40 -77 -57 -60 -38 38
-66 374 -48 585 11 133 41 267 60 267 4 0 14 -13 21 -28 l12 -29 38 77 c33 69
105 158 117 145 3 -3 11 0 19 6 7 6 13 8 13 3 0 -4 7 1 15 12 14 19 14 19 15
-1 1 -18 2 -18 14 4 13 23 14 23 23 -25 8 -40 11 -45 18 -29 5 11 24 35 42 54
27 28 34 31 39 17 6 -15 7 -15 19 1 8 10 19 18 27 18 7 0 14 9 16 19 2 10 13
28 23 39 10 12 19 27 19 34 0 7 7 13 15 13 8 0 15 9 15 20 0 26 39 48 51 29 7
-11 9 -9 9 5 0 20 0 20 15 0 14 -18 14 -18 15 4 0 29 20 19 21 -11 1 -16 4
-12 12 13 l11 35 6 -35 c6 -28 8 -30 9 -10 1 14 6 34 10 45 8 18 10 16 19 -15
l10 -35 1 38 c1 46 21 41 22 -6 1 -29 2 -28 11 12 16 70 28 36 36 -100z m-618
35 c0 -8 5 -12 10 -9 6 3 10 1 10 -5 0 -19 -29 -23 -46 -6 -8 9 -19 14 -24 11
-5 -3 -12 0 -16 7 -4 7 -4 10 1 6 4 -4 17 -1 28 7 23 16 37 11 37 -11z m-80
-29 c0 -8 -4 -15 -10 -15 -5 0 -10 7 -10 15 0 8 5 15 10 15 6 0 10 -7 10 -15z
m50 -16 c0 -6 -9 -22 -19 -36 l-20 -24 1 23 c2 25 15 48 29 48 5 0 9 -5 9 -11z
m-410 -24 c0 -8 -4 -15 -10 -15 -5 0 -10 7 -10 15 0 8 5 15 10 15 6 0 10 -7
10 -15z m360 -18 c-1 -15 -39 -66 -40 -51 0 23 22 74 31 68 5 -3 9 -11 9 -17z
m-63 -70 c13 5 13 2 -2 -21 -33 -50 -49 -12 -28 64 7 22 8 21 11 -12 2 -29 7
-36 19 -31z m13 59 c0 -3 -4 -8 -10 -11 -5 -3 -10 -1 -10 4 0 6 5 11 10 11 6
0 10 -2 10 -4z m-92 -75 c-8 -12 -18 -18 -21 -14 -4 3 1 14 11 23 22 23 28 17
10 -9z m20 -49 c15 -10 5 -45 -12 -39 -13 4 -21 47 -9 47 4 0 14 -4 21 -8z
m-421 -56 c-3 -18 1 -43 9 -56 17 -31 18 -45 2 -28 -29 30 -43 139 -16 122 6
-4 8 -21 5 -38z m323 20 c0 -3 -4 -8 -10 -11 -5 -3 -10 -1 -10 4 0 6 5 11 10
11 6 0 10 -2 10 -4z m70 -32 c0 -8 -4 -14 -8 -14 -4 0 -8 9 -8 19 0 11 4 17 8
15 4 -3 8 -12 8 -20z m-24 -49 c-3 -9 -11 -13 -16 -10 -8 5 -7 11 1 21 14 18
24 11 15 -11z m-38 -66 c-3 -8 -7 -3 -11 10 -4 17 -3 21 5 13 5 -5 8 -16 6
-23z m-53 9 c12 -35 12 -82 1 -120 -8 -24 -15 -36 -18 -28 -3 8 -9 11 -14 7
-4 -4 -3 -16 3 -26 7 -10 9 -28 6 -39 -6 -25 -33 -38 -33 -16 0 8 -4 13 -9 10
-11 -7 -1 37 11 45 4 3 5 32 0 65 -11 91 -6 106 41 113 4 0 10 -5 12 -11z
m-96 -355 c-7 -10 -14 -20 -16 -22 -1 -2 -1 6 0 18 1 11 8 21 15 21 12 0 12
-3 1 -17z m-83 -218 c14 -13 14 -16 0 -21 -9 -3 -23 -3 -32 0 -13 5 -14 9 -4
21 15 19 18 19 36 0z m94 -50 c0 -8 -7 -15 -15 -15 -16 0 -20 12 -8 23 11 12
23 8 23 -8z m17 -41 c2 -5 -3 -18 -11 -29 -13 -18 -14 -18 -26 4 -10 19 -9 25
1 32 16 10 31 7 36 -7z m-60 -16 c-3 -8 -6 -5 -6 6 -1 11 2 17 5 13 3 -3 4
-12 1 -19z m-34 -18 c3 -11 1 -18 -4 -14 -5 3 -9 12 -9 20 0 20 7 17 13 -6z
m137 -119 c0 -4 -7 -8 -15 -8 -8 0 -15 6 -15 13 0 8 6 11 15 8 8 -4 15 -9 15
-13z"/>
<path d="M2047 2783 c18 -2 50 -2 70 0 21 2 7 4 -32 4 -38 0 -55 -2 -38 -4z"/>
<path d="M1670 2604 c0 -14 3 -14 15 -4 8 7 15 14 15 16 0 2 -7 4 -15 4 -8 0
-15 -7 -15 -16z"/>
<path d="M2011 2581 c-13 -24 9 -51 42 -51 18 0 19 -2 7 -11 -13 -9 -13 -10 0
-6 8 2 14 10 12 16 -1 7 4 11 11 9 7 -2 13 0 15 4 3 16 -14 43 -28 44 -8 1
-23 5 -32 9 -11 4 -20 0 -27 -14z m59 -25 c0 -3 -4 -8 -10 -11 -5 -3 -10 -1
-10 4 0 6 5 11 10 11 6 0 10 -2 10 -4z"/>
<path d="M1270 2381 c0 -26 16 -35 24 -15 10 25 7 34 -9 34 -8 0 -15 -9 -15
-19z"/>
</g>
</svg>
