<?xml version="1.0" encoding="UTF-8"?>
<svg version="1.1" xmlns="http://www.w3.org/2000/svg" width="294" height="400">
<path d="M0 0 C97.02 0 194.04 0 294 0 C294 132 294 264 294 400 C196.98 400 99.96 400 0 400 C0 268 0 136 0 0 Z " fill="#FEFEFE" transform="translate(0,0)"/>
<path d="M0 0 C2.34057617 0.22509766 2.34057617 0.22509766 5 1 C6.4152832 2.88818359 6.4152832 2.88818359 7.55078125 5.3984375 C7.99373535 6.33961426 8.43668945 7.28079102 8.89306641 8.25048828 C9.59568604 9.79712158 9.59568604 9.79712158 10.3125 11.375 C25.03126408 42.23903692 43.91659152 68.45244153 67.3359375 93.23583984 C75.70344924 102.10667902 83.43540257 111.44248453 91 121 C91.77988281 121.98355469 92.55976563 122.96710938 93.36328125 123.98046875 C107.83857528 143.00915624 112.67009405 164.20022569 109.4921875 187.765625 C108.8279487 190.9264855 108.00289562 193.93065413 107 197 C106.6596875 198.05058594 106.319375 199.10117188 105.96875 200.18359375 C98.1383808 222.2197341 83.00482088 238.52156272 67 255 C66.2268042 255.79809082 66.2268042 255.79809082 65.43798828 256.61230469 C53.22858154 269.16593766 37.98398211 284.39432875 22 292 C19.1640625 291.69921875 19.1640625 291.69921875 17 291 C17.04640625 289.82824219 17.0928125 288.65648437 17.140625 287.44921875 C17.47755632 275.51803582 17.00743969 266.33331642 8.9375 256.875 C-2.69659663 244.90313927 -16.91782442 235.69845473 -30.7578125 226.48828125 C-53.69565173 211.09505661 -68.42368711 190.25122125 -74.8125 163.1875 C-78.44444305 144.01171996 -77.10267392 121.9504462 -73 103 C-71.02 102.505 -71.02 102.505 -69 102 C-68.608125 103.19625 -68.21625 104.3925 -67.8125 105.625 C-67.39677734 106.85669922 -67.39677734 106.85669922 -66.97265625 108.11328125 C-66.28004341 110.16886715 -65.60188402 112.22934716 -64.93359375 114.29296875 C-60.94739454 126.14632019 -54.82094929 140.78603381 -44 148 C-42.68 148 -41.36 148 -40 148 C-40.4577719 146.31234761 -40.9162489 144.62488648 -41.375 142.9375 C-41.63023438 141.99777344 -41.88546875 141.05804688 -42.1484375 140.08984375 C-42.95961622 136.99058026 -42.95961622 136.99058026 -44.08203125 134.00390625 C-48.14348834 119.74389608 -46.15638727 100.09882445 -42 86 C-41.68530762 84.84201904 -41.68530762 84.84201904 -41.36425781 83.66064453 C-33.09211033 53.38135435 -16.60334353 26.35065799 0 0 Z " fill="#201F1F" transform="translate(130,54)"/>
<path d="M0 0 C3.71328339 3.40050142 5.53048084 7.5469584 7.75 12 C8.17410156 12.81984375 8.59820312 13.6396875 9.03515625 14.484375 C9.43089844 15.27328125 9.82664063 16.0621875 10.234375 16.875 C10.59756836 17.59429687 10.96076172 18.31359375 11.33496094 19.0546875 C12 21 12 21 11 24 C10.01 22.35 9.02 20.7 8 19 C7.34 19.33 6.68 19.66 6 20 C6 18.68 6 17.36 6 16 C5.01 15.67 4.02 15.34 3 15 C2.92652344 14.12988281 2.92652344 14.12988281 2.8515625 13.2421875 C2.40350595 8.56076908 1.701979 4.42514541 0 0 Z " fill="#191819" transform="translate(135,58)"/>
<path d="M0 0 C0.99 0.33 1.98 0.66 3 1 C1.49586777 4.76033058 1.49586777 4.76033058 -0.875 5.90625 C-3.30502482 7.15699807 -4.53212436 8.51669808 -6.25 10.625 C-6.77078125 11.25664062 -7.2915625 11.88828125 -7.828125 12.5390625 C-8.21484375 13.02117187 -8.6015625 13.50328125 -9 14 C-9.66 13.01 -10.32 12.02 -11 11 C-7.37 7.37 -3.74 3.74 0 0 Z " fill="#F1F0F1" transform="translate(203,302)"/>
<path d="M0 0 C2.77862859 3.47328574 4.98463473 7.0412468 7 11 C6.67 11.99 6.34 12.98 6 14 C5.01 14 4.02 14 3 14 C3 12.68 3 11.36 3 10 C2.01488198 7.6603447 1.01529541 5.32671865 0 3 C0 2.01 0 1.02 0 0 Z " fill="#181818" transform="translate(66,175)"/>
<path d="M0 0 C1.67542976 0.28604898 3.34385343 0.61781233 5 1 C2.75 3.5 2.75 3.5 0 6 C-1.32 6 -2.64 6 -4 6 C-4 5.34 -4 4.68 -4 4 C-3.34 4 -2.68 4 -2 4 C-1.67 3.01 -1.34 2.02 -1 1 C-0.67 0.67 -0.34 0.34 0 0 Z " fill="#191919" transform="translate(152,340)"/>
<path d="M0 0 C5.75 3.625 5.75 3.625 8 7 C7.01 7.495 7.01 7.495 6 8 C3.69 6.35 1.38 4.7 -1 3 C-0.67 2.01 -0.34 1.02 0 0 Z " fill="#F1F1F1" transform="translate(129,302)"/>
<path d="M0 0 C1.875 0.125 1.875 0.125 4 1 C5.25 4.0625 5.25 4.0625 6 7 C4.68 7 3.36 7 2 7 C0 4 0 4 0 0 Z " fill="#F8F8F8" transform="translate(185,130)"/>
<path d="M0 0 C0.33 0.66 0.66 1.32 1 2 C0.39351421 3.68949614 -0.27840576 5.35636866 -1 7 C-1.33 7.99 -1.66 8.98 -2 10 C-2.66 10 -3.32 10 -4 10 C-4.66 11.32 -5.32 12.64 -6 14 C-5.41892368 10.2397015 -4.34800504 7.46964968 -2.4375 4.1875 C-1.98246094 3.39730469 -1.52742188 2.60710937 -1.05859375 1.79296875 C-0.53458984 0.90544922 -0.53458984 0.90544922 0 0 Z " fill="#151415" transform="translate(107,94)"/>
<path d="M0 0 C3.81552617 1.49895671 5.53745046 3.7986856 8 7 C8.66 7.33 9.32 7.66 10 8 C9.67 8.66 9.34 9.32 9 10 C7.68113228 8.90344712 6.37009943 7.79746577 5.0625 6.6875 C4.33160156 6.07261719 3.60070312 5.45773437 2.84765625 4.82421875 C1 3 1 3 0 0 Z " fill="#151515" transform="translate(79,262)"/>
<path d="M0 0 C0.66 0.33 1.32 0.66 2 1 C1.01 3.31 0.02 5.62 -1 8 C-1.99 7.67 -2.98 7.34 -4 7 C-3.67 5.02 -3.34 3.04 -3 1 C-2.01 0.67 -1.02 0.34 0 0 Z " fill="#EEECED" transform="translate(100,104)"/>
<path d="M0 0 C1.98 1.65 3.96 3.3 6 5 C5.01 5.99 4.02 6.98 3 8 C1.35 5.69 -0.3 3.38 -2 1 C-1.34 0.67 -0.68 0.34 0 0 Z " fill="#262525" transform="translate(153,94)"/>
<path d="M0 0 C0.99 1.32 1.98 2.64 3 4 C2.01 4.495 2.01 4.495 1 5 C1.66 6.65 2.32 8.3 3 10 C0 8 0 8 -0.75 4.4375 C-0.8325 3.303125 -0.915 2.16875 -1 1 C-0.67 0.67 -0.34 0.34 0 0 Z " fill="#262626" transform="translate(67,181)"/>
<path d="M0 0 C2.475 0.495 2.475 0.495 5 1 C5.33 1.99 5.66 2.98 6 4 C5.34 4.66 4.68 5.32 4 6 C1.7522025 3.94766315 0.9977758 2.99332739 0 0 Z " fill="#202020" transform="translate(130,54)"/>
<path d="M0 0 C5.75 -0.125 5.75 -0.125 8 1 C8 1.99 8 2.98 8 4 C4.31245243 3.50168276 2.39509338 2.89932357 0 0 Z " fill="#252525" transform="translate(120,294)"/>
<path d="M0 0 C1.43088528 2.86177057 0.59991697 4.93375773 0 8 C-1.32 8 -2.64 8 -4 8 C-3.50168276 4.31245243 -2.89932357 2.39509338 0 0 Z " fill="#282828" transform="translate(93,130)"/>
<path d="M0 0 C1.485 0.99 1.485 0.99 3 2 C3.99 1.67 4.98 1.34 6 1 C6.33 2.65 6.66 4.3 7 6 C2.32307692 4.52307692 2.32307692 4.52307692 0.6875 1.875 C0.460625 1.25625 0.23375 0.6375 0 0 Z " fill="#181717" transform="translate(96,276)"/>
<path d="M0 0 C-0.33 0.99 -0.66 1.98 -1 3 C-2.98 3.33 -4.96 3.66 -7 4 C-7 3.01 -7 2.02 -7 1 C-4 0 -4 0 0 0 Z " fill="#2F2D2E" transform="translate(94,202)"/>
<path d="M0 0 C1.9375 0.375 1.9375 0.375 4 1 C4.33 1.66 4.66 2.32 5 3 C4.34 3.66 3.68 4.32 3 5 C2.67 4.01 2.34 3.02 2 2 C1.34 2 0.68 2 0 2 C0 1.34 0 0.68 0 0 Z M-3 1 C-2.01 1.33 -1.02 1.66 0 2 C-0.33 2.66 -0.66 3.32 -1 4 C-1.66 3.01 -2.32 2.02 -3 1 Z " fill="#282828" transform="translate(166,115)"/>
<path d="M0 0 C0.33 0.66 0.66 1.32 1 2 C1.66 2.33 2.32 2.66 3 3 C2.34 3 1.68 3 1 3 C1.33 4.65 1.66 6.3 2 8 C1.34 8 0.68 8 0 8 C-1.125 2.25 -1.125 2.25 0 0 Z " fill="#191718" transform="translate(99,110)"/>
<path d="M0 0 C0 3 0 3 -2.5 5.6875 C-3.325 6.450625 -4.15 7.21375 -5 8 C-5 5 -5 5 -2.5 2.3125 C-1.675 1.549375 -0.85 0.78625 0 0 Z " fill="#D8D8D8" transform="translate(185,319)"/>
<path d="M0 0 C1.98 0.99 1.98 0.99 4 2 C4.99 2 5.98 2 7 2 C7.33 2.99 7.66 3.98 8 5 C7.34 5.66 6.68 6.32 6 7 C4.02 4.69 2.04 2.38 0 0 Z " fill="#0D0D0D" transform="translate(132,303)"/>
<path d="M0 0 C1.32 0.66 2.64 1.32 4 2 C3.67 2.99 3.34 3.98 3 5 C2.01 5.33 1.02 5.66 0 6 C-0.33 5.01 -0.66 4.02 -1 3 C-0.34 3 0.32 3 1 3 C0.67 2.01 0.34 1.02 0 0 Z " fill="#2A2829" transform="translate(131,298)"/>
<path d="M0 0 C0.66 1.32 1.32 2.64 2 4 C1.34 4.66 0.68 5.32 0 6 C-0.33 6.66 -0.66 7.32 -1 8 C-1.66 6.35 -2.32 4.7 -3 3 C-2.01 2.01 -1.02 1.02 0 0 Z " fill="#181617" transform="translate(69,241)"/>
<path d="M0 0 C2.29013653 3.4352048 2.17842973 4.985331 2 9 C1.01 9.495 1.01 9.495 0 10 C-0.74926071 6.33694766 -1.2380014 3.57644848 0 0 Z " fill="#282727" transform="translate(233,195)"/>
<path d="M0 0 C0.66 0.99 1.32 1.98 2 3 C1.125 5.6875 1.125 5.6875 0 8 C-0.66 7.67 -1.32 7.34 -2 7 C-1.125 2.25 -1.125 2.25 0 0 Z " fill="#E8E8E8" transform="translate(123,59)"/>
</svg>
