<?xml version="1.0" standalone="no"?>
<!DOCTYPE svg PUBLIC "-//W3C//DTD SVG 20010904//EN"
 "http://www.w3.org/TR/2001/REC-SVG-20010904/DTD/svg10.dtd">
<svg version="1.0" xmlns="http://www.w3.org/2000/svg"
 width="3104.000000pt" height="3104.000000pt" viewBox="0 0 3104.000000 3104.000000"
 preserveAspectRatio="xMidYMid meet">

<g transform="translate(0.000000,3104.000000) scale(0.100000,-0.100000)"
fill="#000000" stroke="none">
<path d="M15270 31032 c0 -4 5 -13 12 -20 7 -7 8 -12 3 -12 -9 0 32 -37 47
-42 5 -2 6 -16 2 -32 -5 -21 -11 -26 -26 -23 -15 4 -17 3 -8 -8 12 -15 4 -39
-10 -30 -4 3 -10 -2 -14 -10 -3 -8 -1 -17 3 -20 16 -9 -1 -45 -21 -45 -10 0
-29 -6 -41 -14 -18 -12 -68 -24 -122 -31 -11 -1 -47 14 -55 24 -19 23 -60 33
-134 31 -124 -4 -143 -2 -181 20 -20 11 -42 20 -50 20 -8 0 -15 4 -15 8 0 8
-180 28 -272 31 -26 1 -81 15 -124 32 -68 27 -85 30 -148 25 -39 -3 -111 -12
-161 -21 -97 -18 -210 -13 -227 9 -4 6 -12 6 -20 -1 -12 -10 -30 -13 -63 -13
-14 0 -29 0 -83 0 -12 0 -25 -7 -28 -15 -4 -8 -12 -15 -20 -15 -13 0 -18 -12
-15 -32 0 -5 -8 -8 -19 -8 -11 0 -20 -4 -20 -10 0 -13 -67 -30 -125 -30 -27 0
-102 -7 -165 -16 -142 -21 -353 -29 -376 -16 -12 7 -27 7 -43 0 -15 -6 -71
-11 -126 -13 -83 -2 -110 -7 -159 -29 -32 -14 -69 -26 -82 -26 -12 0 -25 -4
-28 -9 -3 -4 -45 -9 -94 -10 -49 -1 -110 -8 -135 -16 -26 -8 -75 -17 -109 -21
-82 -8 -166 -30 -192 -49 -12 -8 -32 -23 -44 -32 -13 -9 -58 -24 -100 -34 -84
-18 -183 -57 -236 -92 -171 -111 -272 -172 -341 -205 -57 -28 -202 -78 -290
-100 -109 -28 -246 -72 -297 -96 -31 -14 -69 -31 -84 -36 -15 -6 -64 -35 -110
-65 -46 -30 -89 -55 -96 -55 -7 0 -59 -28 -114 -62 -95 -60 -120 -77 -197
-139 -18 -14 -75 -52 -127 -84 -52 -32 -122 -86 -155 -119 -33 -34 -89 -86
-124 -116 -78 -68 -86 -76 -209 -225 -55 -66 -124 -142 -154 -170 -69 -65 -90
-95 -132 -193 -18 -44 -42 -93 -53 -109 -11 -15 -28 -50 -38 -78 -41 -119 -60
-157 -107 -217 -24 -29 -56 -72 -73 -95 -16 -23 -61 -79 -98 -125 -38 -46 -77
-99 -87 -118 -10 -19 -39 -60 -64 -90 -25 -30 -59 -79 -75 -110 -47 -86 -112
-162 -220 -256 -127 -110 -123 -104 -308 -464 -21 -40 -41 -104 -54 -165 -18
-92 -26 -108 -87 -202 -37 -55 -87 -134 -112 -173 -25 -40 -64 -101 -87 -137
-23 -35 -49 -85 -59 -111 -9 -26 -34 -87 -54 -137 -21 -49 -48 -121 -60 -160
-12 -38 -33 -95 -46 -126 -13 -31 -24 -67 -24 -80 0 -60 -46 -182 -145 -384
-24 -49 -51 -117 -61 -150 -10 -33 -35 -94 -56 -136 -21 -42 -38 -85 -38 -95
0 -11 -7 -44 -15 -74 -44 -163 -50 -275 -48 -885 2 -501 4 -563 23 -695 12
-80 25 -235 30 -345 7 -168 33 -380 55 -455 2 -8 11 -64 20 -124 18 -118 40
-188 91 -281 18 -33 40 -80 50 -105 16 -42 70 -130 115 -189 111 -145 101
-130 198 -316 23 -44 57 -96 75 -115 74 -78 213 -296 312 -490 24 -47 64 -116
89 -155 68 -106 215 -353 247 -415 20 -39 34 -91 48 -180 11 -69 25 -152 30
-185 6 -33 15 -96 20 -139 5 -44 18 -107 29 -140 25 -80 54 -284 46 -318 -10
-40 -44 -63 -110 -78 -44 -9 -68 -21 -93 -46 -18 -18 -31 -38 -28 -42 3 -5 21
-12 41 -15 19 -3 47 -15 62 -26 14 -12 36 -21 48 -21 31 0 69 -41 90 -98 32
-82 84 -145 129 -153 13 -3 21 -14 23 -34 3 -27 -1 -32 -37 -48 -59 -25 -85
-22 -127 18 -21 20 -55 40 -75 45 -21 6 -56 15 -79 21 -81 21 -266 -19 -314
-67 -14 -14 -32 -41 -40 -61 -42 -99 -60 -530 -29 -708 8 -49 17 -128 20 -175
3 -46 14 -111 24 -143 11 -32 24 -86 30 -120 6 -34 20 -86 31 -115 10 -29 19
-62 19 -74 0 -38 42 -172 86 -275 8 -17 14 -36 14 -42 0 -6 4 -19 9 -29 8 -16
21 -75 42 -192 4 -25 22 -71 38 -103 17 -32 31 -66 31 -75 0 -23 31 -102 41
-102 10 0 40 -61 34 -70 -3 -5 0 -10 5 -12 6 -2 13 -17 16 -33 3 -16 8 -32 12
-35 4 -3 8 -14 10 -25 8 -47 71 -130 86 -114 11 12 -13 82 -36 108 -22 24 -26
37 -22 60 8 38 41 47 87 25 28 -14 36 -24 41 -55 3 -22 10 -39 15 -39 5 0 18
-3 28 -6 15 -5 15 -4 3 5 -8 5 -12 11 -10 13 25 16 48 23 63 20 19 -4 23 -27
7 -37 -6 -4 -8 -11 -5 -16 4 -5 1 -9 -4 -9 -6 0 -11 -7 -11 -15 0 -8 -4 -15
-10 -15 -5 0 -10 7 -10 16 0 8 -4 13 -9 10 -5 -4 -3 -19 6 -37 8 -16 16 -37
17 -46 2 -10 19 -25 39 -36 34 -17 36 -21 32 -56 -4 -30 1 -45 25 -78 27 -37
33 -40 67 -36 25 2 43 11 53 25 8 12 28 36 44 52 28 28 28 32 22 100 -10 114
-28 196 -40 189 -6 -4 -4 2 4 12 12 15 12 17 1 10 -11 -6 -13 -4 -8 9 6 14 3
15 -13 6 -11 -6 -25 -8 -30 -5 -14 9 -12 33 4 42 16 9 56 86 56 107 0 8 6 17
13 19 9 4 9 6 -1 6 -23 2 -2 21 23 21 33 0 61 -38 128 -170 54 -108 58 -123
75 -245 10 -71 16 -143 12 -160 -3 -16 -3 -70 0 -120 3 -49 1 -117 -4 -151 -8
-55 -6 -66 20 -125 25 -57 45 -89 87 -139 24 -29 36 -61 48 -136 11 -66 11
-79 -2 -102 -13 -23 -21 -27 -55 -24 -21 1 -52 -3 -69 -10 -16 -7 -34 -13 -40
-14 -5 0 -16 -2 -22 -2 -53 -7 56 -77 140 -91 90 -15 143 -37 167 -69 18 -22
19 -35 14 -101 -4 -59 -2 -80 9 -96 14 -18 15 -18 25 16 5 20 7 58 5 85 -4 39
-1 54 14 73 26 31 66 23 82 -17 14 -33 -6 -169 -35 -237 -22 -53 -13 -141 27
-262 25 -74 35 -93 50 -93 10 0 19 5 19 10 0 6 8 10 18 10 18 0 34 -32 47 -97
5 -25 0 -43 -21 -78 -22 -38 -25 -50 -16 -68 22 -46 32 -92 32 -146 1 -31 8
-74 16 -96 9 -22 18 -52 21 -67 3 -16 9 -28 14 -28 5 0 8 -3 8 -7 -3 -19 2
-33 11 -33 6 0 10 11 10 25 0 15 7 39 15 55 31 60 51 32 75 -108 19 -110 41
-168 88 -231 38 -51 62 -124 62 -190 0 -46 8 -75 34 -132 18 -41 46 -104 61
-140 15 -37 42 -83 59 -104 18 -21 41 -61 51 -89 10 -28 30 -67 46 -87 15 -20
33 -59 40 -85 17 -71 35 -102 116 -209 40 -52 62 -87 78 -125 10 -25 31 -58
46 -75 19 -20 32 -51 41 -94 12 -62 15 -66 100 -145 93 -85 132 -106 211 -111
55 -4 102 -30 146 -81 27 -30 31 -42 31 -93 0 -55 2 -60 61 -134 78 -98 108
-110 158 -60 23 22 44 33 63 33 32 0 39 -13 64 -115 8 -33 18 -67 21 -75 4 -8
7 -18 7 -21 1 -3 25 -43 55 -89 56 -86 80 -138 81 -178 0 -31 13 -53 54 -96
18 -20 39 -50 46 -66 7 -17 16 -30 21 -30 13 0 39 -56 48 -105 7 -38 5 -49
-11 -70 -11 -14 -33 -32 -49 -40 -45 -24 -39 -56 16 -80 40 -17 124 -93 125
-113 1 -14 47 -40 76 -43 43 -4 68 7 87 41 14 23 25 30 48 30 21 0 29 -5 29
-17 0 -13 2 -15 8 -5 7 9 13 8 26 -7 10 -11 23 -18 30 -15 6 2 38 -11 70 -31
32 -19 66 -35 75 -35 9 0 24 -9 33 -19 13 -16 14 -23 4 -36 -9 -13 -22 -15
-56 -12 -70 9 -79 12 -111 40 -17 15 -35 27 -39 27 -4 0 -7 8 -6 18 1 21 -52
29 -84 12 -40 -22 -17 -119 37 -153 7 -4 13 -14 13 -20 0 -22 83 -95 116 -101
40 -9 149 -98 169 -139 37 -75 103 -85 125 -18 21 64 111 103 168 71 9 -5 37
-18 62 -28 31 -13 67 -42 113 -95 73 -81 89 -117 78 -169 -9 -39 2 -54 45 -61
16 -3 38 -9 49 -13 28 -11 113 -103 132 -142 14 -30 14 -34 -1 -51 -9 -10 -13
-22 -9 -26 5 -5 1 -4 -7 2 -13 10 -18 8 -27 -7 -13 -20 -5 -31 30 -43 10 -4
15 -11 12 -17 -9 -15 36 -12 82 4 23 8 46 11 54 6 7 -5 17 -6 21 -4 4 3 8 0 8
-6 0 -7 16 -26 36 -44 32 -28 34 -34 25 -59 -6 -15 -7 -27 -3 -27 4 0 1 -4 -6
-9 -12 -7 -11 -14 2 -39 18 -36 20 -46 6 -37 -6 4 -10 -5 -10 -19 0 -14 -4
-26 -9 -26 -9 0 -27 -76 -23 -92 1 -5 -2 -8 -7 -8 -5 0 -11 9 -14 21 -3 12
-10 18 -16 15 -5 -4 -13 0 -18 8 -4 7 -17 16 -28 18 -11 2 -19 9 -18 15 4 18
-23 22 -51 8 -15 -8 -24 -10 -21 -5 9 15 -10 12 -44 -7 -27 -16 -33 -16 -41
-3 -5 8 -20 15 -33 15 -26 1 -70 28 -62 38 3 4 -1 2 -8 -4 -9 -9 -9 -12 1 -16
26 -10 10 -21 -37 -25 -27 -1 -47 0 -45 3 2 4 -5 14 -16 24 -11 10 -20 14 -20
8 0 -5 -7 -10 -15 -11 -8 -1 -22 -3 -30 -4 -8 -1 -15 -10 -15 -20 0 -15 -8
-18 -47 -18 -27 0 -55 5 -63 10 -12 8 -10 10 11 10 14 0 34 7 45 16 10 8 13
13 6 9 -7 -4 -28 3 -47 15 -19 12 -35 17 -35 11 0 -6 -5 -11 -11 -11 -6 0 -9
9 -6 19 5 19 -10 31 -36 31 -8 0 -7 -3 2 -9 10 -7 10 -10 1 -16 -7 -4 -16 -2
-20 5 -11 17 -47 4 -53 -20 -8 -31 -35 -26 -29 5 5 28 -9 33 -28 10 -7 -9 -20
-13 -28 -10 -9 3 -19 0 -24 -7 -6 -9 -7 -5 -3 10 5 16 2 22 -9 22 -9 0 -16 -4
-16 -9 0 -15 -51 -20 -57 -5 -3 8 -9 11 -14 8 -5 -3 -9 3 -9 14 0 29 -32 52
-73 52 -21 0 -43 7 -53 18 -18 17 -22 19 -60 21 -12 0 -38 15 -59 31 -26 21
-41 27 -45 19 -6 -8 -9 -8 -14 0 -4 6 -20 11 -35 11 -17 0 -38 11 -56 30 -16
16 -35 30 -42 30 -7 0 -18 9 -25 20 -7 11 -20 20 -30 20 -9 0 -20 9 -23 20 -3
11 -11 20 -16 20 -5 0 -9 6 -9 13 -1 18 -47 67 -65 67 -8 0 -15 4 -15 9 0 5
-12 8 -26 6 -31 -3 -54 17 -74 65 -14 34 -54 103 -119 202 -17 26 -31 52 -31
58 0 5 -4 10 -9 10 -26 0 -84 179 -137 425 -14 65 -30 127 -36 138 -17 32 -36
110 -43 177 -9 79 -20 110 -39 110 -19 0 -46 -87 -46 -149 -1 -25 -7 -57 -15
-71 -19 -33 -19 -84 1 -151 14 -46 14 -63 4 -119 -10 -55 -10 -75 3 -125 10
-40 13 -84 10 -131 -4 -46 -1 -85 8 -110 7 -23 12 -78 11 -134 -1 -58 5 -114
13 -144 8 -27 15 -80 15 -117 0 -75 21 -210 50 -314 10 -38 28 -125 40 -191
15 -90 30 -143 59 -205 21 -46 53 -133 71 -194 17 -60 46 -146 65 -190 85
-206 126 -345 146 -504 13 -104 36 -177 122 -381 115 -275 137 -321 190 -409
29 -47 70 -126 91 -176 21 -49 54 -116 72 -148 19 -32 42 -84 53 -116 14 -42
38 -82 86 -138 36 -43 73 -91 82 -108 17 -33 116 -175 148 -214 11 -14 35 -41
52 -61 18 -20 46 -69 62 -109 17 -41 46 -90 69 -114 94 -100 142 -146 170
-162 20 -12 34 -32 42 -58 15 -49 60 -116 143 -210 71 -81 113 -143 123 -181
10 -41 31 -51 98 -48 85 4 99 -8 97 -82 -1 -59 11 -96 31 -96 6 0 34 -17 62
-38 28 -21 68 -50 88 -65 41 -30 164 -189 197 -254 30 -59 232 -259 347 -341
46 -33 122 -117 162 -178 15 -23 51 -57 80 -75 61 -39 156 -143 177 -193 8
-18 54 -74 103 -122 61 -62 100 -112 128 -164 37 -68 115 -181 153 -220 19
-19 41 -74 41 -101 0 -13 22 -54 49 -93 64 -93 97 -161 106 -216 4 -25 25 -79
46 -120 22 -41 55 -128 75 -192 42 -140 49 -144 119 -65 60 66 90 113 106 166
7 25 24 50 41 62 36 26 36 56 1 70 -14 5 -33 7 -41 4 -22 -8 -57 19 -93 72
-18 27 -61 81 -95 122 -93 108 -112 192 -58 254 43 49 12 155 -66 220 -33 28
-59 34 -76 17 -6 -6 -25 -14 -42 -19 -31 -9 -32 -9 -37 27 -13 82 -13 83 2 78
8 -3 11 -1 8 4 -11 17 -35 11 -35 -9 0 -37 -10 -50 -38 -45 -45 9 -70 67 -38
93 15 13 46 5 46 -12 0 -6 3 -7 6 -4 4 4 1 13 -6 22 -10 12 -10 15 0 15 7 0 1
11 -14 25 -15 14 -24 30 -21 36 4 6 -3 13 -15 16 -19 5 -21 12 -20 52 3 64 2
71 -14 71 -7 0 -16 10 -19 23 -3 12 -10 39 -15 60 -6 21 -6 37 -1 37 5 0 9 5
9 10 0 6 -9 10 -19 10 -20 0 -37 42 -25 62 4 6 3 8 -3 5 -6 -4 -13 0 -16 8 -4
8 2 16 14 20 23 8 25 23 3 32 -13 5 -10 9 12 19 17 7 22 13 13 13 -9 1 -20 8
-23 17 -4 10 -14 14 -26 11 -11 -3 -20 -1 -20 4 0 5 9 9 20 9 11 0 20 5 20 11
0 5 -4 8 -9 4 -5 -3 -15 1 -23 8 -7 8 -19 12 -26 9 -7 -2 -10 2 -7 11 3 7 -7
28 -24 45 -21 23 -25 32 -14 32 11 0 8 7 -11 25 -26 24 -35 55 -15 55 5 0 8
-4 5 -8 -2 -4 0 -14 5 -22 7 -11 9 6 6 53 -3 37 -7 70 -10 73 -2 3 -26 0 -52
-7 -37 -9 -49 -9 -55 0 -11 18 1 103 17 119 7 7 13 18 13 23 0 6 5 7 10 4 7
-5 10 26 8 92 l-3 98 -35 -3 c-30 -4 -33 -2 -21 12 12 14 11 19 -4 36 -9 10
-14 23 -11 29 4 5 2 12 -4 16 -5 3 -10 15 -10 25 0 10 -4 20 -10 22 -5 1 -11
22 -12 46 -2 30 -7 41 -16 37 -7 -3 -10 0 -7 5 3 6 1 10 -5 10 -7 0 -9 8 -5
19 5 17 -1 20 -47 26 -87 9 -199 11 -204 3 -6 -10 -54 -6 -54 4 0 4 -6 8 -14
8 -7 0 -16 8 -18 18 -4 13 -16 19 -44 21 -21 1 -54 4 -73 5 -20 2 -40 11 -47
22 -7 10 -17 24 -22 29 -5 6 -7 15 -5 22 2 6 -10 24 -27 41 -30 31 -31 31 -71
16 -48 -16 -99 -19 -99 -4 0 6 -9 10 -21 10 -15 0 -19 4 -15 16 5 14 -16 48
-25 39 -2 -2 -2 18 -1 43 3 30 12 55 25 70 11 12 16 22 11 22 -5 0 4 7 20 15
15 8 31 13 35 10 9 -5 10 2 17 82 5 52 9 63 27 69 12 4 28 13 35 21 12 11 17
12 22 2 5 -6 15 -9 24 -6 9 4 18 5 20 4 2 -1 13 6 25 17 14 13 34 18 68 18 59
-2 103 -11 103 -22 0 -5 8 -11 18 -13 16 -4 16 -5 0 -6 -19 -1 -25 -21 -7 -21
16 0 39 -26 39 -44 0 -9 -4 -16 -10 -16 -5 0 -10 -4 -10 -10 0 -5 7 -10 15
-10 8 0 15 -4 15 -10 0 -5 7 -10 15 -10 8 0 15 -9 15 -20 0 -12 7 -20 16 -20
11 0 14 -5 10 -16 -6 -15 -4 -15 11 -3 9 8 14 9 10 3 -8 -14 18 -38 33 -29 5
3 10 2 10 -2 0 -5 30 -8 68 -8 37 0 74 -3 82 -6 8 -3 12 -4 8 -2 -4 3 -2 15 4
29 8 17 8 31 0 48 -14 30 -8 36 39 36 23 0 39 -5 43 -15 3 -9 18 -15 36 -15
16 0 30 -4 30 -10 0 -5 9 -10 21 -10 11 0 17 5 14 10 -3 6 3 10 15 10 12 0 18
-5 15 -10 -9 -15 5 -51 17 -44 6 4 17 -1 24 -10 7 -10 18 -15 24 -11 6 4 56 7
110 7 55 0 98 4 95 8 -3 4 2 11 11 14 23 9 24 8 25 -16 l0 -23 11 22 c9 19 33
33 66 37 7 0 17 8 22 16 7 11 26 14 87 11 44 -2 81 -8 85 -14 6 -9 8 -8 8 1 0
9 5 10 19 2 14 -7 21 -6 24 3 4 8 6 7 6 -3 1 -10 12 -15 31 -16 16 -1 27 3 23
8 -3 6 4 5 16 -2 13 -6 35 -8 52 -5 24 6 29 10 23 27 -5 18 -3 20 21 16 18 -4
28 -1 32 9 3 8 11 12 18 9 8 -3 16 2 19 10 3 8 12 14 20 14 7 0 21 11 30 25
12 19 23 24 37 20 10 -4 19 -2 19 3 0 5 18 8 41 7 26 -1 42 2 46 11 2 7 13 11
24 9 10 -2 25 3 33 11 8 8 28 14 45 14 17 0 31 5 31 10 0 6 7 10 16 10 8 0 12
5 9 10 -3 6 3 10 14 10 27 0 51 26 51 56 0 14 5 23 13 21 7 -1 11 6 9 19 -2
16 5 26 28 35 16 8 30 17 30 21 0 5 9 8 20 8 11 0 20 5 20 11 0 5 4 8 8 5 10
-6 10 35 -1 50 -10 17 20 27 71 25 35 -2 42 1 42 16 0 12 3 14 8 6 4 -7 16
-12 27 -11 11 1 35 -2 54 -6 21 -5 31 -5 27 2 -3 5 1 15 9 22 8 7 15 19 15 26
0 8 9 14 20 14 27 0 27 40 0 47 -15 4 -19 11 -15 24 4 11 3 19 -2 19 -5 0 -10
12 -11 27 -1 16 -7 30 -12 31 -6 2 -7 8 -4 14 5 7 -2 9 -20 4 -33 -8 -76 2
-76 18 0 7 10 12 22 12 13 -1 23 6 25 14 12 89 11 87 53 94 22 3 58 3 79 0 35
-6 39 -9 43 -40 2 -19 0 -34 -4 -34 -5 0 -3 -9 4 -19 7 -11 17 -19 22 -18 6 1
10 -8 8 -20 -3 -21 1 -23 38 -23 26 0 48 -6 58 -17 17 -17 19 -21 21 -60 1
-16 10 -25 38 -32 20 -6 41 -7 46 -4 6 4 8 0 4 -10 -4 -10 -2 -16 6 -14 8 1
13 -14 15 -42 3 -33 8 -44 23 -48 10 -3 22 -15 25 -27 4 -17 12 -21 42 -21 25
0 36 -4 34 -13 -2 -10 4 -11 19 -7 19 6 21 4 16 -14 -3 -11 -1 -21 5 -21 5 0
6 -4 3 -10 -3 -5 3 -10 14 -10 27 0 28 -30 2 -37 -25 -6 -34 -29 -21 -53 6
-10 10 -39 10 -64 0 -40 3 -46 21 -46 12 0 23 -8 26 -20 4 -16 14 -20 43 -20
21 0 40 -4 42 -10 2 -6 8 -6 18 0 13 9 13 11 0 20 -12 8 -11 10 8 10 12 0 22
6 22 13 0 9 2 9 9 -1 12 -20 156 -12 156 8 0 8 7 21 15 28 8 8 10 11 3 8 -6
-4 -14 -2 -17 3 -3 5 7 7 23 6 24 -2 31 2 36 22 6 24 27 53 38 53 3 0 3 -10 0
-22 -5 -21 -2 -20 26 9 19 19 30 37 25 44 -4 7 -2 10 6 7 15 -5 60 33 60 51 0
6 5 11 10 11 6 0 10 -4 10 -10 0 -5 4 -10 9 -10 5 0 9 10 9 23 0 43 8 96 15
103 4 4 7 2 7 -4 0 -9 7 -9 28 0 37 16 36 16 22 33 -10 12 -10 15 3 15 8 0 20
7 27 15 22 26 45 18 45 -15 0 -23 -5 -30 -19 -30 -18 0 -18 -1 -2 -19 10 -11
15 -24 12 -29 -3 -6 9 -10 29 -10 19 0 35 5 35 10 0 6 7 8 15 4 9 -3 31 2 50
11 36 17 46 33 20 33 -8 0 -15 5 -15 11 0 5 4 7 10 4 6 -3 7 1 4 9 -3 9 -2 16
4 16 16 0 23 31 11 46 -17 21 -7 47 19 49 16 1 27 -6 34 -21 6 -13 15 -21 19
-18 5 3 9 0 9 -5 0 -6 8 -11 18 -11 11 0 13 3 5 8 -6 4 -11 29 -11 55 0 26 -5
53 -10 60 -15 19 -12 66 4 60 8 -3 14 -18 14 -34 0 -24 4 -29 25 -29 14 0 25
-4 25 -10 0 -5 9 -10 20 -10 11 0 20 5 20 10 0 6 22 10 49 10 l50 0 -3 -45
c-2 -43 -1 -45 24 -45 31 0 64 -25 74 -57 4 -13 12 -23 18 -23 6 0 8 -8 5 -19
-3 -15 0 -17 17 -13 11 3 31 12 43 20 13 8 29 12 37 9 8 -3 27 -2 43 3 23 7
24 8 7 9 -12 1 -25 8 -28 17 -8 21 -9 20 42 27 32 4 45 2 49 -9 3 -8 11 -14
19 -14 8 0 14 -4 14 -10 0 -5 7 -10 15 -10 24 0 65 -22 65 -36 0 -18 -24 -23
-44 -8 -16 11 -22 10 -44 -11 -14 -13 -39 -29 -54 -36 -15 -6 -28 -15 -28 -19
0 -4 -15 -13 -32 -21 -43 -16 -43 -16 -29 -33 9 -11 9 -16 0 -22 -8 -4 -9 -3
-5 4 10 17 -9 15 -24 -3 -7 -9 -9 -22 -5 -32 5 -10 8 -27 9 -38 0 -11 8 -23
19 -27 10 -4 16 -12 13 -17 -3 -4 3 -16 14 -26 21 -19 27 -55 10 -55 -5 0 -7
-13 -3 -30 5 -27 3 -30 -21 -30 -31 0 -55 -20 -61 -50 -6 -31 -32 -51 -71 -55
-19 -2 -53 -15 -75 -30 -42 -28 -98 -84 -99 -99 0 -18 -34 -34 -55 -26 -32 12
-74 0 -81 -23 -4 -12 -2 -23 5 -25 6 -2 8 -9 5 -15 -5 -8 -2 -8 7 0 20 20 51
16 47 -4 -4 -20 -68 -32 -68 -14 0 20 -29 11 -46 -13 -8 -14 -28 -28 -44 -31
-29 -6 -33 -15 -44 -90 -2 -12 -23 -32 -53 -50 -27 -16 -55 -42 -62 -57 -7
-15 -21 -30 -32 -33 -11 -4 -31 -24 -44 -45 -15 -24 -36 -42 -58 -49 -19 -7
-52 -31 -74 -54 -22 -23 -65 -65 -95 -93 -31 -28 -63 -67 -73 -87 -9 -21 -21
-37 -26 -37 -5 0 -9 -6 -9 -13 0 -7 -12 -25 -26 -40 -27 -30 -28 -50 -1 -22 9
8 20 15 24 15 13 0 63 54 63 68 0 7 4 12 8 12 5 0 29 20 53 45 24 25 69 62 99
83 30 20 68 49 84 63 16 15 47 37 68 50 45 28 80 54 210 160 51 42 107 83 123
92 17 8 39 25 50 37 11 12 49 39 85 60 36 22 106 79 155 127 66 65 114 102
178 137 49 26 127 79 175 118 48 38 110 85 139 104 29 19 55 39 58 44 3 5 47
34 98 64 91 54 100 64 192 191 12 17 32 48 44 70 24 45 31 56 83 139 21 32 38
66 38 76 0 22 61 140 101 195 56 76 96 141 104 165 4 14 20 50 36 80 15 30 37
92 48 136 12 45 35 113 52 150 46 102 59 227 47 446 -13 241 -14 231 22 283
23 34 37 71 51 141 10 53 21 100 24 105 17 26 78 367 91 509 12 132 24 193 56
305 75 258 81 299 68 465 -6 80 -9 159 -6 175 10 51 -14 356 -34 440 -23 98
-40 218 -40 291 0 45 3 54 18 54 23 0 52 49 52 89 0 17 -13 71 -30 121 -26 78
-30 105 -30 199 0 80 -4 112 -14 120 -8 6 -28 53 -46 104 -18 51 -41 101 -50
112 -54 65 -92 169 -83 230 6 50 -7 63 -39 41 -60 -42 -92 1 -95 124 -1 47 -2
88 -2 92 -1 4 -19 13 -42 19 -51 16 -79 51 -79 98 0 26 -9 47 -31 74 -17 20
-35 37 -41 37 -5 0 -20 8 -33 18 -21 17 -23 27 -23 99 0 82 -7 123 -21 123
-29 0 -102 -36 -116 -56 -13 -20 -19 -23 -31 -13 -16 13 -18 41 -5 54 6 6 4
23 -5 45 -36 82 -38 85 -81 91 -53 7 -70 21 -101 87 -14 30 -31 56 -39 59 -7
3 -13 20 -13 39 0 25 -7 38 -25 50 -16 10 -26 29 -30 52 -3 21 -10 62 -15 92
-5 30 -12 125 -16 210 -3 85 -9 211 -13 280 -4 69 -3 148 1 175 3 28 7 84 7
126 1 42 10 109 20 150 10 41 21 97 24 124 6 66 27 112 70 157 44 46 62 80 71
136 3 24 11 51 16 60 8 15 46 168 65 257 13 66 39 140 52 148 7 4 13 17 13 27
0 10 5 22 10 25 17 10 12 75 -5 75 -23 0 -50 37 -51 70 0 17 3 30 8 30 4 0 8
6 8 13 0 6 11 22 24 34 20 19 24 35 29 120 3 54 11 112 17 130 9 25 9 41 -2
70 -9 27 -12 86 -10 206 3 160 5 175 39 290 20 67 42 151 50 187 10 51 30 360
33 518 0 13 13 37 29 53 38 38 75 38 224 -1 198 -51 392 -37 499 36 59 40 188
168 188 186 0 8 18 50 40 93 50 97 73 205 63 289 -4 33 -6 66 -4 71 2 6 4 18
6 27 2 10 10 29 17 42 7 13 23 42 36 65 28 52 109 179 161 253 33 46 131 267
131 293 0 3 10 27 22 53 31 69 89 268 98 337 4 34 13 72 20 85 31 57 134 490
174 730 1 8 8 40 14 70 34 162 37 438 7 595 -8 39 -17 102 -20 140 -4 39 -15
117 -25 175 -11 58 -24 130 -30 161 -11 62 -83 223 -135 305 -37 57 -114 117
-222 170 -69 34 -79 36 -212 43 -115 6 -145 11 -161 26 -26 24 -26 69 2 114
24 38 68 139 68 156 0 21 52 121 75 145 13 14 31 41 39 60 22 53 62 348 105
770 11 109 24 140 86 205 25 25 45 49 45 52 0 4 6 14 14 22 7 9 21 50 30 91
30 127 37 154 57 196 10 23 24 64 30 90 6 27 15 58 20 69 4 11 10 40 14 65 3
25 10 77 16 115 5 39 7 106 4 150 -6 80 -6 80 40 177 53 111 81 149 139 185
56 35 86 65 86 85 0 25 35 102 54 117 29 24 39 52 46 130 10 102 43 125 149
103 46 -10 58 -9 70 2 19 20 16 70 -7 110 -11 18 -25 50 -32 71 -7 20 -25 59
-42 84 -54 88 -46 144 23 158 15 3 37 16 49 28 22 23 22 24 4 48 -11 15 -34
28 -54 32 -49 9 -80 41 -80 81 0 27 9 40 61 83 64 53 69 55 181 52 26 -1 59
-6 74 -11 33 -13 51 5 30 30 -7 8 -19 34 -26 58 -16 51 -51 88 -90 97 -15 3
-36 15 -46 26 -30 33 -6 65 63 85 32 9 67 24 78 33 21 17 33 61 17 61 -5 0
-16 15 -23 33 -18 42 -19 57 -6 57 5 0 8 3 4 6 -3 4 2 23 13 43 35 65 35 65
63 47 19 -13 33 -15 57 -9 28 7 33 14 36 43 6 61 14 80 48 118 18 20 49 62 69
92 20 30 49 63 63 74 26 18 26 18 46 -2 17 -17 19 -24 9 -53 -6 -19 -16 -53
-22 -77 -5 -24 -15 -45 -22 -47 -7 -2 -24 -6 -39 -9 -19 -4 -33 -19 -49 -53
-13 -27 -23 -51 -21 -55 1 -5 -3 -8 -9 -8 -5 0 -7 -4 -4 -10 11 -18 70 -11
101 13 16 12 52 47 81 77 52 56 80 122 68 159 -3 10 -7 79 -10 152 -4 167 -37
299 -121 496 -8 17 -14 35 -14 40 0 4 -20 31 -44 59 -25 28 -64 87 -86 130
-44 84 -52 91 -115 112 -79 27 -99 59 -126 200 -8 43 -19 69 -36 85 -56 50
-74 74 -87 112 -46 133 -45 167 7 255 45 74 54 118 34 157 -9 17 -16 56 -16
94 0 46 -8 87 -29 144 -25 68 -36 84 -73 110 -37 27 -45 40 -64 100 -12 39
-30 84 -40 100 -29 47 -209 222 -236 230 -13 4 -66 24 -117 46 -51 21 -100 39
-109 39 -17 0 -36 5 -133 35 -60 19 -136 63 -166 96 -10 12 -41 36 -69 55 -71
48 -140 114 -159 150 -28 56 -99 125 -135 129 -51 7 -179 58 -212 85 -22 18
-32 36 -36 66 -5 37 -2 44 20 58 13 9 45 17 71 18 73 1 76 19 17 79 -54 55
-64 82 -65 179 0 55 11 147 20 162 7 12 -15 291 -31 383 -23 140 -105 285
-159 281 -21 -1 -23 -5 -24 -54 0 -30 2 -51 5 -48 8 8 32 -26 33 -46 0 -9 5
-18 10 -20 15 -5 42 -146 38 -200 -3 -38 -12 -56 -46 -97 -23 -27 -42 -59 -42
-70 0 -12 -4 -21 -9 -21 -5 0 -12 -8 -16 -18 -7 -24 -46 -42 -90 -42 -19 0
-35 -4 -35 -10 0 -5 6 -10 14 -10 7 0 19 -6 25 -13 14 -17 -22 -59 -44 -51 -8
4 -13 10 -10 14 3 4 -2 11 -10 14 -29 11 -75 -7 -105 -40 -29 -33 -60 -45 -60
-23 0 6 -6 9 -13 6 -8 -3 -26 8 -41 24 -24 25 -55 35 -88 30 -5 0 -8 3 -8 9 0
5 -7 7 -16 3 -9 -3 -19 -2 -23 3 -3 5 -15 14 -26 20 -16 9 -20 22 -19 57 0 24
7 52 15 60 31 34 39 47 39 57 0 5 7 10 15 10 8 0 15 4 15 10 0 5 12 13 26 16
19 5 22 9 12 15 -9 6 -5 9 14 9 18 0 29 7 33 20 4 11 10 18 15 15 5 -3 11 4
15 15 5 15 15 20 41 20 19 0 34 4 34 9 0 5 9 13 20 16 11 3 20 12 20 20 0 8
10 17 23 21 12 3 29 13 38 21 9 8 29 15 43 16 29 2 30 4 20 31 -4 11 -2 21 6
26 10 6 9 9 -1 12 -24 8 -49 -4 -49 -22 0 -12 -8 -18 -22 -19 -55 -3 -78 -6
-78 -13 0 -4 -9 -9 -19 -13 -10 -3 -21 -15 -24 -26 -3 -12 -10 -18 -17 -14
-15 9 -62 -3 -56 -14 3 -5 -16 -9 -42 -10 -72 -1 -80 -3 -75 -17 2 -7 -12 -20
-34 -30 -49 -23 -50 -23 -33 -34 13 -8 12 -10 -3 -10 -19 0 -50 -24 -41 -33 3
-2 -8 -8 -23 -11 -28 -7 -38 -15 -149 -126 -68 -69 -77 -68 -88 13 -4 26 -12
47 -17 47 -6 0 -7 5 -3 11 4 7 7 43 7 80 0 38 4 69 8 69 12 0 11 37 -1 45 -6
3 -19 24 -29 46 -15 31 -17 47 -10 72 12 41 11 50 -1 42 -6 -3 -10 5 -10 18 0
30 -43 62 -68 51 -9 -4 -26 -6 -37 -5 l-20 2 20 -13 c18 -11 16 -13 -25 -23
-38 -10 -45 -15 -45 -36 0 -14 -8 -33 -17 -43 -16 -16 -16 -20 -3 -46 24 -47
19 -57 -30 -63 -68 -10 -89 7 -62 51 5 6 5 17 2 22 -3 6 -2 10 2 10 14 0 9 64
-6 76 -12 9 -12 17 0 55 8 24 20 43 26 42 6 -1 14 4 17 12 3 9 0 12 -10 8 -12
-4 -14 0 -9 20 4 14 2 28 -4 31 -6 4 -11 16 -11 27 0 11 -7 19 -16 19 -8 0
-13 4 -10 8 2 4 -7 9 -22 10 -15 1 -33 10 -39 19 -7 9 -13 13 -13 7 0 -5 -6
-1 -14 8 -15 20 -64 41 -77 32 -5 -3 -9 0 -9 6 0 7 -7 7 -22 -1 -13 -7 -25
-11 -28 -10 -2 1 -6 -2 -8 -8 -2 -6 1 -11 6 -11 9 0 25 -37 23 -53 -1 -5 9 -7
21 -5 15 2 22 -2 20 -10 -1 -7 5 -27 14 -44 29 -56 34 -86 17 -103 -8 -9 -13
-19 -10 -22 4 -3 -5 -15 -19 -26 -23 -18 -30 -19 -61 -8 -27 10 -37 10 -50 0
-13 -12 -21 -7 -54 31 -22 25 -39 53 -39 63 0 9 -4 17 -8 17 -8 0 -35 64 -37
85 -1 23 -17 55 -25 50 -11 -7 -27 15 -35 46 -5 22 -2 27 17 33 39 10 57 7 83
-16 19 -16 39 -22 75 -22 28 -1 50 3 50 8 0 5 8 15 18 22 15 12 15 13 1 14 -9
0 -24 11 -33 24 -12 19 -28 26 -73 31 -32 4 -63 12 -70 17 -6 5 -17 8 -25 7
-26 -3 -39 1 -33 11 3 6 -4 11 -17 12 -37 2 -41 3 -78 20 -47 20 -188 68 -222
75 -16 3 -28 8 -28 12 0 3 -16 7 -36 9 -24 1 -49 13 -71 32 -19 17 -38 28 -44
25 -5 -4 -9 -1 -9 5 0 7 -7 10 -15 6 -17 -6 -65 13 -65 26 0 4 -6 8 -13 8 -7
0 -20 10 -29 23 -10 12 -40 47 -68 77 -27 30 -50 59 -50 65 0 5 -14 24 -30 42
-17 18 -30 36 -30 40 0 11 -128 136 -210 204 -36 29 -67 56 -70 59 -9 9 -134
74 -211 109 -44 21 -57 21 -617 21 -315 0 -572 -4 -572 -8z m805 -134 c50 -8
147 -41 263 -89 13 -5 34 -9 49 -9 30 0 139 -56 147 -76 3 -7 27 -25 53 -39
26 -14 55 -29 63 -34 8 -4 27 -14 42 -22 54 -28 155 -128 177 -175 33 -70 35
-69 -186 -93 -45 -5 -86 -12 -92 -15 -5 -3 -56 -11 -113 -16 -120 -12 -129
-13 -228 -35 -71 -16 -94 -16 -211 1 -26 4 -39 1 -50 -12 -11 -15 -12 -16 0
-9 10 5 12 4 7 -3 -4 -7 -15 -12 -25 -12 -10 0 -24 -7 -31 -15 -27 -33 -107
-3 -116 43 -3 16 -15 32 -27 37 -12 6 -23 18 -25 28 -3 15 0 18 17 12 23 -7
28 4 9 24 -11 10 -10 12 2 9 8 -2 21 -9 28 -15 15 -15 52 -17 52 -4 0 5 -7 14
-15 21 -9 7 -14 18 -12 24 9 25 -14 44 -60 51 -26 3 -59 13 -72 22 -44 28
-154 83 -167 83 -7 0 -14 3 -16 8 -6 13 -67 52 -83 52 -8 0 -15 5 -15 11 0 5
-4 7 -10 4 -5 -3 -10 -2 -10 3 0 6 -11 13 -25 16 -16 4 -25 13 -25 26 0 11 -4
20 -10 20 -5 0 -10 -7 -10 -16 0 -8 -5 -12 -10 -9 -11 7 -3 53 13 72 5 7 13
11 17 8 4 -3 10 1 13 9 3 7 22 16 41 20 20 4 36 11 36 17 0 6 5 7 10 4 6 -3
16 -3 22 1 15 10 23 11 114 23 39 5 91 15 115 22 24 6 55 13 69 15 14 2 41 7
60 13 44 12 146 11 225 -1z m-750 -148 c3 -5 1 -10 -4 -10 -6 0 -11 5 -11 10
0 6 2 10 4 10 3 0 8 -4 11 -10z m1322 -625 c-32 -28 -97 -35 -97 -11 0 18 43
34 90 35 l35 0 -28 -24z m335 -211 c-7 -58 -71 -89 -113 -55 -21 17 -22 19 -6
42 23 32 56 49 92 47 28 -2 30 -4 27 -34z m227 -106 c11 -29 -5 -36 -24 -12
-19 25 -18 34 0 34 9 0 19 -10 24 -22z m46 -70 c3 -13 1 -36 -3 -53 l-9 -30
-17 39 c-9 22 -14 46 -12 53 8 21 35 15 41 -9z m725 -79 c0 -22 -4 -38 -8 -35
-8 5 -4 76 4 76 2 0 4 -18 4 -41z m-107 -141 c17 -26 -7 -68 -37 -68 -31 0
-41 28 -24 64 13 30 44 32 61 4z m515 -14 c5 -9 13 -16 18 -16 17 -1 49 -44
48 -63 -1 -11 -2 -35 -3 -53 -1 -19 -9 -39 -21 -49 -11 -10 -20 -25 -20 -34 0
-17 -19 -29 -45 -29 -8 0 -31 16 -52 36 -39 37 -45 67 -19 89 7 5 21 32 31 58
9 27 23 51 31 54 8 3 11 9 8 14 -3 5 -1 9 5 9 5 0 14 -7 19 -16z m1200 -226
c18 -18 15 -50 -11 -99 -13 -24 -27 -59 -30 -77 -10 -50 -48 -81 -60 -49 -5
14 -2 57 9 116 6 34 58 121 72 121 5 0 13 -5 20 -12z m153 -834 c6 -8 16 -14
21 -14 5 0 32 -19 60 -42 165 -141 176 -159 111 -177 -21 -6 -51 -11 -68 -11
-16 0 -50 -5 -74 -11 -66 -15 -125 -13 -152 4 -17 11 -31 39 -48 93 -20 65
-22 81 -12 114 6 21 17 42 24 48 27 22 118 20 138 -4z m-258 -86 c10 -8 19
-32 22 -62 2 -27 7 -63 11 -81 7 -39 -15 -65 -56 -65 -44 0 -52 24 -40 117 13
95 16 103 33 103 7 0 21 -6 30 -12z m491 -440 c24 -26 41 -38 43 -30 3 6 10
12 17 12 7 0 21 9 31 20 18 19 18 19 51 -9 18 -16 47 -32 66 -36 86 -18 155
-50 201 -94 26 -25 47 -51 47 -58 0 -7 5 -13 10 -13 6 0 10 -4 10 -9 0 -23 74
-119 112 -147 38 -27 43 -36 46 -75 4 -57 29 -90 71 -94 43 -3 75 -35 100
-102 26 -67 26 -85 3 -143 -30 -76 -38 -85 -110 -114 -82 -33 -140 -35 -179
-7 -26 18 -105 39 -178 47 -67 7 -151 26 -171 39 -13 8 -29 38 -40 76 -24 79
-48 98 -98 74 -19 -9 -46 -34 -60 -56 -36 -54 -50 -53 -160 19 -27 17 -66 35
-85 38 -47 9 -58 18 -87 76 -29 58 -31 99 -3 123 19 18 21 18 52 2 37 -20 113
-15 137 9 13 13 11 17 -15 39 -17 13 -37 22 -45 20 -64 -17 -69 -17 -93 9 -27
28 -37 80 -37 181 0 56 3 67 29 94 16 17 34 31 40 31 6 0 29 -16 50 -36 26
-22 53 -37 78 -40 82 -12 101 -37 107 -142 4 -56 1 -65 -26 -99 -16 -21 -34
-41 -40 -44 -6 -4 2 -18 19 -33 17 -15 38 -45 48 -67 10 -21 22 -39 28 -39 5
0 23 11 39 25 26 22 36 25 78 19 30 -4 56 -2 71 6 41 22 52 50 20 50 -11 0
-23 5 -26 10 -4 6 -10 8 -14 6 -4 -3 -16 9 -26 27 -15 25 -20 56 -22 144 -3
135 -12 156 -67 173 -22 7 -51 16 -64 21 -13 5 -38 9 -57 9 -66 0 -81 75 -21
111 49 30 76 24 120 -23z m744 -55 c26 -30 52 -49 86 -61 54 -19 80 -42 137
-122 46 -65 52 -120 18 -164 -29 -37 -82 -36 -115 2 -115 132 -141 171 -148
219 -5 38 -14 57 -41 83 -23 22 -35 43 -35 61 0 53 46 45 98 -18z m317 -474
c10 -31 -3 -86 -23 -94 -41 -16 -66 79 -32 120 15 18 46 4 55 -26z m-266 -533
c10 -12 8 -19 -8 -35 -38 -38 -121 -40 -121 -3 0 39 103 70 129 38z m-5019
-4916 c7 0 19 8 26 18 12 16 14 16 31 0 17 -17 16 -18 -4 -18 -13 0 -24 -8
-28 -20 -9 -29 -42 -25 -59 9 -17 31 -9 52 10 27 6 -9 17 -16 24 -16z m-71 11
c11 -7 9 -14 -9 -39 -20 -27 -21 -34 -10 -66 6 -20 16 -36 21 -36 6 0 7 -5 4
-10 -3 -6 1 -13 9 -16 25 -10 18 -33 -11 -39 -16 -3 -40 -10 -56 -14 -18 -6
-25 -6 -21 1 4 7 -20 8 -72 3 -93 -9 -108 -15 -35 -15 32 0 50 -4 46 -10 -3
-5 -30 -10 -60 -10 -53 0 -82 -14 -48 -23 10 -3 1 -5 -19 -6 -21 0 -38 -5 -38
-10 0 -5 -16 -8 -35 -7 -19 2 -35 -1 -35 -6 0 -11 -51 -1 -60 11 -3 4 -25 8
-49 9 -47 1 -71 -14 -71 -46 0 -16 -5 -19 -22 -14 -14 3 -19 2 -14 -6 4 -7 1
-12 -6 -12 -9 0 -9 -3 2 -10 12 -8 12 -12 2 -18 -18 -12 -4 -42 19 -42 11 0
22 -7 26 -15 3 -9 18 -22 34 -31 30 -15 42 -51 13 -40 -8 3 -12 2 -9 -4 3 -6
-1 -10 -9 -10 -9 0 -16 -9 -16 -20 0 -16 -7 -20 -30 -20 -16 0 -30 -5 -30 -11
0 -6 -7 -17 -15 -25 -23 -24 -18 -44 11 -44 15 0 23 -4 18 -11 -7 -11 -91 -52
-110 -54 -6 0 -18 -6 -27 -13 -9 -8 -31 -12 -49 -11 -18 2 -39 0 -46 -5 -6 -4
-16 -5 -21 -1 -5 3 -11 -7 -13 -22 -2 -19 -12 -32 -30 -41 -16 -7 -28 -20 -28
-28 0 -7 -3 -13 -7 -12 -5 0 -15 -1 -23 -5 -20 -7 -99 -19 -127 -18 -13 0 -31
1 -40 1 -10 0 -28 0 -40 0 -13 0 -23 -5 -23 -10 0 -6 -10 -10 -23 -10 -13 0
-28 -5 -34 -11 -6 -6 -25 -13 -44 -16 -18 -2 -39 -12 -45 -21 -7 -10 -16 -14
-19 -10 -17 17 -87 -37 -92 -70 -1 -9 -9 -22 -17 -28 -9 -6 -16 -15 -16 -21 0
-5 -21 -22 -46 -38 -25 -16 -51 -36 -57 -44 -7 -9 -23 -18 -37 -20 -14 -1 -33
-7 -42 -12 -9 -5 -25 -9 -36 -9 -30 0 -95 -84 -76 -99 5 -3 11 -17 13 -31 1
-14 7 -32 11 -40 7 -14 13 -68 11 -97 -1 -6 -13 -25 -27 -42 -16 -20 -21 -31
-12 -31 11 0 10 -2 -1 -9 -7 -5 -10 -14 -7 -20 4 -6 4 -17 0 -23 -5 -7 -10
-22 -11 -33 -8 -47 -22 -432 -17 -455 16 -72 26 -100 38 -100 17 0 56 -55 56
-80 0 -11 6 -19 13 -18 8 2 12 -11 13 -39 1 -30 -3 -43 -13 -43 -7 0 -13 -11
-13 -25 0 -15 -7 -28 -17 -32 -10 -4 -22 -12 -26 -20 -4 -7 -17 -13 -27 -13
-19 0 -20 -8 -20 -105 0 -118 0 -121 17 -119 7 1 10 -2 7 -7 -3 -5 1 -9 8 -10
10 0 10 -2 1 -6 -13 -5 -7 -93 7 -103 26 -19 45 -129 40 -235 -3 -70 -1 -98 8
-104 11 -7 32 -179 32 -260 0 -34 4 -61 9 -61 13 0 21 -132 8 -155 -13 -26
-12 -194 2 -208 6 -6 11 -19 11 -29 0 -35 39 -88 64 -88 9 0 16 -7 16 -15 0
-9 8 -14 23 -12 14 1 21 -3 19 -11 -1 -8 2 -11 7 -7 17 10 81 -38 88 -65 8
-34 22 -50 43 -50 13 0 17 -6 13 -20 -3 -11 -11 -20 -19 -20 -10 0 -11 -6 -4
-26 11 -28 13 -61 4 -51 -10 10 -36 -22 -31 -37 6 -15 57 -28 57 -15 0 5 5 9
11 9 7 0 9 -9 6 -21 -4 -16 -3 -19 5 -11 15 15 72 -43 64 -64 -3 -8 -1 -14 4
-14 6 0 10 -6 10 -14 0 -8 9 -22 21 -30 12 -8 18 -19 14 -25 -3 -7 -3 -11 2
-10 4 1 16 -1 26 -6 9 -4 26 -5 37 -2 13 3 20 0 20 -9 0 -8 5 -14 10 -14 6 0
10 -9 10 -20 0 -11 7 -20 16 -20 9 0 12 5 8 13 -6 9 -4 9 7 1 8 -6 26 -14 42
-18 23 -5 25 -9 15 -20 -7 -8 -16 -12 -20 -9 -4 2 -5 -2 -3 -9 3 -7 22 -14 42
-15 21 -1 39 -7 41 -12 2 -6 21 -11 43 -11 23 0 39 -5 39 -12 0 -7 5 -5 13 4
15 20 83 28 80 10 -2 -6 8 -14 22 -18 14 -3 25 -10 25 -15 0 -5 19 -9 43 -9
58 0 87 -9 87 -28 0 -8 3 -12 7 -9 3 4 13 -2 20 -13 12 -17 12 -24 3 -35 -10
-12 -10 -15 0 -15 12 0 10 -24 -6 -64 -4 -10 -1 -16 8 -16 10 0 14 -12 14 -44
-1 -24 -3 -44 -6 -44 -28 2 -50 -5 -68 -22 -12 -12 -22 -17 -22 -13 0 4 -6 -1
-13 -11 -9 -13 -22 -16 -45 -13 -17 3 -32 1 -34 -4 -2 -6 -12 -10 -23 -10 -11
0 -48 1 -81 1 -48 0 -68 5 -90 22 -52 40 -66 61 -60 90 3 16 1 28 -4 28 -6 0
-8 12 -6 26 5 25 4 26 -14 9 -17 -16 -19 -15 -22 7 -3 20 -8 23 -41 20 -25 -2
-48 3 -70 17 -43 26 -94 19 -137 -20 -17 -16 -35 -29 -41 -29 -5 0 -8 -5 -6
-12 1 -7 -5 -13 -13 -13 -8 0 -14 -6 -13 -12 2 -7 -7 -15 -20 -19 -12 -4 -38
-20 -58 -35 -20 -16 -40 -29 -43 -29 -13 0 -46 -41 -52 -65 -3 -14 -20 -39
-36 -55 -16 -17 -27 -30 -24 -30 9 0 -22 -59 -51 -96 -21 -28 -59 -45 -108
-49 -21 -1 -73 -48 -68 -61 3 -8 0 -14 -6 -14 -6 0 -8 -7 -5 -15 4 -8 2 -15
-4 -15 -8 0 -19 -22 -26 -51 0 -3 -17 -19 -36 -35 -56 -46 -62 -54 -56 -69 8
-23 -41 -100 -84 -130 -52 -36 -53 -69 -1 -178 41 -87 47 -103 56 -153 12 -72
-98 -169 -210 -188 -54 -8 -119 -26 -155 -42 -29 -12 -44 -13 -80 -4 -84 22
-93 20 -161 -26 -35 -24 -70 -42 -76 -39 -7 2 -13 0 -13 -5 0 -15 -27 -12 -33
3 -6 17 -33 15 -67 -3 -43 -23 -140 -104 -140 -118 0 -7 -26 -25 -57 -39 -32
-14 -72 -38 -89 -53 -18 -15 -49 -31 -70 -35 -46 -8 -63 -27 -95 -100 -13 -30
-28 -55 -34 -55 -6 0 -5 -4 2 -8 6 -4 -46 -8 -117 -9 -70 -1 -140 -8 -156 -14
-43 -17 -94 -21 -109 -9 -17 14 -89 8 -250 -20 -117 -20 -140 -29 -140 -53 0
-6 -9 -13 -19 -15 -11 -2 -38 -15 -60 -28 -23 -14 -68 -38 -101 -54 -33 -16
-73 -42 -89 -59 -17 -17 -37 -31 -46 -31 -9 0 -25 -9 -35 -20 -10 -11 -26 -22
-36 -25 -12 -4 -27 -34 -45 -88 -33 -97 -28 -72 -38 -187 -14 -158 -11 -281 8
-318 9 -18 21 -32 26 -32 18 0 78 -137 79 -183 1 -9 5 -25 10 -35 26 -47 51
-137 52 -192 1 -35 12 -88 25 -123 13 -34 23 -58 23 -53 1 5 8 3 16 -4 8 -6
18 -9 24 -6 5 3 11 1 13 -5 6 -19 37 2 43 31 6 29 9 31 125 46 25 3 52 8 60
11 8 4 18 7 22 7 10 1 48 53 48 65 0 7 8 14 18 18 15 6 126 113 134 131 2 4
26 27 53 52 28 24 61 60 75 79 15 20 36 36 50 38 113 15 123 15 161 -2 29 -13
54 -16 100 -12 71 6 91 25 96 91 5 59 19 81 72 109 82 44 175 57 445 62 100 2
207 7 237 11 70 10 74 10 153 -27 13 -6 33 -8 44 -5 11 4 47 0 79 -8 70 -18
91 -19 333 -18 102 0 207 -1 235 -3 49 -3 101 14 117 39 11 16 103 22 211 12
57 -5 124 -4 162 1 57 8 69 7 100 -11 23 -13 34 -25 30 -35 -4 -11 -3 -12 10
-1 13 11 15 -1 13 -110 -2 -118 -3 -123 -34 -171 -17 -27 -34 -46 -37 -43 -3
3 -18 -6 -34 -20 -15 -14 -36 -26 -45 -26 -32 0 -67 -22 -78 -51 -13 -29 -63
-59 -102 -59 -25 0 -88 -35 -88 -49 0 -9 -38 -22 -73 -26 -11 -1 -22 -7 -26
-13 -3 -6 -20 -14 -36 -18 -17 -3 -49 -15 -71 -25 -29 -13 -77 -20 -155 -24
-63 -3 -132 -10 -153 -15 -22 -5 -43 -7 -47 -4 -4 2 -9 -6 -12 -17 -4 -13 -10
-18 -17 -14 -9 6 -9 10 1 16 18 11 -14 24 -38 15 -14 -6 -15 -9 -4 -15 20 -12
6 -27 -31 -36 -43 -10 -43 -10 -113 -36 -69 -25 -138 -31 -192 -17 -155 39
-383 53 -383 24 0 -8 -6 -17 -12 -19 -10 -4 -10 -7 0 -15 8 -6 13 -29 12 -63
-2 -60 2 -88 14 -107 4 -6 2 -12 -3 -12 -20 0 -6 -25 21 -36 14 -7 29 -23 34
-36 7 -25 34 -49 46 -42 4 2 26 -7 50 -21 24 -14 51 -28 61 -32 9 -3 17 -11
17 -18 0 -8 9 -17 20 -20 22 -7 26 -21 8 -27 -9 -3 -8 -9 4 -21 9 -10 14 -25
11 -37 -3 -11 0 -20 6 -20 6 0 10 -3 10 -7 -4 -25 3 -43 16 -43 17 0 34 -30
27 -49 -3 -8 0 -11 6 -7 6 4 20 -2 30 -12 31 -31 79 -42 182 -42 71 0 115 6
161 20 35 12 71 19 80 17 9 -3 23 -1 31 4 22 12 158 21 158 11 0 -5 21 -7 46
-4 41 4 49 1 70 -23 13 -16 24 -32 24 -36 0 -18 65 -99 79 -100 11 0 12 -2 4
-6 -15 -5 -17 -23 -4 -23 5 0 13 10 17 23 9 30 34 51 63 55 29 3 94 -25 86
-38 -3 -5 -1 -11 5 -15 5 -3 10 -15 10 -26 0 -10 6 -19 14 -19 15 0 26 -21 26
-51 0 -14 -4 -18 -12 -13 -9 5 -9 3 1 -9 7 -9 18 -14 25 -10 6 3 6 1 -1 -7
-10 -11 -9 -19 10 -38 12 -13 16 -22 8 -20 -17 4 -22 -39 -5 -53 13 -11 7 -50
-10 -61 -8 -5 -7 -13 2 -28 6 -11 12 -27 12 -35 0 -8 7 -15 15 -15 8 0 15 -8
15 -18 0 -10 5 -23 12 -30 9 -9 6 -12 -15 -12 -24 0 -26 -3 -18 -23 7 -19 5
-26 -12 -37 -12 -8 -26 -14 -30 -15 -4 0 -11 -5 -15 -12 -4 -6 -24 -14 -45
-18 -21 -4 -41 -13 -43 -20 -3 -7 -24 -18 -47 -25 -23 -8 -50 -20 -59 -28 -16
-13 -18 -13 -24 2 -4 10 -18 16 -40 16 -27 0 -38 -6 -56 -34 -12 -18 -36 -43
-53 -55 -33 -22 -75 -28 -75 -10 0 5 -4 8 -9 5 -5 -3 -19 16 -32 42 -13 26
-31 52 -39 57 -18 12 -98 23 -106 15 -3 -3 -9 -6 -12 -6 -26 -4 -72 -30 -72
-40 0 -7 -16 -43 -36 -81 -37 -68 -101 -138 -152 -163 -15 -8 -38 -24 -52 -36
-14 -11 -51 -32 -82 -44 -33 -14 -81 -46 -115 -76 -67 -62 -89 -69 -187 -59
-56 5 -79 12 -101 31 -35 30 -66 39 -103 29 -42 -12 -108 -9 -207 8 -49 8
-123 18 -162 22 -40 4 -73 12 -73 17 0 6 -7 8 -15 4 -8 -3 -15 0 -15 6 0 6
-15 24 -32 40 -18 16 -40 36 -49 43 -9 8 -21 15 -27 15 -7 0 -12 6 -12 14 0 8
-9 18 -20 21 -11 3 -20 12 -20 18 0 7 -9 18 -20 25 -12 7 -17 18 -14 29 4 12
3 14 -3 6 -12 -16 -73 -29 -73 -15 0 9 -36 25 -53 23 -4 -1 -6 4 -5 10 2 6 -5
13 -15 14 -10 2 -27 11 -38 20 -10 10 -27 15 -38 12 -11 -3 -27 3 -38 14 -22
22 -39 42 -40 49 -14 53 -30 66 -84 66 -45 1 -109 22 -109 36 0 5 -9 8 -20 8
-11 0 -20 4 -20 9 0 12 -47 29 -95 36 -38 5 -70 23 -114 65 -24 23 -49 39 -57
36 -8 -3 -18 3 -24 14 -6 11 -17 17 -24 14 -13 -5 -54 30 -57 48 -4 27 -4 34
4 39 13 10 -4 39 -24 39 -10 0 -19 6 -19 14 0 9 -8 12 -25 8 -15 -2 -25 0 -25
7 0 6 -9 20 -19 30 -11 11 -21 35 -23 53 -3 24 -12 37 -32 46 -15 8 -32 27
-38 43 -5 16 -16 29 -24 29 -9 0 -14 11 -14 32 0 17 -8 40 -17 51 -10 11 -12
17 -5 13 17 -10 15 15 -4 42 -8 12 -13 26 -10 31 3 5 -2 8 -12 7 -9 0 -16 5
-14 12 1 6 -2 12 -8 12 -5 0 -10 9 -10 20 0 11 6 20 13 20 8 0 8 3 -2 9 -14 9
-13 20 5 138 2 17 0 34 -6 38 -5 3 -10 15 -10 26 0 10 -6 19 -13 19 -7 0 -30
16 -51 35 -21 19 -49 35 -61 35 -16 0 -25 8 -29 25 -4 14 -14 25 -23 25 -15 0
-15 1 0 18 20 22 10 36 -29 40 -22 2 -33 -2 -38 -14 -3 -9 -13 -14 -21 -11 -9
4 -12 1 -8 -9 6 -16 2 -17 -21 -8 -9 3 -16 13 -16 20 0 8 -13 17 -30 20 -26 6
-32 13 -47 65 -10 33 -21 59 -25 59 -4 0 -8 9 -8 19 0 12 -9 21 -25 25 -17 4
-23 11 -18 23 4 11 3 14 -5 9 -7 -4 -12 -1 -12 9 0 9 -4 14 -8 11 -11 -7 -92
31 -92 44 0 5 -13 10 -30 10 -44 0 -67 28 -66 80 1 25 -4 44 -11 47 -7 3 -11
9 -8 13 3 4 -2 13 -11 20 -12 11 -12 15 -2 22 8 6 3 8 -17 6 -25 -2 -31 1 -33
20 -2 12 -7 22 -12 22 -5 0 -12 10 -15 23 -4 12 -21 39 -37 60 -36 46 -39 79
-9 111 12 12 18 25 15 29 -3 3 -3 11 2 18 10 17 12 70 3 89 -4 8 -10 27 -14
42 -3 16 -11 27 -17 25 -7 -1 -14 8 -16 21 -2 12 -9 22 -17 22 -7 0 -24 17
-36 38 -13 20 -31 43 -41 50 -10 8 -15 18 -11 25 4 7 6 23 4 36 -2 15 1 21 8
17 6 -4 11 0 11 10 0 11 -6 15 -20 11 -16 -4 -22 2 -31 36 -6 23 -15 47 -19
52 -10 12 -66 110 -83 145 -7 13 -22 34 -35 47 -13 13 -20 27 -17 33 3 5 -5
16 -19 25 -19 12 -25 28 -31 73 -12 100 -19 122 -49 172 -12 19 -32 62 -45 95
-12 33 -32 82 -43 110 -11 27 -26 81 -33 120 -7 38 -25 102 -40 140 -14 39
-39 120 -55 180 -37 141 -112 394 -139 465 -18 51 -60 207 -83 310 -32 146
-81 318 -103 361 -13 24 -21 63 -45 209 -5 30 -16 96 -25 145 -30 167 -34 200
-44 365 -14 226 2 532 44 875 22 180 27 328 26 760 -2 560 17 799 68 867 9 13
30 56 46 96 16 40 32 75 37 78 4 3 8 13 8 23 0 10 7 24 16 32 21 17 34 -3 34
-53 0 -45 25 -145 41 -164 6 -8 9 -14 5 -14 -4 0 0 -10 8 -23 10 -15 12 -27 6
-37 -13 -21 -12 -97 1 -122 8 -16 13 -18 19 -8 7 11 18 10 57 -5 26 -10 63
-18 81 -17 17 2 42 -3 55 -10 23 -12 28 -14 62 -17 19 -1 73 -67 68 -83 -2 -4
2 -8 7 -8 6 0 10 -27 10 -60 0 -46 -4 -62 -16 -67 -12 -4 -13 -8 -3 -13 9 -6
7 -15 -10 -35 -11 -15 -21 -37 -21 -49 0 -12 -7 -31 -15 -42 -8 -12 -11 -24
-8 -28 3 -3 1 -6 -6 -6 -7 0 -19 -7 -28 -15 -13 -13 -13 -21 -2 -48 7 -18 19
-40 27 -49 11 -13 12 -21 4 -31 -11 -13 -10 -116 1 -134 4 -5 9 -25 13 -44 4
-19 9 -48 13 -65 9 -47 53 -92 99 -102 22 -5 53 -21 68 -36 16 -14 40 -26 55
-26 32 0 121 -26 176 -51 56 -25 65 -24 139 12 88 44 128 38 237 -32 45 -30
84 -56 87 -59 29 -31 66 -41 148 -40 134 2 251 -10 318 -32 l61 -20 108 27
c113 29 168 29 220 4 45 -22 52 -42 30 -83 -20 -37 -24 -39 -172 -91 -29 -11
-53 -25 -53 -32 0 -7 -11 -13 -25 -13 -14 0 -40 -15 -65 -38 -22 -22 -40 -37
-40 -35 0 3 -7 -3 -16 -11 -8 -9 -24 -16 -33 -16 -10 0 -24 -7 -31 -15 -16
-19 -40 -20 -40 -1 0 15 -21 26 -51 26 -13 0 -19 -7 -20 -22 l-2 -23 -4 23
c-2 12 -9 22 -15 22 -5 0 -8 -6 -5 -14 3 -8 3 -17 -1 -20 -3 -4 -7 -13 -8 -22
-2 -11 1 -12 11 -4 9 8 15 8 20 0 3 -5 1 -10 -6 -10 -8 0 -8 -4 1 -15 7 -9 15
-13 18 -11 2 3 16 -4 30 -14 32 -26 51 -25 49 0 -1 11 -5 20 -9 20 -4 0 -8 10
-8 22 0 49 27 -10 29 -64 1 -12 9 -18 26 -18 14 0 25 -4 25 -10 0 -5 9 -10 20
-10 10 0 29 -4 42 -10 51 -21 207 -30 291 -15 45 7 98 16 117 18 19 3 64 15
100 27 36 12 70 23 77 24 7 1 16 5 19 9 4 4 14 7 23 7 31 0 197 94 283 160 14
11 29 20 32 20 6 0 39 28 96 80 38 35 100 80 109 80 13 0 25 45 16 59 -3 6
-13 11 -22 11 -13 0 -14 -2 -2 -17 11 -13 7 -12 -16 3 -16 12 -38 25 -48 31
-17 9 -17 11 3 35 13 17 27 24 39 21 10 -2 50 5 89 17 58 17 77 28 99 56 26
35 28 48 23 129 -1 11 -1 39 0 62 2 30 -5 55 -23 86 -15 25 -24 47 -21 50 3 3
6 11 7 19 2 7 7 15 12 16 6 2 15 8 22 14 7 5 33 8 58 7 35 -2 49 1 56 14 5 9
16 14 24 11 11 -5 15 1 15 20 0 15 6 42 14 61 8 18 12 35 10 38 -7 6 28 77 38
77 4 0 8 -5 8 -11 0 -8 5 -8 15 1 11 9 15 10 15 1 0 -8 5 -7 15 3 9 9 22 19
30 23 7 5 15 22 18 38 2 17 9 43 15 58 7 16 12 43 12 62 0 18 7 45 14 61 8 15
12 32 9 37 -3 6 -1 7 5 3 12 -7 21 4 27 36 3 13 18 34 35 48 17 14 30 31 30
38 0 6 4 12 9 12 4 0 9 15 9 33 0 17 3 48 7 68 4 22 1 52 -9 78 -8 23 -12 40
-9 38 2 -3 16 4 29 16 45 38 71 117 40 117 -8 0 -24 14 -37 31 -13 16 -32 40
-42 51 -10 12 -20 33 -24 47 -7 29 -51 74 -91 95 -16 8 -56 18 -90 22 -34 3
-67 12 -73 20 -6 7 -17 10 -24 8 -7 -3 -24 1 -37 9 -30 19 -113 37 -158 35
-83 -4 -255 14 -272 29 -9 8 -23 15 -31 17 -8 1 -25 9 -38 17 -78 51 -120 57
-229 34 -14 -3 -82 -5 -151 -5 -70 0 -171 -5 -225 -11 -191 -22 -240 -21 -292
8 -36 19 -64 25 -117 27 -84 3 -99 9 -145 55 -53 54 -72 89 -64 114 8 24 57
77 72 77 6 0 12 4 14 8 3 9 121 82 132 82 3 0 15 9 26 20 17 17 49 25 98 23 7
-1 29 19 48 43 20 24 41 44 48 44 6 0 22 12 35 26 13 14 36 31 50 39 15 7 51
29 81 49 30 20 63 36 74 36 11 0 16 3 12 7 -6 6 100 41 177 58 10 2 52 13 94
25 59 16 96 20 168 17 51 -3 99 -8 105 -12 7 -4 67 -9 134 -11 128 -3 186 -11
186 -24 0 -8 38 -11 260 -20 55 -3 215 6 262 14 7 1 23 7 35 14 12 7 32 12 45
13 296 10 435 9 478 -5 41 -13 168 -15 275 -4 6 1 34 -2 63 -6 42 -5 53 -4 58
9 3 8 11 12 17 8 6 -3 38 -5 71 -4 34 1 72 -2 86 -7 14 -5 32 -6 40 -2 66 32
149 50 190 40 34 -8 96 4 93 18 -2 6 4 9 11 6 8 -3 26 2 40 11 16 11 39 16 60
13 19 -2 33 -1 30 3 -9 16 15 18 57 5 24 -7 43 -18 42 -24 -2 -7 6 -12 18 -12
11 0 17 5 14 10 -3 6 2 13 12 17 10 3 30 17 44 30 34 31 88 40 129 20 17 -9
38 -13 47 -10 11 4 14 2 9 -5 -9 -15 23 -4 46 15 9 8 22 12 29 7 9 -5 10 -2 6
9 -7 20 1 47 14 47 5 0 9 -9 9 -20 0 -12 7 -20 16 -20 11 0 14 5 10 16 -3 9
-6 22 -6 30 0 8 -7 14 -15 14 -17 0 -19 9 -5 30 9 15 25 7 25 -13 0 -5 6 -12
13 -14 6 -3 12 1 12 9 0 7 12 21 28 30 15 10 21 18 14 18 -7 0 -10 5 -7 10 3
6 16 7 29 4 17 -4 27 1 40 20 15 24 15 26 0 26 -13 0 -14 3 -5 14 6 7 23 11
39 9 19 -3 23 -2 13 5 -19 14 -2 20 40 15 30 -4 36 -8 32 -24 -3 -10 -13 -19
-23 -19 -10 0 -21 -7 -24 -16 -8 -20 2 -33 12 -17 4 6 38 13 75 15 46 2 67 7
67 15 0 7 5 13 10 13 6 0 10 7 10 15 0 8 6 15 14 15 7 0 16 9 19 20 3 11 1 20
-5 20 -5 0 -6 5 -2 11 4 8 9 7 15 -2 4 -7 6 -16 3 -20 -8 -14 87 -22 126 -10
47 14 63 14 54 0 -4 -8 0 -8 15 0 11 7 21 18 21 26 0 18 20 24 47 14 17 -6 21
-5 16 6 -6 17 23 20 46 6z m241 -40 c0 -5 -11 -12 -25 -15 -14 -4 -25 -11 -25
-16 0 -6 -11 -10 -25 -10 -16 0 -25 6 -25 15 0 14 11 19 38 16 6 -1 12 2 12 6
0 5 11 10 25 11 14 1 25 -2 25 -7z m-167 -140 c-9 -12 -25 20 -18 36 7 16 9
15 15 -7 4 -14 5 -27 3 -29z m287 -7 c0 -8 -5 -12 -10 -9 -6 4 -8 11 -5 16 9
14 15 11 15 -7z m-767 -131 c-7 -2 -13 -11 -13 -19 0 -8 -7 -14 -15 -14 -8 0
-15 9 -15 20 0 15 6 20 28 19 15 0 21 -3 15 -6z m-23 -63 c0 -5 -4 -10 -10
-10 -5 0 -10 5 -10 10 0 6 5 10 10 10 6 0 10 -4 10 -10z m79 -53 c8 -10 7 -14
-4 -14 -8 0 -15 6 -15 14 0 7 2 13 4 13 2 0 9 -6 15 -13z m17 -53 c-3 -9 -6
-20 -6 -25 0 -15 -27 -10 -34 6 -3 9 0 15 9 15 8 0 15 5 15 10 0 6 5 10 11 10
6 0 8 -7 5 -16z m-86 -14 c9 -16 8 -18 -5 -14 -8 4 -15 12 -15 20 0 20 7 17
20 -6z m-740 -416 c0 -2 -8 -8 -18 -13 -14 -7 -18 -6 -18 8 0 12 6 17 18 13
10 -2 18 -6 18 -8z m1733 -776 c29 -7 37 -13 37 -32 0 -35 -77 -67 -304 -126
-139 -36 -209 -37 -214 -4 -8 57 262 166 423 171 11 0 37 -4 58 -9z m-5513
-139 c6 -9 34 -12 104 -11 86 1 96 -1 96 -16 0 -10 5 -23 11 -29 6 -6 9 -23 7
-39 -3 -25 -7 -29 -33 -27 -16 2 -49 4 -72 5 -23 1 -40 5 -38 8 7 11 -75 50
-103 50 -15 0 -49 -6 -76 -13 -40 -10 -50 -17 -53 -37 -3 -23 -25 -43 -48 -45
-11 -1 -62 -14 -85 -22 -34 -11 -141 -13 -134 -2 3 6 14 9 24 6 13 -3 17 0 13
9 -7 18 18 41 47 46 24 3 25 6 44 89 7 31 43 42 99 29 24 -5 40 -4 46 4 13 16
141 12 151 -5z m-16 -125 c9 -3 16 -11 16 -16 0 -6 8 -17 18 -24 15 -12 11
-13 -30 -14 -50 0 -56 7 -38 41 12 21 12 21 34 13z m-649 -32 c-15 -15 -32 -9
-28 9 4 15 8 17 19 8 8 -7 12 -14 9 -17z m6056 8 c46 -25 5 -59 -89 -75 -31
-5 -52 -17 -77 -43 -32 -34 -36 -36 -51 -21 -25 26 -9 55 55 93 92 56 125 65
162 46z m-5261 -32 c0 -4 -11 -7 -25 -6 -14 1 -25 6 -25 10 0 4 11 7 25 6 14
-1 25 -6 25 -10z m6014 -84 c9 -3 16 -14 16 -23 0 -22 -77 -93 -98 -89 -39 7
-18 90 27 107 33 12 36 12 55 5z m-1117 -29 c12 -8 31 -39 42 -69 11 -30 34
-76 50 -104 37 -60 39 -86 6 -108 -46 -30 -101 -35 -254 -24 -154 12 -201 23
-201 48 0 26 187 208 248 241 65 35 79 37 109 16z m-7274 -64 c6 -29 -1 -71
-12 -71 -17 1 -42 53 -37 76 9 35 42 32 49 -5z m2609 6 c32 -12 59 -26 60 -32
3 -14 -84 -60 -172 -89 -74 -25 -124 -35 -290 -55 -111 -14 -149 -26 -183 -55
-15 -13 -48 -29 -75 -36 -26 -7 -56 -19 -67 -27 -11 -7 -26 -13 -35 -13 -8 0
-35 -13 -59 -29 -25 -17 -48 -28 -52 -25 -25 15 76 144 113 144 9 0 31 13 48
30 37 36 62 50 92 50 13 0 41 11 63 25 22 13 54 32 70 41 44 26 311 91 375 92
34 1 77 -7 112 -21z m188 -37 c0 -5 -14 -10 -31 -10 -17 0 -28 4 -24 10 3 6
17 10 31 10 13 0 24 -4 24 -10z m-52 -240 c38 -23 41 -42 8 -63 -27 -18 -142
-47 -187 -47 -16 0 -29 -5 -29 -12 0 -19 -31 -47 -46 -41 -19 7 -18 37 5 74
23 37 49 57 116 86 62 28 91 28 133 3z m-2698 -51 c0 -5 -4 -9 -10 -9 -5 0
-10 7 -10 16 0 8 5 12 10 9 6 -3 10 -10 10 -16z m7337 7 c119 -21 160 -34 167
-53 4 -9 5 -17 4 -19 -14 -13 -171 -78 -198 -81 -19 -2 -40 -6 -45 -7 -6 -2
-33 0 -61 4 -27 5 -76 11 -108 14 -56 6 -120 29 -131 46 -10 16 7 38 43 54
128 56 195 65 329 42z m-5088 -78 c11 -12 27 -44 35 -72 14 -46 96 -202 114
-216 4 -3 21 -21 38 -41 23 -27 30 -44 27 -62 -8 -43 -38 -51 -144 -37 -157
19 -247 58 -347 147 -44 39 -54 55 -59 89 -10 78 43 144 116 144 17 0 56 16
88 35 67 40 104 44 132 13z m7506 2 c3 -5 1 -10 -4 -10 -6 0 -11 5 -11 10 0 6
2 10 4 10 3 0 8 -4 11 -10z m-6369 -56 c16 -15 46 -42 66 -61 34 -33 40 -36
99 -34 71 1 99 -15 99 -59 0 -32 -41 -80 -68 -80 -11 0 -39 7 -63 15 -25 9
-59 14 -79 11 -206 -31 -242 -10 -206 116 26 86 50 118 89 118 23 0 44 -9 63
-26z m2044 -98 c0 -3 -4 -8 -10 -11 -5 -3 -10 -1 -10 4 0 6 5 11 10 11 6 0 10
-2 10 -4z m4079 -16 c1 12 18 16 76 18 73 3 75 3 109 -31 26 -27 35 -45 38
-78 4 -44 4 -44 46 -47 33 -2 42 -7 42 -21 0 -25 -46 -34 -67 -13 -14 15 -15
14 -8 -7 6 -20 4 -23 -10 -17 -30 11 -35 -5 -9 -29 28 -26 54 -23 54 7 0 10 5
16 10 13 6 -3 7 -17 4 -31 -4 -14 -2 -24 5 -24 6 0 11 -4 11 -10 0 -5 -9 -10
-21 -10 -11 0 -17 5 -14 10 3 6 -3 10 -14 10 -14 0 -19 -5 -16 -15 3 -8 7 -23
11 -32 3 -10 8 -13 12 -8 12 17 90 34 97 21 2 -6 2 -1 0 10 -4 16 0 23 15 27
11 3 18 1 14 -4 -3 -5 3 -9 12 -9 14 0 13 -3 -6 -20 -13 -11 -18 -20 -11 -20
7 0 10 -4 7 -9 -3 -5 -6 -53 -7 -107 -1 -102 -6 -126 -20 -103 -14 24 -19 4
-23 -102 -3 -73 -1 -106 7 -111 9 -6 8 -11 -3 -19 -12 -8 -10 -9 8 -4 13 4 22
2 22 -4 0 -6 -9 -11 -20 -11 -19 0 -25 -13 -21 -52 2 -11 -5 -18 -16 -19 -17
-1 -17 -2 0 -6 22 -6 24 -53 1 -53 -9 0 -14 -7 -13 -17 1 -10 -3 -31 -10 -47
-8 -20 -15 -25 -24 -18 -8 7 -16 6 -24 -3 -8 -9 -9 -16 -3 -20 25 -15 -4 -125
-32 -125 -16 0 -41 -31 -43 -53 -3 -37 -17 -87 -25 -87 -4 0 -11 -23 -14 -52
-9 -67 -31 -118 -51 -118 -17 0 -35 -37 -28 -57 3 -8 -3 -13 -14 -13 -13 0
-24 -12 -33 -35 -7 -19 -17 -32 -22 -29 -4 3 -8 -3 -9 -13 0 -10 -2 -25 -5
-33 -2 -8 -9 -40 -16 -70 -7 -30 -17 -58 -22 -62 -6 -4 -9 -25 -7 -48 2 -28
-3 -48 -14 -60 -17 -18 -17 -40 0 -52 6 -5 5 -11 -4 -17 -7 -5 -11 -15 -9 -22
6 -17 -20 -38 -47 -39 -11 0 -25 -10 -30 -22 -6 -15 -19 -23 -35 -24 -14 0
-24 -5 -22 -13 3 -15 -23 -43 -32 -34 -3 4 -6 1 -6 -6 0 -7 -5 -9 -12 -5 -6 4
-8 3 -5 -4 4 -5 -7 -22 -24 -36 -16 -14 -27 -30 -24 -36 3 -6 -1 -13 -9 -16
-9 -3 -13 -11 -10 -16 4 -6 -2 -5 -14 1 -18 10 -20 8 -17 -8 2 -11 -3 -22 -11
-25 -8 -3 -14 -1 -14 4 0 21 -30 -4 -47 -39 -10 -21 -24 -36 -31 -33 -7 2 -12
-2 -12 -9 0 -6 -12 -22 -27 -35 -36 -30 -85 -32 -114 -3 -12 12 -24 17 -28 12
-3 -6 -29 -18 -58 -27 -28 -9 -54 -24 -57 -33 -5 -13 -9 -14 -18 -5 -22 22
-49 13 -85 -27 -20 -23 -41 -37 -49 -34 -8 3 -14 1 -14 -3 -1 -5 -3 -32 -5
-61 -3 -47 -1 -53 18 -59 21 -6 37 -21 37 -35 0 -4 -21 -10 -46 -14 -28 -4
-56 -16 -69 -29 -28 -28 -40 -22 -41 22 -1 27 2 32 22 32 18 0 22 4 17 17 -4
11 -3 14 5 9 7 -4 12 -2 12 3 0 6 7 11 15 11 20 0 19 17 -2 29 -16 9 -16 10
-2 11 20 0 31 23 23 45 -6 14 -12 17 -30 14 -4 0 -10 4 -13 9 -4 6 -18 12 -33
14 -14 2 -33 10 -42 17 -9 7 -22 11 -30 8 -7 -3 -19 0 -25 6 -8 8 -11 8 -11
-2 0 -8 -6 -11 -16 -7 -10 4 -13 2 -8 -6 5 -8 2 -9 -11 -4 -10 4 -21 2 -25 -4
-8 -13 -70 10 -70 27 0 7 -6 13 -12 14 -7 0 -69 3 -138 5 -68 2 -129 9 -134
14 -6 6 -18 10 -29 10 -10 0 -15 5 -12 10 9 14 -48 13 -63 -2 -9 -9 -12 -9
-12 1 0 9 -12 12 -39 9 -30 -2 -37 0 -33 11 4 10 -1 12 -17 6 -17 -5 -28 -1
-44 16 -12 13 -21 27 -19 31 1 5 -7 8 -18 8 -11 0 -17 5 -15 13 5 11 -88 54
-107 49 -5 -1 -8 2 -8 6 0 5 -12 14 -26 20 -14 7 -23 16 -20 21 3 5 -8 14 -25
20 -17 6 -38 20 -47 31 -9 11 -28 27 -42 34 -14 7 -24 18 -22 26 2 8 -4 11
-18 7 -11 -3 -17 -1 -14 4 3 5 -2 12 -10 15 -9 3 -16 14 -16 23 0 10 -11 23
-24 30 -13 7 -29 24 -36 37 -7 12 -32 35 -56 50 -29 19 -42 33 -39 44 6 20
-10 46 -19 31 -10 -16 -20 -14 -47 10 -13 11 -35 29 -49 40 -15 11 -19 18 -11
19 9 0 1 13 -19 30 -18 17 -27 30 -20 30 8 0 -2 17 -23 38 -20 21 -37 44 -37
51 0 9 -8 12 -24 9 -26 -5 -26 16 0 26 8 3 14 13 14 21 0 9 -4 13 -10 10 -5
-3 -10 1 -10 9 0 10 -15 17 -45 22 -49 7 -68 27 -58 63 3 12 -1 29 -10 39 -17
20 -32 61 -29 80 2 6 -5 12 -14 12 -10 0 -14 -5 -10 -15 3 -8 1 -15 -4 -15 -6
0 -10 11 -10 24 0 43 -12 86 -25 86 -6 0 -18 11 -25 25 -7 14 -18 25 -24 25
-6 0 -5 4 2 8 16 11 5 42 -15 42 -10 0 -13 6 -9 16 3 8 2 13 -2 10 -4 -2 -14
-1 -22 5 -13 7 -12 9 3 9 9 0 17 4 17 8 0 12 -47 51 -54 45 -3 -3 -12 -3 -21
0 -8 4 -17 5 -18 4 -2 -1 -11 6 -21 16 -11 10 -26 15 -36 12 -13 -4 -20 0 -25
15 -3 11 -11 20 -16 20 -5 0 -8 3 -8 8 4 24 -4 33 -11 12 -7 -21 -8 -17 -9 21
-1 44 -2 46 -26 41 -15 -2 -25 0 -25 7 0 6 -7 11 -16 11 -11 0 -14 6 -9 20 4
13 -2 34 -15 57 l-21 36 25 24 c22 20 27 21 40 8 24 -24 46 -8 39 28 -5 31 -5
31 11 12 17 -20 17 -19 11 8 -3 15 -1 27 5 27 5 0 10 7 10 15 0 9 12 21 28 27
15 7 36 22 48 33 73 70 80 74 130 74 35 -1 54 -7 67 -21 17 -17 21 -18 36 -4
17 15 53 24 109 25 19 1 31 5 27 11 -3 5 0 7 8 4 20 -7 67 13 67 30 0 8 5 18
12 22 7 5 8 3 3 -6 -5 -9 -3 -11 6 -6 8 3 22 9 32 12 20 8 23 24 3 24 -16 0
-29 27 -20 42 3 5 -3 12 -14 15 -29 7 -36 32 -15 56 15 16 27 18 78 14 33 -3
61 -10 63 -16 2 -6 10 -11 18 -11 8 0 19 -12 24 -26 6 -14 15 -22 20 -19 18
11 212 8 270 -3 133 -27 118 -26 219 -17 94 9 221 -10 221 -34 1 -13 3 -12 16
4 12 16 16 17 23 6 5 -7 11 -9 14 -4 3 5 23 10 44 11 74 4 141 22 248 67 17 7
46 16 65 20 19 4 49 13 65 20 40 18 150 47 200 53 22 2 44 8 50 13 5 5 17 9
27 9 10 0 18 4 18 9 0 5 13 11 29 14 16 4 40 17 53 29 12 13 30 23 38 23 15
-1 56 18 118 55 18 11 37 18 42 15 4 -2 10 4 13 15 3 10 17 22 31 26 34 8 79
-3 70 -18 -5 -8 -2 -9 10 -5 10 4 25 7 34 7 12 0 13 3 5 8 -7 4 11 8 41 9 45
1 58 -3 77 -23 12 -13 32 -24 44 -24 12 0 25 -3 29 -7 8 -9 14 -10 52 -12 14
0 22 -5 19 -11 -4 -6 12 -10 39 -10 27 0 46 5 46 11 0 7 12 10 30 7 28 -4 30
-2 30 25 0 16 8 45 17 64 14 31 18 33 24 17 5 -13 8 -14 8 -4z m368 -152 c-3
-8 -6 -5 -6 6 -1 11 2 17 5 13 3 -3 4 -12 1 -19z m-11 -49 c8 -13 -3 -24 -33
-34 -14 -4 -23 -2 -23 4 0 6 7 11 15 11 8 0 15 7 15 15 0 17 16 20 26 4z
m-9829 -131 c-3 -8 -6 -5 -6 6 -1 11 2 17 5 13 3 -3 4 -12 1 -19z m9870 -60
c-3 -7 -5 -2 -5 12 0 14 2 19 5 13 2 -7 2 -19 0 -25z m-9895 -155 c8 -10 20
-45 27 -78 7 -33 17 -65 22 -71 4 -5 13 -57 18 -115 6 -57 19 -131 30 -164 11
-33 21 -82 21 -110 0 -76 -19 -224 -35 -275 -8 -25 -17 -67 -21 -95 -3 -27
-15 -67 -24 -88 -19 -38 -22 -134 -6 -187 4 -14 11 -108 15 -210 5 -102 12
-193 16 -204 5 -10 21 -33 37 -50 85 -93 108 -130 108 -173 0 -36 -3 -43 -23
-48 -40 -10 -81 -1 -100 22 -10 12 -26 25 -37 28 -11 4 -17 12 -13 20 7 20
-41 76 -85 99 -55 29 -120 102 -128 144 -4 21 -10 42 -14 47 -4 6 -11 31 -14
57 -4 25 -13 51 -20 57 -7 6 -13 28 -14 50 -1 21 -7 70 -13 107 -14 84 -13
130 5 324 3 36 8 100 11 143 4 42 12 92 19 110 8 17 16 57 18 87 6 78 55 290
89 389 16 45 29 96 29 111 0 26 42 90 59 90 4 0 15 -8 23 -17z m2319 -140 c2
1 -2 -4 -10 -10 -8 -7 -12 -14 -8 -14 4 -1 11 -2 16 -3 5 0 12 -4 16 -8 6 -5
-19 -4 -35 2 -3 1 -9 2 -14 1 -5 -1 -4 5 3 13 7 8 9 21 5 28 -6 10 -5 11 8 1
8 -7 17 -12 19 -10z m7565 -99 c-10 -9 -14 -26 -12 -40 4 -20 1 -25 -12 -22
-27 5 -27 51 0 64 34 17 42 16 24 -2z m-10176 -163 c8 -9 15 -20 16 -26 2 -27
18 -76 25 -81 14 -8 11 -72 -11 -195 -10 -63 -20 -158 -21 -211 -2 -54 -6
-103 -10 -109 -12 -21 -40 37 -59 123 -28 126 -29 133 -31 262 -2 94 2 134 16
179 10 31 22 57 27 57 4 0 5 7 2 15 -8 19 24 10 46 -14z m6177 -603 c-3 -8 -6
-5 -6 6 -1 11 2 17 5 13 3 -3 4 -12 1 -19z m703 -400 c0 -16 -3 -19 -11 -11
-6 6 -8 16 -5 22 11 17 16 13 16 -11z m2480 -318 c0 -5 -7 -10 -16 -10 -8 0
-12 5 -9 10 3 6 10 10 16 10 5 0 9 -4 9 -10z m-644 -270 c8 0 14 -9 14 -20 0
-13 -7 -20 -20 -20 -16 0 -20 6 -19 33 0 17 3 26 6 20 2 -7 11 -13 19 -13z m4
-109 c0 -5 -9 -7 -20 -4 -11 3 -20 7 -20 9 0 2 9 4 20 4 11 0 20 -4 20 -9z
m-8233 -33 c-3 -8 -6 -5 -6 6 -1 11 2 17 5 13 3 -3 4 -12 1 -19z m43 -68 c0
-5 -2 -10 -4 -10 -3 0 -8 5 -11 10 -3 6 -1 10 4 10 6 0 11 -4 11 -10z m10 -55
c0 -17 -4 -23 -14 -19 -18 7 -17 44 1 44 7 0 13 -11 13 -25z m5116 -760 c4
-14 4 -28 2 -30 -8 -8 -73 -18 -66 -10 4 4 3 17 -2 30 -11 28 -5 35 31 35 22
0 30 -6 35 -25z m331 -230 c-4 -8 -2 -17 3 -20 18 -11 -21 -53 -77 -81 -30
-16 -74 -45 -97 -65 -22 -19 -71 -50 -108 -68 -37 -18 -69 -39 -72 -46 -5 -14
-37 -22 -108 -28 -47 -4 -71 -25 -96 -85 -31 -71 -71 -104 -133 -110 -41 -4
-50 -2 -44 8 6 10 4 12 -8 7 -11 -4 -17 -1 -17 7 0 15 -38 29 -52 20 -5 -3 -6
-14 -3 -24 5 -16 0 -19 -32 -22 -37 -4 -37 -4 -13 -15 l25 -12 -27 0 c-15 -1
-33 -7 -40 -14 -18 -17 -95 -52 -148 -68 -25 -7 -50 -17 -57 -22 -7 -5 -47
-14 -90 -19 -116 -16 -118 -16 -121 8 -2 14 -12 24 -28 27 -13 2 -24 1 -24 -4
0 -25 -117 -51 -146 -31 -28 19 -23 42 14 67 32 21 43 23 70 16 25 -8 32 -7
32 5 0 8 9 23 20 34 11 11 20 23 20 28 0 4 11 14 23 23 42 30 285 127 342 136
19 3 39 11 45 18 6 7 20 10 32 7 16 -4 19 -2 13 8 -5 9 -4 11 3 6 15 -9 16
-46 2 -46 -19 0 -10 -17 15 -28 23 -11 25 -10 25 13 0 19 5 25 21 25 13 0 18
4 13 12 -5 8 -2 9 9 5 25 -9 21 16 -5 44 -19 19 -30 23 -58 18 -19 -3 -43 -2
-52 3 -9 4 -19 4 -23 -1 -3 -6 -17 -6 -35 -1 -34 10 -191 3 -235 -10 -16 -5
-59 -10 -94 -11 -67 -3 -128 -28 -215 -91 -21 -15 -44 -28 -51 -28 -7 0 -32
-16 -56 -35 -56 -45 -132 -81 -187 -90 -36 -6 -46 -4 -57 12 -29 37 -13 170
24 207 18 17 34 21 99 22 81 0 133 13 190 47 28 17 50 20 111 19 74 -2 77 -2
115 33 22 19 55 38 75 41 20 4 47 14 61 24 67 45 119 60 204 60 51 0 100 6
127 16 72 26 240 10 391 -37 79 -25 96 -22 174 30 69 45 125 65 163 58 15 -3
33 -2 41 4 8 5 37 9 64 9 38 0 47 -3 43 -15z m743 -2674 c0 -6 -15 -11 -32
-13 -29 -4 -26 -5 20 -12 41 -7 52 -12 52 -27 0 -18 9 -19 123 -19 109 0 124
-2 139 -19 16 -19 15 -20 -14 -30 -41 -15 -128 -14 -128 0 0 8 -5 7 -15 -1
-12 -10 -19 -10 -27 -2 -9 9 -8 12 3 12 9 0 16 7 16 15 0 9 -10 15 -24 15 -21
0 -24 -4 -19 -30 3 -21 0 -30 -9 -30 -8 0 -21 -7 -29 -16 -9 -8 -20 -12 -26
-9 -5 3 -10 1 -10 -5 0 -16 -83 -6 -88 11 -3 8 -10 17 -15 21 -13 8 -19 40 -6
32 5 -3 9 -1 9 5 0 6 -11 13 -25 17 -18 4 -25 13 -25 30 0 13 6 24 13 24 8 0
22 9 33 19 19 20 84 29 84 12z m43 -8 c-7 -2 -19 -2 -25 0 -7 3 -2 5 12 5 14
0 19 -2 13 -5z m261 -172 c3 -5 -1 -14 -8 -20 -12 -10 -13 -8 -9 8 6 23 9 25
17 12z m-29 -71 c15 0 25 -22 25 -55 0 -28 -20 -37 -39 -18 -7 8 -20 12 -28 9
-8 -4 -11 -1 -8 5 8 11 -25 40 -37 32 -14 -8 -21 28 -8 40 10 9 11 9 5 -3 -7
-12 -6 -13 6 -3 21 16 63 20 67 6 2 -7 9 -13 17 -13z m3750 -909 c16 -32 11
-61 -11 -61 -18 0 -44 40 -44 67 0 34 36 30 55 -6z m515 -425 c0 -8 -4 -17 -9
-20 -10 -7 -23 19 -14 28 11 11 23 6 23 -8z m-7033 -1728 c2 -18 0 -20 -7 -8
-12 18 -13 30 -2 30 4 0 9 -10 9 -22z m186 -85 c-7 -2 -19 -2 -25 0 -7 3 -2 5
12 5 14 0 19 -2 13 -5z m-398 -313 c-7 -21 10 -28 18 -7 3 6 6 2 6 -10 1 -19
-4 -23 -29 -23 -35 0 -37 7 -12 38 21 27 25 28 17 2z m269 -185 c8 -8 21 -15
29 -15 18 0 24 -16 22 -53 -2 -22 2 -28 15 -24 9 2 25 -2 35 -9 10 -8 26 -14
36 -14 9 0 19 -7 23 -15 3 -8 12 -15 20 -15 8 0 16 -5 18 -11 2 -6 28 -14 58
-17 54 -5 61 -8 90 -46 13 -18 13 -19 0 -12 -8 4 -6 0 4 -8 11 -9 34 -16 50
-17 27 0 28 -2 11 -9 -19 -8 -18 -9 5 -11 14 -1 48 -1 76 0 34 2 63 -3 85 -15
19 -10 37 -17 42 -16 4 1 7 -2 7 -8 0 -5 -8 -10 -17 -10 -13 -1 -3 -15 32 -47
28 -25 49 -50 47 -55 -1 -5 1 -7 6 -4 5 3 21 -2 36 -10 16 -7 33 -14 40 -14 6
0 21 -22 33 -48 30 -66 34 -82 20 -83 -7 -1 -21 -2 -32 -3 -11 0 -20 -8 -20
-16 0 -10 8 -14 27 -12 25 2 27 0 19 -20 -4 -13 -6 -40 -3 -60 2 -24 -1 -42
-9 -50 -15 -14 -71 -19 -63 -6 5 8 -22 16 -71 20 -22 2 -30 8 -30 23 0 18 -7
20 -132 20 -96 1 -133 -2 -133 -11 0 -6 -9 -14 -20 -17 -13 -3 -20 -14 -20
-30 0 -17 7 -28 20 -32 25 -8 60 2 60 18 0 6 6 3 13 -6 8 -11 33 -19 75 -23
34 -4 62 -11 62 -15 0 -5 -9 -9 -21 -9 -18 0 -20 -5 -17 -50 2 -40 7 -51 26
-59 12 -6 22 -15 22 -21 0 -5 7 -10 15 -10 8 0 15 9 15 20 0 18 7 20 76 20 71
0 75 -1 69 -20 -4 -11 -2 -20 4 -20 6 0 11 5 11 10 0 6 5 10 10 10 6 0 10 -9
10 -20 0 -11 -4 -20 -10 -20 -19 0 -11 -95 10 -120 23 -27 25 -40 6 -40 -8 0
-17 -7 -20 -16 -9 -23 -7 -34 4 -34 6 0 10 8 10 18 0 14 2 15 10 2 7 -11 10
-11 10 -2 0 7 5 10 10 7 6 -3 10 -17 10 -31 0 -15 6 -24 15 -24 8 0 15 5 15
11 0 5 -4 7 -10 4 -5 -3 -10 -1 -10 5 0 7 8 9 23 5 24 -8 24 -8 51 -6 13 1 17
6 13 21 -4 17 0 20 34 20 21 0 39 5 39 10 0 6 -18 10 -40 10 -36 0 -40 3 -40
25 0 20 5 25 27 25 14 0 24 -3 20 -6 -11 -11 17 -33 29 -23 14 11 46 1 38 -12
-3 -5 1 -9 8 -10 7 0 4 -4 -7 -8 -17 -7 -15 -9 12 -13 18 -2 30 -1 27 4 -3 4
0 8 6 8 21 0 24 -33 4 -47 -16 -12 -17 -15 -4 -23 14 -9 -59 -15 -130 -11 -28
2 -94 -59 -72 -67 7 -2 12 -23 12 -49 0 -37 3 -44 16 -39 8 3 13 2 10 -3 -6
-9 30 -51 44 -51 18 0 10 -20 -7 -20 -13 -1 -10 -5 10 -16 21 -11 32 -12 42
-4 10 8 14 8 17 -2 4 -10 8 -10 22 1 9 8 16 10 15 5 -4 -21 2 -26 16 -14 19
16 27 9 30 -28 3 -39 12 -52 37 -52 14 0 18 -5 14 -15 -4 -11 2 -15 20 -15 23
0 54 -20 54 -34 0 -3 -9 -6 -19 -6 -24 0 -35 -31 -27 -75 6 -28 4 -33 -11 -31
-14 2 -18 11 -17 37 1 19 0 26 -3 16 -3 -13 -10 -16 -24 -12 -11 4 -26 2 -33
-4 -9 -8 -12 -2 -13 24 -1 41 -18 60 -58 68 -17 3 -47 10 -67 15 -26 7 -38 7
-38 0 0 -6 -6 -5 -15 2 -10 9 -12 16 -5 24 12 15 -107 3 -122 -12 -6 -6 -18
-2 -33 11 -19 17 -23 30 -21 69 1 44 -1 48 -21 48 -22 0 -63 31 -63 48 0 4
-18 13 -40 20 -22 7 -49 21 -60 32 -11 11 -33 20 -50 20 -16 0 -30 5 -30 10 0
6 5 10 12 10 17 0 -2 17 -27 24 -11 3 -3 3 18 0 22 -3 37 -1 37 6 0 5 7 10 15
10 16 0 38 34 28 44 -3 3 -1 6 5 6 7 0 12 -6 12 -12 0 -10 2 -10 8 -1 4 6 23
13 41 15 46 4 49 22 12 56 -24 22 -31 37 -33 74 -3 39 -7 48 -26 53 -13 3 -27
3 -33 0 -5 -4 -8 -1 -7 7 2 9 -11 14 -39 16 -24 2 -43 8 -43 14 0 6 -11 8 -24
6 -15 -3 -27 0 -30 8 -3 8 -10 14 -16 14 -6 0 -8 -4 -5 -10 10 -17 -11 -11
-34 9 -18 16 -32 19 -69 15 -32 -4 -56 -1 -77 10 -16 9 -40 16 -51 16 -22 0
-78 62 -67 74 4 3 1 6 -5 6 -7 0 -12 9 -12 20 0 17 -7 20 -43 20 -37 0 -46 4
-55 24 -8 19 -8 26 1 30 7 2 -1 5 -16 5 -37 1 -57 22 -51 52 5 23 5 23 -10 5
-16 -19 -16 -19 -16 4 0 23 -1 23 -14 5 -13 -18 -14 -18 -9 8 3 15 1 27 -3 27
-5 0 -9 11 -9 25 0 14 4 25 8 25 5 0 6 3 3 8 -2 4 -1 26 4 50 5 30 4 45 -5 50
-6 4 -14 15 -18 24 -4 10 -12 15 -21 12 -22 -9 -31 17 -11 33 18 13 18 13 -1
14 -10 0 -13 3 -6 6 21 8 13 21 -10 15 -20 -5 -21 -3 -10 10 13 16 7 48 -9 48
-5 0 -9 9 -9 20 0 11 -6 20 -14 20 -9 0 -12 7 -9 18 4 18 -31 42 -61 42 -8 0
-17 12 -21 27 -4 19 -9 23 -14 14 -6 -10 -10 -9 -14 3 -9 22 25 39 44 23 12
-10 12 -10 2 3 -14 15 -17 41 -5 39 20 -3 32 2 32 16 0 8 6 15 14 15 9 0 12 7
9 20 -4 16 0 20 21 20 14 0 26 -4 26 -10 0 -5 9 -10 20 -10 11 0 20 5 20 10 0
6 -6 10 -12 10 -9 0 -8 4 2 10 8 6 33 9 55 8 30 -2 41 1 43 14 2 11 14 16 40
16 20 0 38 5 40 11 5 16 28 14 46 -4z m243 -1141 c-3 -3 -12 -4 -19 -1 -8 3
-5 6 6 6 11 1 17 -2 13 -5z m268 -224 c3 -5 1 -10 -4 -10 -6 0 -11 5 -11 10 0
6 2 10 4 10 3 0 8 -4 11 -10z m1030 -248 c-3 -3 -11 0 -18 7 -9 10 -8 11 6 5
10 -3 15 -9 12 -12z m-252 -16 c8 -20 -32 -33 -44 -15 -4 7 -5 17 -3 21 9 13
42 9 47 -6z m255 -18 c9 -9 12 -9 12 1 0 10 4 10 13 3 19 -16 98 -36 142 -37
29 0 39 -4 37 -14 -2 -11 6 -13 38 -8 22 3 40 1 40 -3 0 -4 35 -9 78 -9 42 -1
86 -3 97 -5 11 -3 24 -5 29 -5 5 -1 2 -9 -5 -18 -12 -15 -12 -16 4 -10 13 5
20 0 27 -17 5 -14 18 -27 29 -31 12 -3 21 -11 21 -16 0 -6 26 -9 63 -7 55 3
62 5 65 25 2 12 12 25 22 28 10 3 23 19 28 34 10 27 12 28 51 21 22 -4 52 -15
67 -25 25 -16 28 -16 39 -1 18 24 26 19 19 -10 -6 -23 -4 -25 15 -19 26 8 27
-4 1 -52 -18 -33 -18 -39 -5 -60 21 -32 19 -41 -15 -48 -28 -6 -30 -9 -29 -53
1 -26 3 -39 6 -29 9 33 33 -2 33 -47 0 -41 1 -42 29 -38 26 4 30 0 39 -31 10
-36 44 -77 63 -77 5 0 7 -5 3 -12 -5 -7 -2 -9 8 -5 12 4 14 1 11 -14 -6 -21
22 -28 30 -6 2 7 8 8 13 3 5 -5 4 -11 -3 -13 -7 -3 -13 -18 -13 -34 0 -25 -4
-29 -29 -29 -46 0 -59 -8 -53 -36 2 -14 0 -24 -7 -24 -6 0 -10 -3 -10 -7 4
-23 -3 -34 -18 -32 -47 4 -104 -2 -98 -11 3 -5 -1 -10 -9 -10 -9 0 -16 -4 -16
-10 0 -5 -7 -10 -15 -10 -8 0 -15 5 -15 11 0 5 -4 7 -10 4 -5 -3 -10 3 -10 15
0 17 -4 19 -25 14 -15 -4 -25 -2 -25 5 0 8 -6 8 -19 -1 -11 -7 -18 -15 -15
-19 5 -8 -66 -23 -74 -15 -3 3 4 6 16 6 12 0 22 4 22 9 0 5 -8 8 -17 6 -10 -2
-21 -4 -25 -4 -5 -1 -8 -10 -8 -21 0 -16 -7 -20 -36 -20 -36 0 -37 0 -31 35 5
33 -7 59 -16 33 -3 -10 -7 -10 -20 1 -9 7 -15 17 -12 21 8 13 -17 60 -32 60
-7 0 -13 -4 -13 -10 0 -5 -13 -10 -30 -10 -16 0 -30 -5 -30 -11 0 -6 -7 -3
-16 6 -10 10 -15 27 -12 45 3 19 1 27 -6 22 -30 -18 -40 -8 -39 35 1 9 -7 11
-23 7 -18 -5 -24 -2 -24 10 0 9 -7 16 -15 16 -12 0 -13 4 -6 18 13 24 -26 63
-40 41 -6 -10 -9 -8 -9 9 0 22 23 31 35 12 3 -5 12 -7 20 -4 8 4 18 -1 21 -10
8 -22 34 -20 34 2 0 10 9 24 20 32 20 14 27 61 14 94 -12 32 -24 15 -24 -34 0
-47 -2 -50 -25 -50 -22 0 -25 4 -25 36 0 39 -15 74 -31 74 -6 0 -7 -5 -4 -10
3 -6 -1 -13 -10 -17 -17 -6 -38 14 -29 28 2 4 -3 10 -12 13 -9 4 -14 13 -10
21 4 12 -3 15 -29 15 -24 0 -35 5 -35 15 0 8 9 15 20 15 11 0 20 -4 20 -10 0
-5 5 -10 10 -10 13 0 13 37 -1 45 -6 4 -8 13 -5 21 3 7 1 16 -4 19 -11 7 -24
-31 -15 -45 3 -5 -1 -10 -9 -10 -8 0 -18 5 -21 10 -9 14 -86 5 -96 -11 -4 -7
-5 -17 -3 -24 3 -6 -2 -12 -11 -12 -8 0 -15 4 -15 9 0 4 -11 8 -25 8 -14 0
-28 7 -31 15 -4 9 -13 13 -24 10 -18 -6 -48 21 -36 32 3 3 6 1 6 -5 0 -7 4
-12 9 -12 5 0 7 9 4 20 -3 11 -13 20 -23 20 -11 0 -20 10 -23 28 -6 32 -6 33
22 35 33 2 25 14 -16 23 -21 4 -41 7 -44 6 -3 0 -6 6 -6 14 0 9 11 14 29 14
15 0 28 5 28 10 0 6 -4 10 -10 10 -5 0 -10 14 -10 30 l0 30 63 0 c36 0 68 -5
75 -12z m2092 -358 c0 -5 -4 -10 -10 -10 -5 0 -10 5 -10 10 0 6 5 10 10 10 6
0 10 -4 10 -10z m-1105 -60 c3 -5 1 -10 -4 -10 -6 0 -11 5 -11 10 0 6 2 10 4
10 3 0 8 -4 11 -10z m2552 -72 c-3 -8 -6 -5 -6 6 -1 11 2 17 5 13 3 -3 4 -12
1 -19z m308 -16 c-1 -29 1 -32 12 -17 7 11 19 15 29 11 15 -6 15 -9 2 -28 -17
-25 -64 -34 -71 -13 -3 7 -18 12 -36 10 -18 -1 -31 2 -31 9 0 7 -3 8 -8 1 -10
-15 -34 -13 -39 3 -3 8 6 12 26 12 42 0 81 17 81 35 0 10 7 15 18 13 12 -2 17
-13 17 -36z m-315 -12 c0 -5 -10 -10 -22 -10 -19 0 -20 2 -8 10 19 13 30 13
30 0z m-2069 -89 c-7 -5 -11 -13 -7 -19 19 -31 -28 -53 -50 -23 -16 21 -6 41
21 41 13 0 27 5 30 11 4 6 10 8 13 4 4 -3 0 -10 -7 -14z m2104 9 c-3 -5 -11
-10 -16 -10 -6 0 -7 5 -4 10 3 6 11 10 16 10 6 0 7 -4 4 -10z m-1628 -57 c-3
-10 -5 -4 -5 12 0 17 2 24 5 18 2 -7 2 -21 0 -30z m1434 17 c10 -22 1 -30 -32
-30 -18 0 -28 -4 -24 -10 3 -5 2 -10 -3 -10 -9 0 -14 48 -6 62 8 13 59 3 65
-12z m89 2 c0 -14 -11 -21 -26 -15 -21 8 -17 23 6 23 11 0 20 -4 20 -8z
m-2320 -38 c0 -14 -4 -22 -10 -19 -5 3 -10 17 -10 31 0 14 4 22 10 19 6 -3 10
-17 10 -31z m776 -51 c-10 -10 -19 5 -10 18 6 11 8 11 12 0 2 -7 1 -15 -2 -18z
m-756 -13 c0 -5 -4 -10 -10 -10 -5 0 -10 5 -10 10 0 6 5 10 10 10 6 0 10 -4
10 -10z m3150 -54 c0 -2 3 -11 6 -20 9 -23 -19 -20 -34 4 -11 18 -10 20 8 20
11 0 20 -2 20 -4z m-3460 -46 c0 -5 -4 -10 -10 -10 -5 0 -10 5 -10 10 0 6 5
10 10 10 6 0 10 -4 10 -10z m680 -50 c0 -5 -7 -10 -15 -10 -8 0 -15 5 -15 10
0 6 7 10 15 10 8 0 15 -4 15 -10z m1465 -130 c3 -5 -1 -10 -9 -10 -9 0 -16 5
-16 10 0 6 4 10 9 10 6 0 13 -4 16 -10z m-2111 -175 c-4 -8 -11 -15 -16 -15
-6 0 -5 6 2 15 7 8 14 15 16 15 2 0 1 -7 -2 -15z m-873 -58 c-10 -9 -11 -8 -5
6 3 10 9 15 12 12 3 -3 0 -11 -7 -18z m-474 -665 c16 -10 29 -72 16 -72 -18 0
-56 49 -50 64 7 18 16 20 34 8z m763 -102 c0 -5 -4 -10 -10 -10 -5 0 -10 5
-10 10 0 6 5 10 10 10 6 0 10 -4 10 -10z m-30 -34 c0 -3 -4 -8 -10 -11 -5 -3
-10 -1 -10 4 0 6 5 11 10 11 6 0 10 -2 10 -4z m40 -41 c0 -24 -5 -35 -15 -35
-17 0 -20 16 -5 25 6 3 10 15 10 26 0 10 2 19 5 19 3 0 5 -16 5 -35z m-365
-203 c-3 -3 -11 0 -18 7 -9 10 -8 11 6 5 10 -3 15 -9 12 -12z m452 -48 c5 -15
-43 -6 -57 11 -8 10 -4 11 22 6 17 -4 33 -11 35 -17z m-67 -359 c0 -8 -4 -15
-10 -15 -5 0 -7 7 -4 15 4 8 8 15 10 15 2 0 4 -7 4 -15z"/>
<path d="M20383 27406 c3 -8 1 -17 -6 -20 -7 -2 -1 -5 13 -5 19 -1 26 4 27 19
1 14 -4 20 -19 20 -13 0 -18 -5 -15 -14z"/>
<path d="M15130 21860 c0 -5 5 -10 11 -10 5 0 7 5 4 10 -3 6 -8 10 -11 10 -2
0 -4 -4 -4 -10z"/>
<path d="M15630 21784 c0 -8 5 -12 10 -9 6 4 8 11 5 16 -9 14 -15 11 -15 -7z"/>
<path d="M15315 21719 c-4 -6 -5 -12 -2 -15 2 -3 7 2 10 11 7 17 1 20 -8 4z"/>
<path d="M13845 20190 c3 -5 10 -10 16 -10 5 0 9 5 9 10 0 6 -7 10 -16 10 -8
0 -12 -4 -9 -10z"/>
<path d="M15056 17077 c3 -10 9 -15 12 -12 3 3 0 11 -7 18 -10 9 -11 8 -5 -6z"/>
<path d="M12938 16609 c-14 -4 -56 -22 -94 -41 -38 -19 -80 -40 -94 -46 -108
-49 -206 -131 -216 -182 -11 -52 70 -160 151 -203 30 -16 219 -55 285 -58 44
-3 100 10 100 22 0 5 11 11 24 15 29 7 52 50 35 70 -6 7 -31 16 -56 20 -47 7
-126 55 -150 90 -12 18 -11 24 4 43 15 18 33 23 108 30 50 4 120 5 157 2 63
-6 67 -5 73 16 10 40 -27 114 -73 150 -57 43 -205 85 -254 72z"/>
<path d="M10205 14182 c-2 -7 -9 -10 -15 -7 -11 7 -13 -6 -4 -29 3 -9 10 -14
14 -11 4 3 4 -12 -1 -32 -5 -25 -4 -40 3 -44 6 -4 9 -12 6 -19 -2 -7 9 -26 25
-41 33 -33 37 -35 37 -13 0 8 4 13 9 9 5 -3 16 4 24 15 7 11 17 17 22 12 4 -4
5 2 1 14 -4 13 -1 26 9 34 17 14 20 30 4 30 -5 0 -7 -5 -3 -12 5 -7 3 -8 -6
-3 -10 6 -10 11 3 20 23 17 22 21 -12 35 -16 6 -28 17 -25 24 3 7 -13 15 -40
22 -36 8 -46 7 -51 -4z"/>
<path d="M11460 13710 c0 -5 5 -10 10 -10 6 0 10 5 10 10 0 6 -4 10 -10 10 -5
0 -10 -4 -10 -10z"/>
<path d="M18157 19202 c-17 -3 -17 -5 -2 -29 9 -13 13 -28 9 -31 -4 -4 -9 -1
-11 6 -3 6 -15 12 -27 12 -20 0 -22 -4 -18 -31 6 -38 30 -69 54 -69 10 0 18
-5 18 -11 0 -6 7 -4 15 5 17 16 20 46 5 46 -5 0 -7 13 -3 30 4 23 2 30 -10 30
-9 0 -19 5 -23 12 -5 8 -2 9 9 5 18 -7 22 1 9 18 -4 6 -15 9 -25 7z"/>
<path d="M18051 19162 c-10 -19 -9 -23 4 -28 21 -8 23 -4 15 26 l-6 25 -13
-23z"/>
<path d="M17610 19140 c0 -5 5 -10 11 -10 5 0 7 5 4 10 -3 6 -8 10 -11 10 -2
0 -4 -4 -4 -10z"/>
<path d="M18226 19095 c-3 -9 0 -15 9 -15 9 0 12 6 9 15 -4 8 -7 15 -9 15 -2
0 -5 -7 -9 -15z"/>
<path d="M18362 18860 c0 -19 2 -27 5 -17 2 9 2 25 0 35 -3 9 -5 1 -5 -18z"/>
<path d="M15525 18820 c3 -5 8 -10 11 -10 2 0 4 5 4 10 0 6 -5 10 -11 10 -5 0
-7 -4 -4 -10z"/>
<path d="M18350 18813 c0 -5 5 -15 10 -23 8 -12 10 -11 10 8 0 12 -4 22 -10
22 -5 0 -10 -3 -10 -7z"/>
<path d="M18382 18720 c0 -14 2 -19 5 -12 2 6 2 18 0 25 -3 6 -5 1 -5 -13z"/>
<path d="M15033 12615 c-13 -14 -18 -27 -13 -30 6 -3 10 -1 10 4 0 6 9 11 20
11 13 0 20 7 20 20 0 26 -10 24 -37 -5z"/>
<path d="M14905 12610 c-3 -5 3 -10 15 -10 12 0 18 5 15 10 -3 6 -10 10 -15
10 -5 0 -12 -4 -15 -10z"/>
<path d="M13363 7575 c0 -22 2 -30 4 -17 2 12 2 30 0 40 -3 9 -5 -1 -4 -23z"/>
<path d="M13140 7590 c0 -5 16 -10 35 -10 19 0 35 5 35 10 0 6 -16 10 -35 10
-19 0 -35 -4 -35 -10z"/>
<path d="M14060 7169 c0 -5 5 -7 10 -4 6 3 10 8 10 11 0 2 -4 4 -10 4 -5 0
-10 -5 -10 -11z"/>
<path d="M14020 7150 c0 -5 5 -10 10 -10 6 0 10 5 10 10 0 6 -4 10 -10 10 -5
0 -10 -4 -10 -10z"/>
<path d="M14075 6950 c3 -5 13 -10 21 -10 8 0 14 5 14 10 0 6 -9 10 -21 10
-11 0 -17 -4 -14 -10z"/>
<path d="M14415 6630 c3 -5 8 -10 11 -10 2 0 4 5 4 10 0 6 -5 10 -11 10 -5 0
-7 -4 -4 -10z"/>
<path d="M14680 6406 c0 -2 7 -6 15 -10 8 -3 15 -1 15 4 0 6 -7 10 -15 10 -8
0 -15 -2 -15 -4z"/>
<path d="M15235 31010 c3 -5 10 -10 16 -10 5 0 9 5 9 10 0 6 -7 10 -16 10 -8
0 -12 -4 -9 -10z"/>
<path d="M15258 30973 c7 -3 16 -2 19 1 4 3 -2 6 -13 5 -11 0 -14 -3 -6 -6z"/>
<path d="M18736 29644 c-9 -23 -8 -24 19 -24 23 0 24 2 13 20 -15 24 -24 25
-32 4z"/>
<path d="M21203 24503 c-18 -6 -16 -43 1 -43 8 0 17 3 19 8 8 13 -8 39 -20 35z"/>
<path d="M8458 16328 c29 -57 55 -69 60 -27 4 30 -38 79 -67 79 -19 0 -19 -2
7 -52z"/>
<path d="M19730 10575 c0 -8 7 -15 15 -15 9 0 12 6 9 15 -4 8 -10 15 -15 15
-5 0 -9 -7 -9 -15z"/>
<path d="M20892 10482 c-21 -14 3 -58 45 -85 169 -107 205 -127 227 -127 14 0
42 -11 62 -25 20 -14 45 -25 55 -25 9 0 43 -22 75 -49 41 -35 78 -56 125 -71
47 -15 73 -30 88 -51 12 -16 29 -29 39 -29 9 -1 32 -9 51 -19 38 -20 158 -137
166 -161 3 -9 27 -27 53 -39 27 -13 56 -36 69 -56 32 -48 80 -81 148 -100 93
-27 129 -50 171 -107 54 -76 49 -115 -11 -82 -27 14 -39 16 -53 8 -27 -17 -27
-51 2 -69 22 -15 27 -15 48 -2 21 14 53 21 87 18 7 -1 30 -18 50 -39 20 -20
86 -82 148 -136 107 -94 112 -100 118 -144 3 -26 10 -72 15 -102 5 -30 12
-100 16 -155 4 -68 14 -121 31 -165 13 -36 31 -87 39 -115 16 -56 19 -220 5
-210 -12 7 -31 -26 -31 -54 0 -25 26 -52 45 -45 8 3 17 16 21 27 12 41 24 48
50 30 37 -24 42 -40 58 -180 15 -132 35 -209 67 -254 30 -43 39 -105 27 -186
-10 -64 -9 -77 11 -136 25 -76 40 -179 50 -367 6 -94 13 -147 26 -175 40 -91
47 -134 40 -249 -8 -128 9 -254 49 -360 13 -35 34 -108 45 -163 11 -54 26
-114 32 -133 7 -20 12 -102 13 -190 1 -142 3 -158 23 -190 41 -64 61 -114 78
-195 9 -44 22 -109 30 -145 8 -36 19 -118 24 -182 11 -122 18 -146 57 -188 33
-36 71 -134 79 -205 4 -33 17 -100 30 -150 12 -49 25 -119 29 -155 5 -50 13
-75 36 -107 39 -54 58 -115 69 -226 8 -71 17 -102 50 -166 32 -64 45 -104 61
-203 12 -68 35 -171 52 -230 29 -102 30 -108 15 -150 -20 -60 -4 -101 47 -118
74 -24 146 -143 146 -240 0 -71 22 -140 66 -205 55 -81 68 -108 89 -190 10
-38 35 -111 56 -160 22 -54 40 -117 45 -155 8 -82 44 -205 83 -292 24 -55 37
-71 69 -87 63 -32 86 -73 91 -158 3 -67 6 -75 33 -98 16 -14 33 -25 38 -25 18
0 52 -74 75 -165 18 -69 38 -118 69 -169 62 -98 95 -178 112 -265 8 -41 21
-88 30 -105 36 -70 84 -234 84 -287 0 -18 14 -61 30 -96 17 -34 30 -66 30 -70
0 -3 11 -34 24 -67 14 -34 29 -90 34 -126 5 -36 22 -127 38 -202 l29 -138
1274 0 1273 0 -6 38 c-23 147 -14 255 28 347 22 48 22 57 17 250 -8 273 -4
571 10 685 20 169 24 371 15 805 -5 228 -4 282 10 345 13 59 15 93 8 160 -14
131 -8 361 10 423 25 87 26 123 5 194 -30 106 -34 211 -14 355 14 102 15 133
5 162 -6 19 -9 45 -5 55 3 11 -1 66 -9 123 -21 145 -16 564 8 626 15 39 15 45
1 73 -16 29 -21 66 -50 337 -20 188 -19 247 5 317 24 70 26 156 4 216 -10 31
-16 96 -20 219 -2 96 -9 228 -15 293 -11 115 -9 156 13 267 9 46 8 64 -5 105
-9 28 -23 104 -31 170 -15 121 -30 180 -43 172 -20 -13 -22 172 -4 317 12 95
11 101 -8 127 -23 31 -27 54 -11 64 17 11 11 35 -16 63 -14 15 -34 46 -45 70
-27 61 -362 392 -397 392 -38 0 -92 60 -92 104 0 44 -18 56 -40 26 -9 -12 -22
-21 -28 -19 -5 2 -52 42 -103 89 -117 108 -112 103 -154 155 -55 66 -124 120
-138 106 -17 -17 -57 -13 -63 7 -11 35 -21 46 -52 56 -45 16 -53 27 -57 85 -5
60 -34 104 -95 146 -24 16 -43 39 -46 54 -3 14 -7 31 -9 37 -2 6 -28 15 -58
18 -45 6 -63 14 -98 47 -23 21 -49 39 -56 39 -20 0 -56 20 -66 36 -4 8 -21 14
-37 14 -16 0 -41 11 -57 24 -22 19 -43 24 -100 28 -57 3 -77 8 -96 26 -13 12
-32 22 -43 22 -11 0 -35 11 -54 25 -23 17 -47 25 -74 25 -29 0 -49 7 -70 25
-16 14 -40 25 -54 25 -14 0 -35 11 -48 25 -13 14 -34 25 -47 25 -13 0 -32 9
-41 19 -10 10 -32 22 -49 25 -18 3 -40 15 -50 26 -9 11 -29 20 -45 20 -15 0
-37 7 -49 15 -14 10 -24 12 -28 5 -3 -6 -47 -10 -97 -10 -80 0 -95 3 -115 22
-20 18 -33 21 -95 20 l-72 -2 -39 42 c-22 24 -74 79 -116 123 -75 78 -77 80
-126 81 -75 1 -75 1 -75 39 0 30 -9 44 -62 95 -38 36 -72 59 -86 60 -12 0 -40
13 -62 29 -39 28 -44 29 -120 24 -74 -5 -81 -4 -110 21 -17 14 -42 26 -55 26
-12 0 -28 7 -35 15 -17 21 -29 19 -51 -7 l-18 -23 -49 53 c-45 48 -52 52 -95
52 -34 0 -53 6 -75 25 -26 22 -40 25 -104 25 l-74 0 -51 50 c-45 44 -56 50
-95 50 -37 0 -49 6 -86 44 -40 40 -49 44 -101 48 -42 3 -63 10 -79 26 -17 17
-34 22 -71 22 -41 0 -51 4 -66 26 -15 23 -22 25 -72 22 l-56 -3 -21 40 c-20
37 -25 40 -76 47 -30 4 -109 8 -175 10 -111 3 -123 1 -158 -21 -25 -15 -46
-21 -62 -17 -19 5 -27 1 -36 -16 -18 -35 -27 -38 -135 -38 -78 0 -104 3 -114
15 -7 8 -18 15 -25 15 -7 0 -18 -7 -25 -15 -19 -23 -121 -20 -151 4 -13 10
-35 22 -49 26 -14 4 -42 25 -64 46 -29 30 -46 39 -73 39 -28 0 -37 6 -54 35
l-21 35 -25 -30 c-29 -36 -71 -40 -98 -10 -10 11 -28 20 -41 20 -38 0 -54 11
-54 37 0 42 -18 63 -53 63 -18 0 -45 9 -61 19 -17 11 -58 23 -95 27 -36 4 -80
13 -98 20 -37 16 -43 17 -61 6z m5568 -2101 c0 -6 -5 -13 -10 -16 -15 -9 -43
3 -35 15 8 13 45 13 45 1z"/>
<path d="M12457 10073 c-26 -7 -2 -33 29 -33 17 0 24 6 24 20 0 20 -14 23 -53
13z"/>
<path d="M12629 10062 c-28 -10 -39 -42 -13 -42 14 0 14 -3 4 -15 -10 -13 -9
-15 11 -16 28 -2 93 2 97 6 18 17 -69 76 -99 67z"/>
<path d="M9940 9837 c-25 -13 -70 -37 -100 -54 -30 -17 -95 -47 -145 -66 -49
-19 -103 -42 -120 -51 -16 -9 -39 -16 -50 -16 -11 0 -42 -11 -70 -24 -97 -47
-251 -116 -259 -116 -4 0 -32 -11 -62 -25 -30 -14 -62 -25 -71 -25 -9 0 -35
-11 -57 -24 -23 -13 -60 -29 -83 -35 -23 -6 -49 -18 -57 -26 -8 -9 -50 -30
-93 -49 -82 -35 -260 -127 -303 -156 -43 -29 -113 -62 -173 -81 -32 -10 -79
-30 -105 -43 -62 -32 -151 -72 -182 -81 -14 -4 -57 -25 -96 -46 -39 -21 -89
-41 -110 -45 -22 -3 -52 -15 -69 -24 -16 -10 -64 -32 -105 -48 -101 -41 -203
-88 -395 -182 -163 -80 -250 -120 -261 -120 -3 0 -35 -14 -72 -31 -37 -18 -98
-47 -137 -65 -38 -18 -117 -51 -175 -74 -105 -42 -153 -64 -265 -127 -33 -18
-85 -45 -115 -59 -65 -30 -110 -70 -110 -97 0 -20 -22 -47 -39 -47 -6 0 -11
-4 -11 -9 0 -5 -14 -11 -31 -15 -43 -8 -99 -36 -129 -63 -14 -13 -32 -25 -40
-28 -8 -3 -24 -18 -35 -35 -11 -16 -25 -30 -32 -30 -6 0 -13 -4 -15 -10 -1 -5
-20 -10 -41 -12 -21 -1 -43 -8 -49 -15 -6 -7 -32 -25 -59 -40 -27 -14 -49 -30
-49 -35 0 -4 -7 -8 -15 -8 -9 0 -21 -5 -28 -10 -7 -6 -33 -26 -58 -45 -40 -29
-47 -40 -52 -79 -8 -54 -59 -171 -89 -203 -20 -21 -178 -475 -178 -512 0 -9
-16 -54 -35 -101 -20 -47 -42 -121 -51 -165 -8 -44 -24 -119 -35 -166 -11 -52
-19 -124 -19 -179 0 -51 -6 -118 -14 -149 -8 -31 -17 -85 -21 -121 -4 -36 -16
-99 -26 -140 -11 -41 -24 -122 -30 -180 -5 -58 -21 -150 -34 -205 -13 -55 -29
-147 -35 -205 -6 -58 -20 -141 -30 -185 -11 -44 -24 -127 -30 -183 -13 -117
-20 -142 -58 -192 -27 -34 -27 -37 -24 -165 2 -83 -2 -161 -12 -215 -8 -47
-22 -143 -31 -215 -9 -71 -23 -162 -31 -202 -7 -40 -14 -108 -14 -152 0 -89
-10 -124 -45 -161 -38 -40 -47 -104 -34 -231 10 -85 10 -128 1 -187 -7 -42
-14 -135 -17 -207 -3 -71 -12 -179 -20 -240 -8 -60 -15 -133 -15 -160 0 -50
-14 -111 -43 -190 -12 -32 -12 -52 -4 -103 9 -51 8 -79 -7 -155 -10 -50 -21
-137 -23 -192 -3 -55 -10 -109 -17 -120 -6 -11 -12 -69 -13 -130 -1 -60 -4
-222 -7 -360 -7 -312 -10 -872 -8 -1112 l2 -183 1369 0 1368 0 7 92 c9 122 44
272 143 607 13 46 31 119 38 163 14 80 47 165 83 216 11 15 23 47 27 72 9 55
26 90 76 156 45 58 65 103 80 176 10 51 76 328 121 508 11 47 29 111 39 142
10 32 23 85 29 118 13 72 60 198 122 330 25 52 49 106 53 120 4 14 22 52 40
85 22 43 38 95 54 185 14 74 47 195 81 295 65 190 78 220 136 320 23 39 45 86
49 105 4 19 25 78 47 133 22 54 46 133 55 175 9 42 27 99 40 126 14 27 45 110
69 184 49 150 80 213 131 269 26 28 37 51 43 90 10 60 15 71 46 95 23 19 48
124 59 253 7 83 22 157 50 245 12 41 30 122 39 179 11 69 27 129 50 180 31 68
42 111 61 232 3 20 28 83 55 139 28 55 50 107 50 114 0 6 29 68 64 136 83 164
83 164 41 230 -19 30 -38 70 -41 89 -4 20 1 123 10 231 10 107 24 278 31 380
24 339 71 615 142 840 50 154 60 205 55 262 -4 54 -3 58 31 92 19 19 40 50 46
68 5 18 26 87 46 153 20 66 47 136 60 155 12 19 40 84 60 144 20 60 55 148 76
194 22 46 51 125 65 176 37 135 44 155 77 210 53 90 103 190 117 231 7 22 22
58 35 80 12 22 26 50 29 63 6 18 4 22 -16 22 -13 0 -43 -11 -68 -23z m-372
-329 c4 -23 -24 -52 -43 -44 -9 3 -28 -7 -44 -23 -16 -16 -31 -27 -33 -25 -2
2 -17 0 -34 -5 -16 -4 -46 -3 -66 2 l-38 9 24 19 c13 11 34 19 45 19 12 0 24
6 27 14 3 8 19 20 35 26 16 7 29 17 29 22 0 5 21 8 47 6 36 -2 49 -7 51 -20z"/>
<path d="M21213 9818 c-13 -6 -23 -16 -23 -23 0 -17 22 -35 41 -35 25 0 74 44
65 58 -9 15 -53 14 -83 0z"/>
<path d="M21575 9750 c-3 -5 3 -10 14 -10 11 0 23 5 26 10 3 6 -3 10 -14 10
-11 0 -23 -4 -26 -10z"/>
<path d="M13073 9423 c-18 -7 -16 -20 2 -20 8 0 15 6 15 14 0 7 -1 13 -2 12
-2 0 -9 -3 -15 -6z"/>
<path d="M21975 9364 c-17 -13 -18 -16 -5 -24 20 -13 26 -12 40 5 11 14 6 35
-8 35 -4 0 -16 -7 -27 -16z"/>
<path d="M22236 9311 c-4 -5 -6 -24 -5 -43 2 -35 -16 -142 -26 -157 -8 -14 32
-23 53 -12 32 17 44 40 48 87 2 37 -3 53 -27 90 -32 47 -35 49 -43 35z"/>
<path d="M21476 9054 c-21 -21 -20 -57 2 -77 24 -22 39 -21 52 2 32 60 -11
119 -54 75z"/>
<path d="M22538 8549 c-24 -14 -25 -77 -1 -86 20 -8 76 51 71 75 -4 20 -45 26
-70 11z"/>
<path d="M22610 8230 c-7 -13 -7 -50 -1 -117 13 -125 22 -155 51 -170 13 -6
27 -19 32 -27 11 -20 42 -21 58 -1 23 28 -6 95 -42 95 -27 0 -31 19 -20 97 12
87 7 118 -24 132 -34 15 -42 14 -54 -9z"/>
<path d="M21966 7715 c-20 -20 -21 -17 9 -49 32 -34 63 -34 71 1 4 14 2 33 -3
42 -14 22 -57 25 -77 6z"/>
<path d="M5215 7563 c-34 -7 -79 -26 -97 -41 -48 -41 48 -45 100 -4 20 15 45
32 56 39 20 11 19 12 -9 10 -16 0 -39 -2 -50 -4z"/>
<path d="M22656 7547 c-26 -19 -17 -52 14 -52 29 0 37 22 18 48 -11 15 -16 16
-32 4z"/>
<path d="M22048 7335 c2 -14 6 -25 8 -25 2 0 4 11 4 25 0 14 -4 25 -9 25 -4 0
-6 -11 -3 -25z"/>
<path d="M4588 7259 c-79 -51 -55 -60 31 -12 36 20 52 43 29 43 -7 0 -34 -14
-60 -31z"/>
<path d="M4380 7128 c-19 -13 -55 -32 -80 -42 -25 -9 -74 -37 -110 -60 -36
-24 -104 -62 -152 -86 -49 -23 -88 -46 -88 -50 0 -4 -15 -13 -32 -20 -79 -29
-107 -43 -102 -51 3 -5 -2 -6 -10 -3 -8 3 -34 -5 -58 -19 -24 -13 -60 -27 -80
-31 -60 -11 -158 -61 -158 -80 0 -5 23 -6 52 -2 56 8 133 47 149 77 6 12 20
19 39 19 29 0 80 18 80 29 0 3 13 6 29 7 16 1 53 10 83 21 29 11 78 28 108 37
31 8 82 35 115 59 33 23 80 55 105 69 25 15 61 41 80 57 19 17 38 31 42 31 10
0 30 39 26 51 -2 6 -19 0 -38 -13z"/>
<path d="M22340 6918 c0 -32 17 -46 26 -23 4 9 0 24 -10 33 -15 15 -16 14 -16
-10z"/>
<path d="M10857 6890 c-43 -24 -62 -61 -47 -90 5 -10 10 -66 10 -125 0 -99 -2
-107 -25 -130 -13 -14 -34 -25 -46 -25 -17 0 -20 4 -15 23 43 148 54 248 30
271 -11 12 -21 12 -47 4 -17 -6 -88 -23 -157 -37 -86 -19 -148 -39 -198 -64
-40 -21 -98 -47 -130 -58 -92 -34 -96 -52 -30 -128 32 -36 47 -69 55 -116 6
-39 9 -41 31 -22 33 30 60 22 71 -20 6 -21 11 -52 11 -70 0 -17 7 -67 15 -110
8 -43 22 -132 31 -197 8 -66 17 -123 20 -127 2 -4 9 -63 14 -131 5 -68 16
-154 24 -193 8 -38 18 -112 22 -165 4 -62 16 -120 32 -165 37 -104 61 -221 62
-300 0 -102 35 -293 80 -430 42 -131 70 -266 141 -675 6 -36 24 -121 39 -190
16 -69 31 -150 35 -180 4 -30 20 -109 36 -175 16 -66 35 -158 44 -205 8 -47
24 -130 35 -185 11 -55 25 -136 29 -180 7 -58 19 -101 45 -157 20 -42 47 -126
61 -185 14 -59 43 -173 65 -253 21 -80 51 -199 65 -265 15 -66 37 -160 50
-210 13 -49 29 -121 36 -160 6 -38 28 -115 49 -170 21 -55 47 -136 59 -180 11
-44 31 -125 45 -180 45 -176 69 -278 82 -355 8 -41 21 -91 29 -110 21 -50 99
-300 121 -392 l19 -78 313 0 c171 0 312 3 312 8 0 8 -42 220 -69 347 -10 50
-28 113 -39 140 -10 28 -22 68 -26 90 -4 22 -20 81 -36 130 -16 50 -38 136
-50 192 -11 57 -30 123 -41 148 -19 42 -33 133 -43 267 -3 44 -10 64 -34 95
-17 21 -35 58 -41 83 -5 25 -17 77 -27 115 -9 39 -20 93 -24 120 -4 28 -21 97
-38 155 -17 58 -34 139 -37 180 -3 41 -12 93 -20 115 -33 102 -44 146 -55 225
-22 167 -52 356 -61 385 -5 17 -12 55 -15 85 -4 39 -16 71 -41 113 -40 64 -62
150 -63 240 0 37 -10 84 -26 130 -30 83 -50 167 -58 248 -3 30 -16 91 -30 133
-14 43 -35 137 -45 209 -11 73 -26 150 -34 172 -7 22 -19 87 -27 145 -7 58
-23 140 -36 183 -17 55 -27 120 -33 221 -7 109 -13 152 -29 182 -40 79 -72
195 -97 345 -14 84 -25 166 -25 181 0 15 -11 62 -25 106 -14 43 -31 132 -39
198 -8 65 -24 144 -36 174 -13 32 -28 108 -36 180 -9 73 -26 156 -41 200 -33
98 -37 235 -8 299 16 37 17 49 7 86 -19 72 12 129 58 105 10 -6 28 -10 39 -10
17 0 21 6 21 34 0 72 -51 147 -99 145 -14 0 -48 2 -76 5 -40 5 -58 2 -88 -14z"/>
<path d="M22624 6807 c-8 -21 2 -35 16 -21 5 5 6 15 0 24 -8 12 -10 12 -16 -3z"/>
<path d="M22940 6779 c-15 -27 -9 -63 11 -67 19 -3 33 39 24 69 -8 25 -22 24
-35 -2z"/>
<path d="M16215 6710 c-3 -5 3 -10 15 -10 12 0 18 5 15 10 -3 6 -10 10 -15 10
-5 0 -12 -4 -15 -10z"/>
<path d="M11133 6663 c-25 -10 -12 -42 38 -95 36 -37 66 -85 101 -158 27 -58
55 -108 61 -112 43 -27 115 19 103 65 -5 20 -145 163 -222 228 -11 8 -30 29
-44 46 -14 17 -31 29 -37 26z"/>
<path d="M3363 6636 c-90 -38 -101 -70 -16 -47 51 13 69 24 84 53 13 24 -1 23
-68 -6z"/>
<path d="M22315 6573 c2 -10 4 -21 4 -25 1 -5 8 -8 16 -8 9 0 15 9 15 25 0 18
-5 25 -19 25 -13 0 -18 -6 -16 -17z"/>
<path d="M17780 6571 c0 -5 16 -9 35 -8 19 1 35 5 35 9 0 4 -16 8 -35 8 -19 0
-35 -4 -35 -9z"/>
<path d="M17725 6530 c-3 -5 -1 -10 4 -10 6 0 11 5 11 10 0 6 -2 10 -4 10 -3
0 -8 -4 -11 -10z"/>
<path d="M17850 6529 c0 -5 5 -7 10 -4 6 3 10 8 10 11 0 2 -4 4 -10 4 -5 0
-10 -5 -10 -11z"/>
<path d="M22560 6490 c0 -18 3 -19 21 -9 17 9 19 13 8 20 -22 14 -29 11 -29
-11z"/>
<path d="M10232 6332 l-34 -28 37 -29 c42 -31 67 -26 73 14 4 22 -22 71 -36
71 -4 0 -22 -13 -40 -28z"/>
<path d="M11457 6224 c-17 -18 -3 -57 39 -108 46 -58 98 -94 109 -76 8 12 -25
73 -72 135 -37 48 -61 63 -76 49z"/>
<path d="M2788 6128 c-35 -56 -56 -85 -90 -130 -16 -20 -35 -52 -43 -72 -15
-34 -14 -36 2 -25 54 36 183 219 183 260 0 23 -28 5 -52 -33z"/>
<path d="M22516 6145 c-7 -20 3 -44 24 -55 42 -23 68 21 32 53 -23 21 -48 22
-56 2z"/>
<path d="M14340 5930 c0 -5 5 -10 10 -10 6 0 10 5 10 10 0 6 -4 10 -10 10 -5
0 -10 -4 -10 -10z"/>
<path d="M14377 5907 c-3 -8 -3 -18 0 -21 11 -11 53 -6 53 5 0 6 -7 9 -15 5
-8 -3 -18 2 -23 11 -8 13 -10 13 -15 0z"/>
<path d="M14456 5904 c-4 -10 -1 -14 6 -12 15 5 23 28 10 28 -5 0 -13 -7 -16
-16z"/>
<path d="M14120 5846 c0 -8 5 -18 10 -21 6 -3 10 3 10 14 0 12 -4 21 -10 21
-5 0 -10 -6 -10 -14z"/>
<path d="M14458 5853 c6 -2 18 -2 25 0 6 3 1 5 -13 5 -14 0 -19 -2 -12 -5z"/>
<path d="M14238 5843 c-10 -3 -18 -9 -18 -15 0 -6 -12 -8 -30 -4 -19 3 -30 1
-30 -6 0 -11 95 -7 107 6 10 10 -10 23 -29 19z"/>
<path d="M13550 5829 c0 -5 5 -7 10 -4 6 3 10 8 10 11 0 2 -4 4 -10 4 -5 0
-10 -5 -10 -11z"/>
<path d="M14070 5830 c0 -6 7 -10 15 -10 8 0 15 2 15 4 0 2 -7 6 -15 10 -8 3
-15 1 -15 -4z"/>
<path d="M17262 5721 c-3 -39 27 -51 48 -20 24 37 21 49 -14 49 -28 0 -32 -4
-34 -29z"/>
<path d="M17466 5743 c-3 -4 -6 -15 -6 -25 0 -32 64 -21 66 12 1 15 -47 25
-60 13z"/>
<path d="M23175 5530 c-18 -36 -45 -170 -34 -170 4 0 16 12 26 26 10 14 30 41
46 59 29 34 34 64 17 96 -15 28 -37 23 -55 -11z"/>
<path d="M14168 5543 c7 -3 16 -2 19 1 4 3 -2 6 -13 5 -11 0 -14 -3 -6 -6z"/>
<path d="M22530 5490 c0 -5 5 -10 11 -10 5 0 7 5 4 10 -3 6 -8 10 -11 10 -2 0
-4 -4 -4 -10z"/>
<path d="M2356 5441 c-4 -7 -5 -15 -2 -18 9 -9 19 4 14 18 -4 11 -6 11 -12 0z"/>
<path d="M20627 5356 c-20 -7 -43 -19 -51 -25 -18 -15 -182 -52 -276 -61 -83
-9 -200 -47 -267 -86 -24 -14 -43 -26 -43 -27 -1 -1 -7 -36 -16 -77 -8 -41
-19 -118 -25 -170 -12 -109 -45 -301 -64 -375 -7 -27 -16 -84 -20 -125 -3 -41
-12 -100 -20 -130 -7 -30 -17 -102 -22 -160 -7 -85 -14 -112 -34 -142 -30 -47
-117 -90 -249 -124 -152 -40 -190 -55 -260 -103 -54 -37 -86 -50 -195 -78 -71
-18 -159 -38 -195 -43 -94 -16 -371 -111 -489 -168 -41 -20 -76 -27 -151 -32
-75 -6 -105 -12 -127 -28 -36 -25 -56 -62 -51 -93 4 -33 31 -35 63 -5 39 36
85 13 85 -44 0 -44 -26 -58 -100 -55 -62 2 -65 3 -78 34 l-13 32 -64 -45 c-35
-25 -75 -50 -90 -56 -28 -11 -181 -144 -189 -165 -10 -27 19 -47 68 -49 50 -1
76 -21 76 -58 0 -11 7 -18 20 -18 11 0 20 3 21 8 4 46 13 73 45 130 21 37 45
72 53 79 16 12 150 11 182 -2 20 -8 59 -142 59 -204 0 -46 -3 -52 -47 -91
l-48 -42 27 -23 c17 -14 35 -21 47 -18 26 7 44 61 36 106 -7 38 6 86 55 190
39 82 65 101 81 60 22 -57 10 -156 -32 -272 -11 -30 -27 -91 -35 -134 -21
-109 -64 -198 -120 -243 -41 -34 -44 -40 -44 -86 0 -91 -40 -257 -85 -353 -23
-49 -50 -121 -60 -160 -10 -38 -38 -126 -62 -195 -25 -69 -60 -173 -79 -232
-21 -62 -48 -123 -64 -144 -16 -20 -32 -53 -35 -73 -4 -20 -18 -63 -31 -95
-14 -33 -34 -97 -44 -143 -11 -46 -36 -115 -56 -155 -20 -39 -42 -96 -50 -125
-8 -30 -31 -95 -53 -146 -21 -51 -53 -136 -71 -190 -22 -67 -45 -115 -75 -155
-26 -34 -46 -73 -50 -97 -4 -22 -9 -48 -12 -57 -4 -17 19 -18 389 -18 l393 1
22 47 c13 26 28 72 34 102 16 76 81 213 129 271 37 43 42 55 50 128 10 88 18
110 53 138 57 45 69 74 74 184 5 91 10 117 45 204 22 55 46 110 53 121 8 12
24 62 35 110 14 58 33 107 55 139 58 88 92 167 99 233 8 68 33 121 71 146 13
8 29 32 35 53 7 21 21 52 31 69 12 19 23 66 29 125 10 91 45 213 88 303 11 22
28 73 37 111 9 39 32 111 51 160 20 50 44 115 55 145 34 90 91 193 126 226 18
17 33 38 33 45 0 8 9 25 19 38 15 20 21 22 40 11 18 -9 27 -8 47 5 44 28 26
101 -22 89 -12 -3 -26 1 -34 11 -11 13 -11 20 0 40 7 14 19 25 26 25 19 0 50
48 80 126 21 55 27 88 28 159 2 106 11 128 80 180 40 30 59 38 97 39 32 1 55
9 69 21 21 19 22 19 56 -20 l34 -40 19 22 c22 27 61 182 59 238 -1 25 12 73
33 125 29 74 33 95 31 161 -3 86 22 192 63 273 24 45 24 51 10 72 -21 33 -18
108 8 184 29 84 44 92 162 82 l88 -7 17 -64 c19 -66 16 -90 -14 -149 -18 -35
-25 -37 -72 -20 -27 9 -36 8 -60 -8 -16 -11 -42 -21 -59 -23 -43 -4 -53 -18
-21 -31 15 -5 33 -10 39 -10 7 0 24 -20 39 -44 18 -31 35 -46 56 -51 26 -5 32
-13 45 -62 16 -53 15 -59 -3 -97 -22 -47 -40 -71 -58 -77 -18 -6 28 -69 50
-69 33 0 53 48 53 130 0 57 5 84 19 104 10 15 27 56 38 89 11 34 29 72 41 85
l21 22 -22 53 c-26 63 -27 86 -6 169 23 89 36 101 105 96 146 -11 249 -162
158 -231 -14 -10 -41 -22 -60 -27 -73 -19 -129 -43 -129 -56 0 -14 48 -30 117
-41 25 -3 51 -15 64 -29 21 -22 24 -23 41 -7 10 9 18 20 18 25 0 5 11 21 25
35 29 32 40 75 26 102 -15 27 -14 73 2 96 8 11 20 42 27 68 7 26 26 66 41 87
16 22 29 43 29 46 0 4 -13 22 -30 41 -16 18 -30 40 -30 47 0 21 74 121 93 124
9 2 36 -6 59 -17 24 -11 60 -27 81 -35 29 -12 37 -20 37 -40 0 -21 -13 -31
-87 -68 -48 -23 -89 -47 -90 -53 -1 -5 16 -22 38 -37 29 -21 51 -28 85 -28 44
0 46 -2 62 -40 9 -22 20 -40 24 -40 3 0 20 30 38 67 17 37 42 82 55 99 21 28
22 34 10 50 -8 11 -15 35 -15 55 0 41 21 65 88 98 47 24 48 27 27 58 -21 30
-73 42 -245 59 -231 23 -379 27 -423 10z m43 -180 c14 -6 31 -23 38 -38 11
-24 10 -31 -4 -53 -23 -35 -49 -48 -114 -56 -30 -4 -71 -10 -91 -14 -32 -6
-40 -4 -63 21 -20 22 -25 35 -21 54 12 47 46 90 78 98 39 11 143 4 177 -12z
m-466 -73 c29 -45 25 -50 -58 -78 -55 -19 -56 -19 -71 0 -20 26 -12 74 16 98
12 9 36 17 55 17 28 0 38 -6 58 -37z m72 -38 c-21 -16 -32 -13 -21 4 3 6 14
11 23 11 15 -1 15 -2 -2 -15z m-1856 -1744 c22 -42 3 -127 -37 -163 -26 -24
-39 -11 -52 53 -12 58 -3 105 22 121 22 14 56 8 67 -11z"/>
<path d="M14395 5330 c3 -5 11 -10 16 -10 6 0 7 5 4 10 -3 6 -11 10 -16 10 -6
0 -7 -4 -4 -10z"/>
<path d="M12270 5291 c0 -10 7 -24 15 -31 12 -10 15 -10 15 3 0 23 -11 47 -21
47 -5 0 -9 -8 -9 -19z"/>
<path d="M21858 5259 c-23 -13 -23 -39 0 -39 24 0 42 19 35 36 -6 16 -12 17
-35 3z"/>
<path d="M22136 5257 c-21 -15 -17 -38 14 -77 23 -30 36 -21 44 30 8 53 -20
75 -58 47z"/>
<path d="M23084 5229 c-15 -17 -19 -36 -19 -100 0 -45 4 -79 10 -80 20 -4 55
75 55 123 0 49 -7 78 -20 78 -4 0 -15 -9 -26 -21z"/>
<path d="M2224 5222 c-6 -4 -35 -65 -64 -137 -29 -71 -63 -155 -77 -185 -13
-30 -35 -104 -48 -165 -14 -60 -31 -132 -40 -159 -18 -60 -25 -124 -15 -151 7
-17 11 -12 30 30 12 28 26 75 32 105 24 127 110 393 170 523 32 70 47 114 43
127 -7 21 -13 24 -31 12z"/>
<path d="M21465 5054 c-25 -9 -54 -12 -79 -8 -44 7 -43 -10 1 -21 16 -3 44
-25 64 -48 l36 -41 27 28 c30 34 33 56 9 84 -17 19 -21 19 -58 6z"/>
<path d="M21796 4975 c-9 -9 -16 -27 -16 -39 0 -30 20 -86 30 -86 13 0 22 38
22 83 -1 49 -14 64 -36 42z"/>
<path d="M14420 4920 c0 -5 5 -10 11 -10 5 0 7 5 4 10 -3 6 -8 10 -11 10 -2 0
-4 -4 -4 -10z"/>
<path d="M23045 4861 c-8 -14 3 -89 15 -96 13 -8 24 17 22 50 -3 35 -26 63
-37 46z"/>
<path d="M20195 4847 c-4 -10 -5 -21 -1 -24 10 -10 18 4 13 24 -4 17 -4 17
-12 0z"/>
<path d="M14548 4826 c-27 -20 -23 -59 7 -73 14 -6 25 -7 25 -2 0 5 7 9 16 9
8 0 22 7 31 15 8 8 18 13 23 10 13 -8 31 21 24 40 -5 13 -9 14 -16 3 -7 -10
-11 -10 -15 0 -6 16 -73 15 -95 -2z"/>
<path d="M21055 4694 c-22 -28 -25 -38 -14 -44 9 -6 20 1 36 23 25 34 28 43
14 51 -5 3 -21 -10 -36 -30z"/>
<path d="M16611 4600 c-13 -11 -19 -20 -14 -20 6 0 18 9 28 20 23 25 17 25
-14 0z"/>
<path d="M20630 4348 c-21 -35 -24 -47 -14 -72 9 -23 30 -20 48 6 20 28 21 72
1 88 -12 10 -18 6 -35 -22z"/>
<path d="M1896 4184 c-3 -9 -6 -32 -6 -52 1 -45 14 -26 23 31 6 37 -5 51 -17
21z"/>
<path d="M20209 4008 c-37 -32 -43 -47 -24 -68 25 -27 53 -25 67 5 8 19 8 31
0 50 -13 28 -22 31 -43 13z"/>
<path d="M20580 3975 c-10 -12 -9 -16 5 -21 17 -7 38 13 29 28 -8 12 -20 10
-34 -7z"/>
<path d="M16055 3971 c-6 -11 9 -23 19 -14 9 9 7 23 -3 23 -6 0 -12 -4 -16 -9z"/>
<path d="M1843 3907 c-120 -349 -151 -522 -168 -942 -17 -442 -26 -639 -35
-800 -5 -99 -12 -297 -14 -440 -3 -143 -10 -318 -17 -390 -7 -78 -9 -227 -6
-375 5 -265 3 -248 113 -785 14 -66 27 -132 30 -148 5 -26 7 -27 77 -27 l72 0
0 68 c-1 52 -6 76 -23 104 -19 30 -22 50 -22 136 0 62 5 112 14 132 11 28 11
39 -1 79 -8 25 -15 58 -15 72 1 30 63 147 92 174 27 24 25 55 -5 115 -68 134
12 113 124 -33 32 -42 65 -83 74 -92 10 -9 17 -24 18 -33 0 -29 11 -102 18
-128 l6 -25 29 22 28 22 71 -36 c39 -20 73 -35 74 -33 9 8 -20 72 -46 102 -36
40 -36 40 -15 89 18 43 12 79 -19 118 -27 35 -52 28 -72 -19 -24 -58 -47 -45
-90 49 -23 49 -58 103 -87 134 -26 28 -48 61 -48 72 0 29 -13 26 -40 -9 -13
-16 -31 -30 -41 -30 -20 0 -54 58 -90 155 -22 60 -33 72 -53 56 -17 -14 -26
-4 -26 31 0 36 16 68 34 68 16 0 60 39 75 68 17 32 -12 90 -53 107 -27 12 -35
22 -45 59 -22 88 -9 196 23 196 8 0 28 -17 44 -37 25 -31 33 -36 44 -25 16 16
16 83 -1 187 -8 49 -10 108 -6 152 9 99 -2 156 -40 212 -19 27 -38 66 -44 87
-20 79 -18 839 3 959 8 44 14 130 14 192 0 126 15 215 43 252 12 16 21 49 24
86 5 72 -6 99 -22 52z m-105 -2829 c5 -7 17 -35 26 -61 9 -26 26 -66 37 -89
17 -34 21 -61 22 -162 l2 -121 -34 -48 c-30 -43 -35 -47 -48 -34 -15 15 -21
56 -43 282 -13 142 -13 188 2 220 13 28 21 31 36 13z"/>
<path d="M28533 3840 c-1 -27 3 -50 8 -50 5 0 9 7 10 15 3 57 1 79 -7 82 -6 2
-11 -19 -11 -47z"/>
<path d="M15937 3853 c-13 -13 -7 -32 8 -27 8 4 15 12 15 20 0 15 -12 19 -23
7z"/>
<path d="M15845 3740 c-10 -11 -15 -20 -11 -20 4 0 16 9 28 20 12 11 17 20 11
20 -5 0 -18 -9 -28 -20z"/>
<path d="M19786 3584 c-37 -37 -24 -107 17 -91 18 7 31 59 22 87 -8 24 -18 25
-39 4z"/>
<path d="M15445 3317 c-21 -30 -19 -57 4 -57 22 0 51 35 51 60 0 24 -38 22
-55 -3z"/>
<path d="M2100 3224 c0 -8 5 -12 10 -9 6 3 10 10 10 16 0 5 -4 9 -10 9 -5 0
-10 -7 -10 -16z"/>
<path d="M17385 2886 c-102 -49 -159 -66 -222 -66 -70 0 -126 -17 -159 -47
l-25 -23 21 -28 c12 -16 27 -50 34 -77 6 -27 17 -50 22 -52 6 -2 18 13 27 34
9 21 25 59 35 84 17 39 25 47 53 52 19 4 52 4 74 0 55 -8 75 -8 113 1 33 8 33
7 59 -52 l27 -60 43 69 c43 69 43 70 36 132 -8 60 -9 62 -38 64 -17 1 -60 -12
-100 -31z"/>
<path d="M17803 2818 c-18 -13 -33 -29 -33 -36 0 -18 52 -92 65 -92 16 0 65
64 65 86 0 20 -38 64 -56 64 -5 0 -24 -10 -41 -22z"/>
<path d="M16889 2741 c-23 -18 -23 -18 -2 -29 28 -15 70 12 52 34 -15 18 -22
18 -50 -5z"/>
<path d="M2287 2743 c-11 -10 -8 -62 3 -84 14 -25 26 -24 45 5 15 22 15 27 0
55 -15 29 -34 39 -48 24z"/>
<path d="M16660 2715 c-47 -13 -102 -31 -122 -39 -38 -16 -49 -34 -25 -40 60
-16 127 -41 127 -48 0 -18 28 -6 48 22 12 16 48 47 79 67 31 21 57 43 57 48 2
19 -79 14 -164 -10z"/>
<path d="M16238 2579 l-38 -19 0 -74 c0 -55 6 -87 23 -126 l23 -52 37 58 c31
49 36 64 31 96 -4 24 -1 52 10 78 9 22 16 45 16 50 0 17 -63 10 -102 -11z"/>
<path d="M15860 2509 c-14 -6 -60 -15 -102 -20 -114 -13 -243 -65 -232 -93 3
-8 38 -12 117 -12 151 1 165 -4 173 -55 4 -22 14 -50 24 -61 l17 -21 25 28
c15 15 31 47 37 71 8 30 23 53 53 78 l42 36 -25 26 c-30 29 -90 40 -129 23z"/>
<path d="M16120 2471 c-28 -40 -27 -71 4 -71 31 0 46 19 43 58 -3 42 -22 47
-47 13z"/>
<path d="M2182 2411 c-18 -11 -28 -86 -13 -96 7 -4 21 1 32 11 31 28 13 105
-19 85z"/>
<path d="M15335 2345 c-58 -27 -77 -50 -70 -88 6 -28 2 -39 -15 -55 -39 -36
-5 -118 37 -91 33 20 63 73 63 111 0 19 7 55 15 79 18 51 10 62 -30 44z"/>
<path d="M15135 2225 c-16 -8 -40 -14 -51 -15 -12 0 -63 -13 -114 -30 -95 -30
-150 -67 -150 -102 0 -37 68 -47 102 -15 76 70 133 97 212 98 58 1 96 12 78
23 -6 3 -8 14 -5 22 6 16 -12 34 -32 33 -5 0 -23 -7 -40 -14z"/>
<path d="M2450 2150 c-6 -12 -10 -42 -8 -68 3 -45 4 -47 33 -47 29 0 30 2 28
40 -3 44 -21 95 -34 95 -5 0 -13 -9 -19 -20z"/>
<path d="M14690 2003 c-36 -14 -78 -30 -95 -36 -74 -28 -191 -190 -211 -295
-17 -85 -18 -292 -2 -344 25 -84 101 -124 290 -154 131 -20 165 -7 284 108
128 124 139 148 139 308 -1 180 -7 196 -123 307 -139 133 -177 148 -282 106z
m149 -360 c33 -27 41 -120 13 -165 -35 -56 -105 -86 -130 -55 -15 18 -62 150
-62 174 0 31 31 51 85 56 28 2 55 4 61 5 7 1 21 -6 33 -15z"/>
<path d="M2654 1945 c-7 -17 4 -37 17 -30 12 8 12 45 -1 45 -6 0 -13 -7 -16
-15z"/>
<path d="M2366 1816 c-7 -47 -2 -71 15 -61 11 8 12 75 0 94 -6 9 -11 -2 -15
-33z"/>
<path d="M4276 1851 c-4 -7 -5 -15 -2 -18 9 -9 19 4 14 18 -4 11 -6 11 -12 0z"/>
<path d="M1990 1721 c-13 -26 -13 -54 2 -86 15 -33 22 -32 47 9 26 41 26 51 1
76 -25 25 -37 25 -50 1z"/>
<path d="M2000 1551 c0 -34 18 -51 31 -30 14 21 6 53 -13 57 -14 3 -18 -3 -18
-27z"/>
<path d="M2332 1530 c0 -14 2 -19 5 -12 2 6 2 18 0 25 -3 6 -5 1 -5 -13z"/>
<path d="M2630 1540 c0 -5 4 -10 9 -10 6 0 13 5 16 10 3 6 -1 10 -9 10 -9 0
-16 -4 -16 -10z"/>
<path d="M1983 1413 c-18 -69 2 -157 37 -168 9 -3 29 -1 44 4 38 15 34 55 -14
129 -22 34 -44 62 -50 62 -5 0 -13 -12 -17 -27z"/>
<path d="M24472 1408 c6 -18 28 -21 28 -4 0 9 -7 16 -16 16 -9 0 -14 -5 -12
-12z"/>
<path d="M2570 1239 c0 -38 16 -69 36 -69 16 0 14 28 -7 73 -16 36 -29 34 -29
-4z"/>
<path d="M2242 1228 c-16 -16 -15 -24 5 -70 18 -41 36 -47 68 -22 19 14 19 15
-4 59 -24 45 -46 56 -69 33z"/>
<path d="M2820 1043 c0 -22 2 -25 10 -13 13 20 13 40 0 40 -5 0 -10 -12 -10
-27z"/>
<path d="M2149 508 c-18 -44 -16 -90 8 -176 32 -111 45 -111 53 1 4 53 1 84
-12 122 -10 27 -17 58 -18 68 0 27 -16 20 -31 -15z"/>
<path d="M29796 494 c-9 -24 -7 -44 5 -44 5 0 7 5 4 10 -4 6 -2 17 5 25 6 8 7
16 2 19 -6 3 -13 -1 -16 -10z"/>
<path d="M2450 439 c0 -42 68 -220 89 -233 10 -7 101 79 101 95 0 5 -34 43
-76 84 -78 76 -114 93 -114 54z"/>
<path d="M2947 374 c-8 -8 1 -24 14 -24 5 0 9 7 9 15 0 15 -12 20 -23 9z"/>
<path d="M2656 251 c-3 -5 1 -14 9 -21 12 -10 15 -10 15 3 0 19 -16 31 -24 18z"/>
<path d="M29800 150 c0 -5 7 -10 15 -10 8 0 15 5 15 10 0 6 -7 10 -15 10 -8 0
-15 -4 -15 -10z"/>
<path d="M2177 123 c-19 -19 5 -123 28 -123 26 0 33 61 13 105 -11 24 -28 32
-41 18z"/>
<path d="M2536 78 c-9 -36 -7 -78 4 -78 6 0 10 23 10 50 0 54 -4 63 -14 28z"/>
</g>
</svg>
